<svg version="1.1" xmlns="http://www.w3.org/2000/svg" viewBox="0 0 1097.3148022567236 746.993730079525" width="1097.3148022567236" height="746.993730079525">
  <!-- svg-source:excalidraw -->
  
  <defs>
    <style>
      @font-face {
        font-family: "Virgil";
        src: url("https://excalidraw.com/Virgil.woff2");
      }
      @font-face {
        font-family: "Cascadia";
        src: url("https://excalidraw.com/Cascadia.woff2");
      }
    </style>
  </defs>
  <rect x="0" y="0" width="1097.3148022567236" height="746.993730079525" fill="#ffffff"></rect><g stroke-linecap="round"><g transform="translate(538.8191401822671 363.4428439877931) rotate(0 0.15688712048537923 -0.043389891414591375)"><path d="M-0.77 -0.13 C-0.54 0.06, 0.86 1.15, 0.99 1.17 M1.03 -1.24 C1.22 -1.37, 0.86 -0.81, 0.56 -0.4" stroke="#fab005" stroke-width="2" fill="none"></path></g></g><g stroke-linecap="round" transform="translate(381.03399858031617 246.24963406331943) rotate(349.49460188942567 78.37730863843478 77.51211343823451)"><path d="M15.7 32.2 C15.7 32.2, 15.7 32.2, 15.7 32.2 M15.7 32.2 C15.7 32.2, 15.7 32.2, 15.7 32.2 M2.2 60.3 C17.06 42.11, 29.79 30.36, 42.18 10.58 M2.19 58.38 C14.95 45.25, 29.22 28.9, 44.02 11.03 M7.12 68.59 C23.39 49.16, 39.02 27.38, 59.22 6.4 M5.88 69.15 C26.64 44.48, 47.07 21.17, 58.53 7.7 M7.29 80.54 C29.75 52.96, 51.97 29.83, 74.87 0.24 M5.53 79.93 C32.05 51.5, 56.02 21.03, 75.23 1.09 M5.48 89.54 C33.55 58.27, 61.88 29.33, 86.25 0.8 M7.54 90.72 C36.03 56.54, 64.88 22.83, 84.19 2.46 M7.6 103.24 C26.39 79.5, 45.06 57.3, 92.55 4.43 M9.16 101.42 C41.18 65.47, 72.16 28.46, 93.96 3.23 M11.05 109.85 C41.87 77.52, 72.3 41.16, 102.41 6.44 M12.87 109.73 C33.43 83.66, 54.9 59.38, 102.03 4.73 M17.79 116.98 C41.63 89.81, 65.48 61.01, 112.81 7.81 M16.43 116.46 C50.77 76.33, 84.17 37.18, 111.61 8.47 M21.94 125.66 C45.22 97.39, 67.07 70.74, 116.86 11.05 M20.35 125.1 C50.75 88.89, 81.75 53.45, 118.41 12.54 M22.84 133.18 C55.01 96.94, 82.6 62.95, 123.31 18.71 M24.06 133.2 C47.46 103.43, 73.61 74.19, 124.15 17.64 M31.37 137.13 C65.02 99.43, 100.46 60.39, 129.03 20.44 M30.08 137.95 C67.79 93.48, 106.05 49.81, 129.98 22.7 M35.71 141.49 C65.14 107.78, 95.54 75.57, 138.03 25.39 M36.82 142.77 C69.77 102.59, 104.69 62.5, 137.46 26.76 M42.34 146.2 C63.02 123.83, 84.82 98.89, 142.41 31.42 M43.52 146.41 C74.24 108.71, 106.49 71.73, 142.52 32.75 M50.31 151.41 C87.36 108.57, 126.02 65.53, 148.85 38.74 M49.47 151.79 C70.58 128.66, 89.88 105.12, 147.86 38.65 M58.99 153.1 C87.78 123.68, 114.32 92.53, 152.1 45.9 M59.8 153.07 C81.73 123.98, 106.2 96.99, 151.47 48.01 M66.51 156.38 C91.35 130.87, 111.9 102.79, 154.8 53.89 M68.78 155.57 C100.06 117.42, 132.62 80.35, 154.35 55.59 M77.98 157.33 C107.91 117.93, 141.27 80.88, 157.82 62.97 M76.11 157.04 C95.18 134.17, 115.28 111.72, 157.91 62.7 M84.55 158.98 C113.63 129.17, 138.6 99.52, 160.68 75.5 M84.9 158.25 C103.12 137.73, 120.68 117.38, 158.25 75.58 M99.69 157.67 C119.71 131.28, 143.65 106.49, 160.98 85.63 M97.93 156.85 C118.09 134.37, 136.12 113.4, 160.68 85.63 M117.75 148.9 C127.43 137.43, 138.47 125.54, 162.4 96.51 M115.16 147.77 C127.42 137.28, 137.07 125.24, 161.55 98.12 M19.42 128.56 C19.42 128.56, 19.42 128.56, 19.42 128.56 M19.42 128.56 C19.42 128.56, 19.42 128.56, 19.42 128.56 M50.03 145.17 C41.23 135.44, 27.73 125.96, 8.98 107.59 M50.51 145.13 C34.94 131.09, 19.38 118.15, 7.89 108.62 M67.03 149.1 C46.91 130, 26.99 112.68, 2.35 92.26 M66.93 148.6 C49 132.3, 30.53 117, 3.87 93.57 M81.87 150.56 C58.29 134.39, 35.65 111.9, 3.15 84.81 M82.5 151.75 C57.38 130.52, 31.84 108.74, 4.16 83.1 M91.5 149.09 C58.43 120.27, 25.47 90.06, 2.12 71.4 M92.88 151.02 C62.19 124.92, 32.08 98.05, 3.92 71.91 M103.7 145.65 C78.87 131.53, 61.25 111.91, 3.43 60.3 M101.7 146.61 C67 117.16, 30.87 86.13, 3.59 61.86 M112.85 144.96 C69.01 107.74, 30.69 72.69, 6.13 55.13 M112.29 146.24 C73.01 112.39, 32.48 78.03, 7.28 53.81 M120.39 143.38 C80.03 108.67, 38.19 71.59, 8.98 45.13 M119.14 141.69 C76.81 106.35, 35.65 70.11, 9.61 45.34 M124.84 137.53 C83.88 98.61, 42.59 62.7, 15.76 40.19 M125.79 136.86 C97.68 110.79, 68.77 85.47, 13.97 38.36 M130.42 128.92 C92.72 95.62, 50.56 60.65, 15.63 31.63 M132.52 130.96 C92.75 95.51, 54.08 63.58, 16.84 31.41 M138.49 123.32 C95.43 87.89, 47.88 49.88, 24.11 24.07 M137.74 125.41 C103.57 96.24, 68.29 65.69, 23.79 26.08 M144.78 119.36 C98.86 78.3, 55.45 42.21, 29.47 18.92 M144.12 118.98 C102.79 83.99, 61.38 48.04, 29.75 19.98 M146.76 111.91 C121.02 88.01, 94.28 67.47, 34.23 14.23 M148.02 112.68 C111.56 80.43, 74.54 47.95, 35.55 15.17 M150.14 105.28 C109.77 67.83, 63.22 28.86, 41.79 11.33 M150.9 105.51 C125.9 81.24, 99.18 58.8, 40.5 10.34 M155.8 96.61 C112.96 60.98, 69.88 27.52, 47.39 1.56 M154.25 97.38 C112.46 62.19, 70.37 24.59, 46.31 3.99 M156.93 88.51 C123.39 60.08, 90.9 33.71, 53.85 0.77 M157.67 90.27 C120.62 59.72, 84.34 27.18, 54.81 0.57 M155.25 77.09 C135.61 57.87, 116.29 42.92, 65.63 -3.16 M157.07 77.8 C134.04 58.86, 110.27 37.71, 64.98 -1.54 M158.49 67.75 C127.25 43.29, 102.09 19.28, 77.67 -3.86 M157.15 67.53 C128.69 43.76, 99.04 18.44, 75.71 -2.04 M156.49 56.69 C142.13 43.32, 124.42 29.83, 93.95 -1.07 M155.42 56.08 C135.62 37.39, 115.32 19.77, 91.42 1.28 M148.9 38.27 C134.53 28.27, 122.3 16.86, 111.51 6.68 M146.9 38.89 C138.12 31.01, 130.04 22.89, 111.98 7.32" stroke="#bfc548" stroke-width="1" fill="none"></path><path d="M111.94 7.75 C122.26 11.25, 132.51 20.15, 139.55 28.65 C146.59 37.15, 151.48 48.13, 154.17 58.74 C156.87 69.36, 157.94 81.54, 155.72 92.34 C153.5 103.14, 147.79 114.42, 140.85 123.54 C133.91 132.66, 124.02 141.67, 114.07 147.05 C104.12 152.43, 92.3 155.44, 81.15 155.82 C70.01 156.2, 57.5 153.9, 47.2 149.34 C36.9 144.79, 26.8 137.27, 19.36 128.5 C11.92 119.73, 5.71 107.53, 2.57 96.74 C-0.57 85.95, -1.73 74.57, 0.51 63.76 C2.75 52.94, 9.26 40.97, 16.02 31.84 C22.78 22.7, 31.36 14.42, 41.08 8.97 C50.81 3.51, 63.18 -0.36, 74.38 -0.87 C85.59 -1.39, 100.51 3.75, 108.33 5.88 C116.16 8, 118.01 9.59, 121.32 11.87 C124.64 14.15, 129 18.5, 128.22 19.57 M47.45 5.76 C56.65 0.76, 69.04 1.1, 80.08 1.39 C91.11 1.68, 103.33 2.56, 113.65 7.5 C123.97 12.45, 134.86 21.97, 141.99 31.07 C149.13 40.17, 154.53 51.1, 156.47 62.1 C158.42 73.11, 156.72 86.07, 153.66 97.09 C150.6 108.1, 145.22 119.52, 138.12 128.19 C131.02 136.86, 121.09 144.43, 111.06 149.13 C101.04 153.84, 88.94 156.99, 77.98 156.41 C67.02 155.84, 55.24 150.57, 45.28 145.67 C35.31 140.76, 25.2 135.23, 18.18 126.97 C11.16 118.71, 5.67 107.14, 3.14 96.11 C0.62 85.07, 0.69 71.96, 3.04 60.77 C5.39 49.57, 10.44 37.79, 17.25 28.93 C24.07 20.06, 38.95 11.28, 43.93 7.58 C48.9 3.88, 46.4 6.46, 47.1 6.72 C47.8 6.98, 47.78 7.98, 48.13 9.14" stroke="#bfc548" stroke-width="2" fill="none"></path></g><g stroke-linecap="round"><g transform="translate(410.4391195913978 367.21792789543446) rotate(349.49460188942567 63.32372476187385 -38.81493355425923)" fill-rule="evenodd"><path d="M-1.67 0.18 L-0.77 2.94 L-13.58 -18.81 L-12.18 -28.81 L-14.72 -35.76 L-10.26 -42.87 L-0.76 -57.85 L8.1 -62.88 L34.74 -69.18 L46.79 -67.82 L99 -58.03 L107.47 -59.89 L128.06 -68.66 L134.14 -74.78 L140.55 -90.59 L136.81 -64.72 L131 -42.31 L116.07 -19.69 L96.14 -4.74 L74.08 6.15 L63.75 13.2 L43.44 15.54 L27.83 13.16 L20.96 10.04 L0.45 2.32 L-0.73 -1.87" stroke="none" stroke-width="0" fill="#ffffff" fill-rule="evenodd"></path><path d="M0.99 1.05 C1.01 1.15, 1.47 3.57, -0.66 0.49 C-2.79 -2.6, -9.83 -11.24, -11.8 -17.47 C-13.77 -23.7, -13.29 -31.29, -12.48 -36.88 C-11.68 -42.47, -10.3 -46.7, -6.97 -51.03 C-3.64 -55.35, 0.85 -59.72, 7.5 -62.82 C14.14 -65.92, 24.4 -69.15, 32.9 -69.63 C41.39 -70.1, 47.65 -67.44, 58.46 -65.66 C69.27 -63.88, 87.61 -59.16, 97.73 -58.94 C107.85 -58.72, 113.34 -61.57, 119.18 -64.33 C125.02 -67.09, 129.34 -70.9, 132.79 -75.51 C136.23 -80.12, 139.53 -95.42, 139.83 -91.99 C140.14 -88.56, 136.9 -64.91, 134.62 -54.92 C132.34 -44.94, 131.4 -39.53, 126.16 -32.08 C120.92 -24.64, 113.57 -17.32, 103.18 -10.23 C92.8 -3.14, 76.6 6.53, 63.85 10.46 C51.11 14.38, 37.16 14.89, 26.68 13.31 C16.2 11.73, 5.49 3.29, 0.98 0.99 C-3.53 -1.31, -0.21 -0.2, -0.38 -0.49 M0.05 0.55 C-0.02 0.85, 0.44 5.29, -1.61 1.95 C-3.66 -1.39, -10.56 -12.63, -12.26 -19.49 C-13.96 -26.34, -13.02 -33.97, -11.81 -39.17 C-10.59 -44.38, -7.86 -47.12, -4.96 -50.71 C-2.06 -54.3, -0.81 -57.86, 5.61 -60.72 C12.03 -63.57, 24.95 -67.03, 33.57 -67.84 C42.19 -68.66, 46.86 -66.95, 57.33 -65.61 C67.79 -64.27, 85.87 -60.04, 96.37 -59.81 C106.87 -59.57, 114.13 -61.18, 120.31 -64.18 C126.49 -67.18, 130.44 -73.62, 133.45 -77.8 C136.46 -81.99, 138.21 -93, 138.36 -89.27 C138.51 -85.55, 136.38 -64.95, 134.33 -55.45 C132.28 -45.95, 131.2 -39.67, 126.05 -32.25 C120.9 -24.84, 113.64 -18.2, 103.42 -10.98 C93.2 -3.75, 77.17 6.95, 64.73 11.1 C52.3 15.25, 39.61 15.62, 28.81 13.94 C18.01 12.26, 4.48 3.43, -0.04 1.02 C-4.56 -1.38, 1.61 -0.45, 1.69 -0.5" stroke="#bfc548" stroke-width="2" fill="none"></path></g></g><g stroke-linecap="round"><g transform="translate(424.0755439138261 360.5496923327935) rotate(349.49460188942567 41.80002682432226 -13.557364118573815)" fill-rule="evenodd"><path d="M-17.16 0.99 C-17.16 0.99, -17.16 0.99, -17.16 0.99 M-17.16 0.99 C-17.16 0.99, -17.16 0.99, -17.16 0.99 M-12.05 6.98 C-9.78 4.75, -7.36 2.46, -5.23 -0.14 M-11.42 6.66 C-9.79 5.14, -8.34 3.4, -6.15 0.63 M-7.03 11.78 C-3.18 7.52, -0.16 4.27, 2.62 1.81 M-5.65 12.07 C-2.49 9.13, -0.4 5.5, 3.44 1.82 M2.87 12.82 C4.61 9.74, 10.15 8.76, 13.67 0.85 M3.3 14.41 C6.14 10.96, 8.96 7.21, 14.53 1.14 M13.38 13.61 C18.98 9.8, 19.97 5.71, 26.7 -0.06 M14.76 13.36 C19.09 8.81, 22.13 4.3, 26.65 -0.02 M27.42 8.71 C31.57 7.7, 35.75 1.59, 38.52 -2.07 M28.11 9.24 C31.38 5.08, 35.34 1, 39.16 -1.49 M42.81 7.64 C43.66 2.69, 46.42 -0.98, 51.87 -6.48 M41.91 6.44 C46.24 1.8, 49.49 -2.79, 52.21 -6.54 M49.69 10.38 C55.18 3.43, 61 -3.94, 64.19 -7.95 M49.54 8.29 C54.78 4.08, 59.62 -0.37, 64.74 -8.33 M68.07 1.33 C80.89 -12.72, 88.83 -25.01, 98.94 -37.87 M67.93 1.62 C74.96 -6.73, 82.62 -15.24, 100.95 -36.17 M-14.87 4.91 C-14.87 4.91, -14.87 4.91, -14.87 4.91 M-14.87 4.91 C-14.87 4.91, -14.87 4.91, -14.87 4.91 M2.76 9.29 C-1.07 4.27, -5.21 1.93, -13.02 -2.6 M1.04 8.11 C-2.5 5.63, -8.4 0.56, -13.33 -4 M13.25 7.84 C10.39 3.42, 5.36 1.39, 1.63 -1.45 M12.52 8.38 C9.31 4.78, 6.01 2.38, 1.63 -2.48 M25.29 7.01 C22.23 5.75, 19.67 3.61, 13.34 -4.25 M24.36 6.68 C19.66 3.32, 15.18 0.01, 12.42 -2.78 M32.34 3.69 C31.56 1.6, 28.94 0.46, 23.18 -3.08 M32.75 3.56 C30.06 1.22, 28.38 -0.42, 23.41 -4.41 M46.84 5.91 C41.31 1.39, 38.54 -2.29, 34.32 -6.78 M45.81 5.19 C41.06 0.55, 36.68 -3.53, 34.77 -4.99 M56.72 1.95 C51.6 -0.18, 49.39 -4.77, 42.24 -8.71 M54.94 2.19 C51.86 0.22, 49.43 -2.86, 42.3 -9.06 M64.97 0.26 C60.38 -5.04, 57.35 -7.34, 51.89 -11.2 M63.08 -1.99 C59.71 -4.86, 55.38 -9.59, 50.49 -12.43 M70.81 -5.49 C69.25 -8.3, 66.9 -9.13, 63.09 -12.32 M70.4 -5.75 C67.78 -8.3, 65.13 -10.25, 63.32 -12.14 M77.35 -11.26 C75.31 -12.62, 73.73 -13.7, 71.82 -16 M76.67 -10.9 C75.19 -11.92, 73.49 -13.54, 71.58 -15.02 M84.39 -15.37 C81.29 -16.79, 79.39 -19.45, 77.83 -21.39 M84.22 -14.59 C82.04 -17.28, 79.12 -19.24, 77.93 -20.43 M91.17 -20.86 C89.28 -21.03, 87.18 -23.01, 84.96 -24.73 M90.61 -19.82 C88.88 -21.35, 87.39 -22.65, 84.62 -25.06 M95.44 -26.54 C94.58 -26.53, 94.23 -27.5, 92.73 -28.45 M95.79 -26.17 C94.6 -27.25, 93.32 -28.22, 92.68 -28.95 M99.58 -33.53 C99.1 -34.04, 98.36 -34.35, 97.76 -34.98 M99.44 -33.61 C98.82 -34.02, 98.24 -34.63, 97.86 -34.86" stroke="#82c91e" stroke-width="1" fill="none"></path><path d="M1.05 -0.01 C2.89 -0.23, 6.8 -0.14, 10.95 -0.33 C15.1 -0.52, 19.5 -0.03, 25.93 -1.14 C32.36 -2.26, 41.73 -4.79, 49.54 -7.03 C57.36 -9.26, 67.12 -11.94, 72.82 -14.56 C78.53 -17.18, 80.95 -20.73, 83.79 -22.76 C86.63 -24.8, 87.8 -25.27, 89.89 -26.76 C91.98 -28.25, 94.55 -30.03, 96.34 -31.7 C98.13 -33.37, 99.89 -36.46, 100.61 -36.78 C101.33 -37.09, 102.04 -36.02, 100.66 -33.59 C99.28 -31.17, 94.42 -24.39, 92.32 -22.22 C90.22 -20.05, 88.97 -21.67, 88.08 -20.57 C87.2 -19.48, 88.22 -17.23, 87 -15.64 C85.77 -14.05, 84.31 -13.37, 80.72 -11.05 C77.13 -8.73, 71.48 -4.34, 65.46 -1.72 C59.44 0.91, 50.93 2.82, 44.61 4.69 C38.29 6.55, 33.53 8.62, 27.54 9.48 C21.56 10.34, 14.74 9.83, 8.7 9.83 C2.67 9.83, -4.26 11.19, -8.65 9.5 C-13.03 7.8, -19.08 1.35, -17.62 -0.35 C-16.17 -2.04, -2.94 -0.58, 0.11 -0.65 M0.14 -1.06 C1.82 -1.72, 5.7 -1.82, 9.93 -2.15 C14.15 -2.48, 18.8 -2.4, 25.49 -3.06 C32.17 -3.72, 42.43 -4.31, 50.06 -6.1 C57.69 -7.89, 65.5 -10.86, 71.27 -13.81 C77.05 -16.75, 81.57 -21.37, 84.69 -23.77 C87.81 -26.17, 88.16 -26.89, 90 -28.21 C91.84 -29.54, 94.13 -30.13, 95.7 -31.73 C97.28 -33.33, 99.01 -37.47, 99.46 -37.8 C99.9 -38.13, 99.45 -36.45, 98.37 -33.7 C97.3 -30.95, 94.44 -23.94, 93.02 -21.3 C91.59 -18.65, 90.73 -18.76, 89.81 -17.86 C88.9 -16.95, 89.15 -16.96, 87.52 -15.87 C85.89 -14.78, 83.7 -13.57, 80.04 -11.33 C76.39 -9.09, 71.43 -5.26, 65.6 -2.43 C59.77 0.4, 51.61 3.51, 45.04 5.66 C38.47 7.81, 31.89 9.77, 26.17 10.49 C20.46 11.21, 16.21 10.13, 10.74 10 C5.28 9.87, -1.92 11.23, -6.63 9.73 C-11.34 8.23, -18.49 2.38, -17.53 1.01 C-16.58 -0.36, -4.06 1.46, -0.92 1.49" stroke="#bfc548" stroke-width="2" fill="none"></path></g></g><g stroke-linecap="round" transform="translate(402.0497264324789 371.1924066841845) rotate(349.49460188942567 5.8799177251046615 5.673634731559389)"><path d="M9.39 1.55 C10.47 2.32, 11.61 3.41, 12.09 4.42 C12.56 5.43, 12.7 6.65, 12.24 7.6 C11.78 8.55, 10.5 9.52, 9.33 10.11 C8.15 10.69, 6.42 11.19, 5.19 11.11 C3.96 11.03, 2.7 10.35, 1.94 9.61 C1.18 8.88, 0.8 7.95, 0.61 6.72 C0.41 5.49, 0.26 3.36, 0.79 2.23 C1.31 1.1, 2.17 0.23, 3.78 -0.05 C5.38 -0.33, 9.23 0.13, 10.42 0.57 C11.61 1.01, 11.12 2.26, 10.9 2.6 M3.53 -1.13 C4.15 -1.87, 5.51 -0.62, 6.61 -0.11 C7.7 0.4, 9.5 0.83, 10.12 1.93 C10.73 3.03, 10.43 5.22, 10.3 6.48 C10.16 7.73, 9.96 8.57, 9.3 9.45 C8.64 10.32, 7.6 11.61, 6.36 11.72 C5.13 11.83, 3.01 10.84, 1.9 10.08 C0.78 9.33, -0.27 8.62, -0.33 7.17 C-0.38 5.72, 0.81 2.28, 1.57 1.38 C2.33 0.48, 4.02 2.09, 4.21 1.77 C4.4 1.46, 2.66 -0.52, 2.71 -0.52" stroke="none" stroke-width="0" fill="#ffffff"></path><path d="M7.72 -0.11 C8.79 0.08, 9.97 1.87, 10.51 2.91 C11.04 3.95, 11.13 5.03, 10.93 6.11 C10.72 7.2, 9.91 8.49, 9.27 9.44 C8.64 10.39, 8.1 11.56, 7.12 11.81 C6.15 12.06, 4.41 11.62, 3.42 10.95 C2.43 10.28, 1.58 9.06, 1.19 7.78 C0.8 6.5, 0.89 4.61, 1.11 3.28 C1.32 1.94, 1.25 0.08, 2.48 -0.25 C3.71 -0.57, 7.45 1.17, 8.48 1.32 C9.51 1.47, 8.83 0.76, 8.67 0.66 M3.78 -0.15 C4.83 -0.81, 5.55 -0.72, 6.67 -0.48 C7.79 -0.25, 9.86 0.18, 10.5 1.27 C11.14 2.36, 10.68 4.53, 10.5 6.05 C10.32 7.56, 10.2 9.56, 9.41 10.35 C8.62 11.13, 6.65 10.83, 5.76 10.75 C4.87 10.68, 5.18 10.26, 4.09 9.9 C2.99 9.54, -0.27 9.45, -0.8 8.6 C-1.33 7.76, 0.19 6.31, 0.9 4.85 C1.6 3.39, 2.88 0.66, 3.43 -0.16 C3.98 -0.97, 3.94 -0.18, 4.18 -0.03" stroke="#bfc548" stroke-width="2" fill="none"></path></g><g transform="translate(341.58638302235613 193.15629366490396) rotate(0 119.47230259665491 48.34139411425349)"><text x="238.94460519330985" y="34.3413941142535" font-family="Virgil, Segoe UI Emoji" font-size="38.67311529140274px" fill="#000000" text-anchor="end" style="white-space: pre;" direction="ltr">Spring Batch</text><text x="238.94460519330985" y="82.682788228507" font-family="Virgil, Segoe UI Emoji" font-size="38.67311529140274px" fill="#000000" text-anchor="end" style="white-space: pre;" direction="ltr"></text></g><g stroke-linecap="round"><g transform="translate(856.1648121840627 69.60185177161016) rotate(0 -22.012204551747345 76.26662423909617)" fill-rule="evenodd"><path d="M-99.79 4.68 C-99.79 4.68, -99.79 4.68, -99.79 4.68 M-99.79 4.68 C-99.79 4.68, -99.79 4.68, -99.79 4.68 M-102.49 13 C-95.85 9.4, -91.55 1.87, -90.01 -1.3 M-101.59 14 C-97.89 8.49, -93.83 4.08, -88.98 -1.96 M-104.81 22.29 C-97.59 16, -96.5 13.26, -83.02 -1.95 M-103.08 21.61 C-98.73 15.06, -92.82 8.34, -83.26 -0.69 M-104.8 28.23 C-95.28 20.16, -85.44 7.35, -74.6 -4.96 M-106.58 29.07 C-96.62 20.59, -88.68 9.09, -76.91 -4.2 M-104.42 35.46 C-95.16 24.51, -81.44 10.69, -70.84 -2.68 M-106.25 36.22 C-96.65 25.47, -88.24 16.79, -71.14 -4.23 M-104.51 40.55 C-94.33 30.41, -84.73 16.73, -65.73 -3.42 M-104.91 40.95 C-95.85 30.71, -85.9 20.74, -66.1 -2.68 M-105.58 44.93 C-89.78 29.16, -76.03 10.77, -62.46 -3.95 M-103.25 47.03 C-93.51 34.95, -85.14 24.32, -61.56 -2.13 M-103.15 51.03 C-91.8 40.84, -81.99 26.45, -58 0.44 M-102.71 52.28 C-89.01 35.44, -75.84 21.64, -58 -0.9 M-103.77 55.48 C-90.22 41.19, -77.29 23.84, -54.56 -0.41 M-101.93 56.76 C-86.4 37.39, -72.23 20.26, -53.56 -1.48 M-101.65 59.36 C-88.75 47.21, -73.48 30.03, -47.57 2.2 M-100.86 60.89 C-84.99 41.3, -68.93 23.46, -48.42 0.2 M-98.78 64.32 C-78.87 39.52, -58.23 16.08, -45.71 0.25 M-99.32 64.65 C-79.04 40.95, -56.81 15.4, -44.37 1.14 M-99.53 69.03 C-79.1 45.91, -58.51 23.44, -39.6 2.93 M-97.1 69.93 C-85.65 53.92, -71.65 39.75, -39.94 2.19 M-96.06 74.89 C-75.33 49.01, -52.47 23.57, -36.47 4.59 M-95.83 73.22 C-74.82 49.2, -53.54 24.33, -34.51 3.94 M-93.63 76.96 C-74.49 52.49, -52.28 30.55, -28.24 0.9 M-93.79 78.51 C-71.03 50.38, -47.59 24.71, -26.94 1.87 M-94.68 80.61 C-68.11 53.88, -47.26 26.8, -22.11 -2.16 M-92.36 82.97 C-71.43 57.61, -48.56 32.52, -19.52 -0.67 M-92.1 88.03 C-68.86 57.91, -44.98 31.67, -13.93 -2.65 M-90.89 87.3 C-64.32 56.32, -38.68 24.59, -13.9 -1.9 M-87.36 89.1 C-72.75 70.43, -56.04 52.29, -7.64 -2.46 M-89.2 89.69 C-64.03 58.7, -37.18 28.85, -9.94 -1.38 M-85.73 94.11 C-66.47 68.77, -46.38 47.07, -5.24 -0.42 M-86.31 94.46 C-68.01 73.34, -49.41 52.07, -6.22 -0.2 M-86.44 96.2 C-53.65 60.34, -20.06 24.51, -1.52 -0.35 M-85.07 97.44 C-55.42 62.48, -25.07 29.46, -2.11 1.04 M-83.92 102.28 C-57.75 70.83, -35.26 43.67, 3.35 2.96 M-82.87 100.92 C-52.88 65.89, -22.87 30.06, 3.02 3.05 M-80.56 106.49 C-59.53 82.09, -40.61 60.91, 9.02 -1.45 M-80.83 104.03 C-56.56 79.16, -34.2 51.54, 9.63 0.8 M-77.38 109.59 C-54.75 78.32, -27.44 51.66, 19.08 -2.4 M-77.98 108.14 C-54.19 81.11, -28.16 51.58, 19.62 -5.31 M-76.03 110.47 C-41.99 73.64, -10.05 34.84, 26.97 -3.88 M-75.74 111.29 C-40.88 68.57, -4.75 27.99, 24.8 -4.81 M-70.83 115.04 C-47.33 84.55, -21.38 55.3, 31.85 -5.51 M-71.37 113.07 C-34.29 69.53, 4.75 26.04, 30.27 -4.53 M-69.45 113.67 C-63.65 106.5, -56.02 99.43, -49.92 93.39 M-69.18 115.05 C-61.41 106.95, -53.78 98.85, -47.57 91.16 M-47.59 92.61 C-24.75 67.86, -6.21 40.09, 36.04 -3.19 M-48.66 92.17 C-18.5 57.25, 12.3 22.63, 35.33 -3.56 M-41.08 88.75 C-18.87 63.45, 5.69 33.08, 38.92 -4.27 M-41 90.4 C-13.44 58.02, 15.62 24.36, 40.02 -4.43 M-54.1 110.65 C-54.1 110.65, -54.1 110.65, -54.1 110.65 M-54.1 110.65 C-54.1 110.65, -54.1 110.65, -54.1 110.65 M-39.65 91.14 C-14.82 66.1, 7.85 37.62, 44.89 -2.87 M-37.31 92.19 C-18.16 68.89, 3.79 44.8, 44.69 -3.59 M-49.92 110.99 C-45.91 107.69, -44.66 106.26, -42.63 104.5 M-48.84 110.76 C-47.51 109.27, -45.72 107.35, -43.54 103.9 M-33.06 95.55 C-16.69 74.15, 0.25 54.46, 48.39 -0.77 M-34.16 94.62 C-2.58 58.07, 30.87 20.82, 48.15 -1.09 M-44.17 112.7 C-19.65 86.19, 3.82 58, 53.27 1.66 M-43.84 111.33 C-24.23 86.63, -3.61 62.7, 52.07 -0.37 M-38.54 113.58 C-4.42 72.29, 33.01 28.47, 54.82 1.14 M-38.76 111.83 C-16.76 86.62, 4.58 62.26, 55.92 2.3 M-34.05 111.56 C1.49 73.86, 33.38 34.46, 61.25 5.61 M-32.57 110.82 C-14.38 88.06, 5 65.92, 59.83 3.41 M-26.34 108.99 C4.02 75.29, 35.94 36.56, 63.68 5.97 M-28.11 110.16 C2.76 76.43, 31.62 40.67, 61.25 7.34 M-23.34 110.77 C-2.31 86.48, 23.57 60.56, 60.82 13.14 M-23.28 110.4 C12.34 70.97, 45.79 32.17, 63.16 12.36 M-21.86 114.26 C4.84 85.65, 26.6 59.78, 62.2 19.17 M-20.18 115.7 C10.94 76.85, 43.05 39.53, 61.85 19.7 M-20.42 117.94 C-1.75 97.54, 14.77 77.64, 59.57 27.18 M-19.4 120.44 C7.22 88.02, 34.59 57.88, 59.85 28.51 M-20.46 125.16 C-3.49 106.35, 15.96 86.85, 58.16 37.09 M-19.68 125.91 C6.08 96.69, 33.32 66.51, 57.7 35.51 M-19.12 128.79 C5.88 101.94, 27.57 76.71, 61.32 41.52 M-18.17 130.98 C4.75 103.6, 28.77 77.52, 60.13 39.84 M-18.54 134.42 C3.82 110.59, 26.65 85.87, 54.1 54.09 M-18.18 136.24 C1.61 114.54, 18.63 94.84, 54.2 53.41 M-17.87 140.8 C-0.55 125.17, 15.35 106.71, 48.03 68.4 M-18.69 142.39 C1.95 118.47, 22.59 95.55, 45.57 68.76 M-14.75 146 C-4.61 131.85, 5.89 118.75, 32.85 87.36 M-16.27 145.4 C-1.76 128.14, 14.29 111.53, 34.78 88.45 M-13.12 149.4 C2.7 131.76, 19.2 110.77, 34.71 89.74 M-14.37 150.49 C3.1 129.82, 20.35 109.75, 37 92.46 M-10.75 155.07 C-5.59 143.84, 6.26 133.1, 25.23 112 M-11.35 154.4 C2.02 138.59, 14.04 122.97, 25.56 110.13 M30.38 107.81 C33.32 102.59, 33.5 99.17, 39.31 92.61 M27.88 107.48 C33.74 102.06, 37.81 96.73, 41.27 93.28 M-10.1 158.18 C-3.13 147.99, 3.28 142.47, 24.22 116.16 M-9.54 157.63 C4.12 141.79, 16.92 125.88, 26.51 116.55 M33.05 106.5 C38.09 101.06, 42.29 96.05, 47.4 92.1 M33.47 106.34 C36.42 102.83, 38.37 100.48, 45.69 92.68 M-6.66 157.83 C0.06 151.97, 11.09 140.33, 26.37 121.77 M-7.03 160.51 C2.42 148.98, 11.67 140.22, 25.86 122.13 M39.88 107.14 C41.38 104.25, 43.7 102.47, 50.79 94.36 M40.05 107.67 C44.09 101.67, 46.75 96.93, 49.78 93.45 M-2.3 159.11 C7.27 149.28, 17.85 138.4, 26.38 129.78 M-0.83 161.07 C8.93 148.56, 18.67 136.99, 25.73 129.88 M44.95 106.1 C49.78 103.77, 49.68 100.07, 54.29 93.17 M45.24 105.1 C47.84 103.38, 49.73 101.89, 54.92 93.93 M6.83 158.07 C8.98 154.89, 13.62 147.83, 21.02 135.9 M5.97 157.39 C8.09 155.04, 12.09 149.71, 22.99 138.06 M13.5 155.3 C16.35 151.57, 18.36 150.16, 20.21 146.62 M13.27 155.91 C15.21 153.44, 16.31 151.23, 20.2 146.83" stroke="#4c6ef5" stroke-width="0.5" fill="none"></path><path d="M0.88 0.3 C-1.77 -0.63, -11.17 -4.38, -16.08 -4.66 C-21 -4.94, -24.49 -2.22, -28.61 -1.39 C-32.73 -0.56, -32.6 0.85, -40.82 0.33 C-49.04 -0.18, -67.4 -6.44, -77.93 -4.49 C-88.46 -2.53, -99.63 2.61, -104 12.06 C-108.37 21.52, -106.84 38.57, -104.15 52.24 C-101.45 65.91, -93.86 83.5, -87.83 94.1 C-81.79 104.71, -74.48 116.31, -67.94 115.88 C-61.4 115.45, -53.6 95.66, -48.59 91.52 C-43.58 87.38, -40.56 90.35, -37.86 91.05 C-35.16 91.75, -32.45 94.22, -32.4 95.7 C-32.34 97.19, -35.59 98.68, -37.52 99.95 C-39.45 101.23, -41.32 101.68, -44 103.34 C-46.68 105, -54.54 108.61, -53.61 109.91 C-52.67 111.21, -42.35 110.8, -38.39 111.12 C-34.43 111.45, -32.4 111.76, -29.86 111.85 C-27.33 111.94, -25.11 106.56, -23.18 111.67 C-21.24 116.78, -20.73 134.57, -18.25 142.52 C-15.77 150.48, -13.89 157.47, -8.29 159.4 C-2.7 161.33, 10.01 157.62, 15.32 154.12 C20.64 150.63, 22.39 145.35, 23.61 138.45 C24.84 131.55, 22.31 118.31, 22.69 112.72 C23.07 107.12, 22.19 106.19, 25.91 104.88 C29.62 103.57, 39.82 106.45, 44.99 104.85 C50.16 103.25, 57.31 97.2, 56.93 95.29 C56.55 93.39, 46.71 94.73, 42.72 93.42 C38.73 92.1, 32.32 92.26, 33.01 87.41 C33.69 82.57, 42.75 72.95, 46.83 64.34 C50.92 55.74, 55.04 45.45, 57.52 35.78 C59.99 26.11, 64.68 13.26, 61.68 6.35 C58.69 -0.57, 47.08 -3.64, 39.55 -5.71 C32.02 -7.77, 23.02 -6.85, 16.51 -6.04 C10 -5.23, 3.28 -2.03, 0.48 -0.83 M-0.12 -0.6 C-2.85 -1.98, -11.85 -6.17, -16.65 -6.63 C-21.44 -7.08, -24.97 -4.63, -28.89 -3.33 C-32.82 -2.03, -31.85 1.8, -40.21 1.16 C-48.58 0.51, -68.71 -8.91, -79.09 -7.2 C-89.46 -5.48, -98.34 1.7, -102.47 11.47 C-106.59 21.23, -106.14 37.56, -103.83 51.38 C-101.52 65.2, -94.32 83.78, -88.59 94.39 C-82.86 105, -76.19 115.59, -69.43 115.03 C-62.67 114.48, -53.29 94.93, -48.04 91.04 C-42.78 87.15, -40.35 90.92, -37.9 91.67 C-35.44 92.43, -33.44 94.35, -33.29 95.55 C-33.14 96.74, -35.14 97.65, -37.01 98.86 C-38.88 100.08, -41.29 101.06, -44.52 102.83 C-47.76 104.59, -57.1 107.91, -56.42 109.45 C-55.73 110.98, -45.15 112.06, -40.42 112.05 C-35.69 112.04, -31.23 109.52, -28.05 109.41 C-24.87 109.31, -23.32 105.8, -21.35 111.44 C-19.38 117.08, -18.43 135.55, -16.2 143.26 C-13.98 150.96, -13.08 156, -8 157.65 C-2.93 159.3, 9.43 156.49, 14.24 153.13 C19.05 149.77, 19.48 143.84, 20.84 137.5 C22.2 131.16, 21.33 120.63, 22.41 115.07 C23.5 109.51, 23.85 105.75, 27.36 104.13 C30.88 102.52, 38.37 106.85, 43.52 105.4 C48.67 103.96, 58.14 97.52, 58.27 95.46 C58.4 93.4, 48.32 94.61, 44.28 93.04 C40.24 91.47, 33.51 90.62, 34.05 86.05 C34.59 81.48, 43.4 73.71, 47.53 65.63 C51.66 57.54, 56.47 47.16, 58.82 37.55 C61.18 27.95, 64.39 14.96, 61.67 7.98 C58.94 1.01, 49.79 -1.92, 42.47 -4.31 C35.14 -6.69, 25 -7.02, 17.72 -6.32 C10.44 -5.62, 1.55 -1.33, -1.22 -0.1" stroke="#364fc7" stroke-width="1" fill="none"></path></g></g><g stroke-linecap="round"><g transform="translate(818.5643266365938 70.22122814340742) rotate(0 0.5309082123636131 54.60211741603124)"><path d="M0.3 0.73 C-1.68 2.67, -8.21 7.08, -10.93 12.51 C-13.65 17.93, -15.37 25.81, -16.03 33.29 C-16.69 40.76, -14.82 51.06, -14.9 57.36 C-14.99 63.67, -16.82 67.1, -16.54 71.1 C-16.26 75.1, -15.22 78.53, -13.25 81.39 C-11.28 84.25, -8.02 86.36, -4.73 88.26 C-1.44 90.15, 3.07 91.63, 6.49 92.77 C9.9 93.9, 13.88 93.45, 15.76 95.07 C17.63 96.7, 18.3 100.18, 17.73 102.52 C17.16 104.86, 13.04 108.11, 12.34 109.13 M-1.01 0.07 C-3.19 1.61, -9.16 5.66, -11.72 10.87 C-14.29 16.08, -15.86 23.93, -16.4 31.3 C-16.93 38.68, -14.76 48.4, -14.93 55.12 C-15.11 61.84, -17.43 66.85, -17.45 71.61 C-17.47 76.37, -16.75 81.09, -15.05 83.68 C-13.35 86.28, -10.78 85.69, -7.25 87.17 C-3.73 88.66, 2.44 90.94, 6.09 92.6 C9.73 94.26, 12.56 95.62, 14.62 97.13 C16.69 98.65, 18.86 100.07, 18.47 101.71 C18.08 103.35, 13.31 105.84, 12.3 106.98" stroke="#364fc7" stroke-width="1" fill="none"></path></g></g><g stroke-linecap="round"><g transform="translate(855.5796205165983 69.40205707266287) rotate(0 16.544294064279597 43.4848485287829)"><path d="M0.73 0.3 C2.27 0.69, 6.23 0.63, 10.08 2.65 C13.94 4.67, 20.5 6.7, 23.86 12.4 C27.21 18.11, 29.5 29.22, 30.24 36.9 C30.97 44.59, 27.92 52.12, 28.26 58.52 C28.59 64.92, 32.03 70.44, 32.26 75.31 C32.48 80.17, 30.07 85.65, 29.6 87.69 M-0.34 -0.59 C1.04 -0.56, 5.65 -1.41, 9.62 0.93 C13.58 3.27, 19.92 7.78, 23.45 13.44 C26.98 19.11, 30.22 27.26, 30.8 34.91 C31.37 42.56, 26.48 52.71, 26.91 59.35 C27.33 66, 32.74 70.15, 33.34 74.76 C33.94 79.36, 31.3 84.8, 30.51 86.97" stroke="#364fc7" stroke-width="1" fill="none"></path></g></g><g stroke-linecap="round"><g transform="translate(880.6942134715683 175.6934559859855) rotate(0 -2.2393605584558713 -36.98731565731913)"><path d="M0.3 0.92 C0.47 -0.73, 0.7 -6.78, 1.32 -9.18 C1.95 -11.58, 2.47 -12.34, 4.04 -13.47 C5.61 -14.61, 10.67 -14.72, 10.73 -15.99 C10.79 -17.26, 6.3 -18.95, 4.43 -21.1 C2.55 -23.25, 1.16 -25.51, -0.5 -28.87 C-2.17 -32.23, -3.35 -35.77, -5.58 -41.27 C-7.81 -46.76, -12.91 -56.35, -13.89 -61.85 C-14.87 -67.35, -14.29 -72.34, -11.46 -74.25 C-8.63 -76.15, 0.48 -73.36, 3.11 -73.28 M-1.01 0.36 C-0.95 -1.7, 0.11 -8.3, 0.78 -10.95 C1.44 -13.59, 1.81 -14.86, 3 -15.5 C4.18 -16.14, 7.81 -13.84, 7.88 -14.77 C7.94 -15.69, 5.09 -18.55, 3.4 -21.03 C1.71 -23.51, -0.37 -26.08, -2.26 -29.65 C-4.16 -33.22, -5.96 -36.97, -7.98 -42.43 C-10 -47.89, -13.51 -57.42, -14.37 -62.4 C-15.24 -67.39, -16.14 -70.53, -13.16 -72.33 C-10.18 -74.13, 0.51 -73.19, 3.51 -73.21" stroke="#364fc7" stroke-width="1" fill="none"></path></g></g><g stroke-linecap="round"><g transform="translate(802.3736211007117 111.83387451302407) rotate(0 13.937076684784131 22.14154451229912)"><path d="M0.92 0.77 C2.38 -0.12, 6.22 -4.13, 9.48 -5.02 C12.75 -5.91, 17.72 -6.16, 20.54 -4.59 C23.35 -3.03, 25.54 -0.16, 26.37 4.35 C27.2 8.87, 26.1 17.18, 25.52 22.49 C24.94 27.8, 23.69 31.49, 22.87 36.22 C22.04 40.95, 21.06 48.61, 20.55 50.88 M-0.05 0.12 C1.24 -0.63, 5.54 -2.68, 8.89 -3.76 C12.25 -4.85, 17.11 -7.38, 20.08 -6.38 C23.06 -5.38, 25.52 -2.71, 26.74 2.24 C27.95 7.2, 28.36 17.78, 27.38 23.37 C26.41 28.96, 21.88 31.35, 20.88 35.8 C19.88 40.25, 21.76 47.8, 21.37 50.07" stroke="#364fc7" stroke-width="1" fill="none"></path></g></g><g stroke-linecap="round"><g transform="translate(874.9595305888295 104.89494341598694) rotate(358.18735542929625 -0.1660325819565287 3.4675512100500825)" fill-rule="evenodd"><path d="M1.71 -0.68 L-4.41 1.12 L-0.9 6.96 L5.05 1.81 L-0.84 0.59" stroke="none" stroke-width="0" fill="#4c6ef5" fill-rule="evenodd"></path><path d="M0.77 0.68 C-0.09 1, -4.94 2.04, -4.85 2.86 C-4.76 3.67, -0.35 5.97, 1.31 5.55 C2.96 5.12, 5.11 1.15, 5.05 0.31 C4.99 -0.53, 1.58 0.49, 0.93 0.5 M-0.29 -0.01 C-1.38 -0.12, -6.31 -0.12, -6.08 1.04 C-5.85 2.21, -0.87 6.98, 1.1 6.99 C3.07 6.99, 5.94 2.06, 5.75 1.09 C5.56 0.12, 0.98 1.42, -0.05 1.15" stroke="#364fc7" stroke-width="1" fill="none"></path></g></g><g stroke-linecap="round"><g transform="translate(818.5887630544119 109.90833835271692) rotate(14.802012269513854 0.3517057962159811 2.313667433443648)" fill-rule="evenodd"><path d="M-1.14 -1.14 L-2.78 3 L0.35 4.16 L3.83 3.15 L6.27 0.47 L1.89 -1.03" stroke="none" stroke-width="0" fill="#4c6ef5" fill-rule="evenodd"></path><path d="M0.68 -0.53 C-0.11 -0.12, -3.67 2.15, -3.83 3.21 C-4 4.28, -1.38 5.54, -0.3 5.85 C0.78 6.17, 1.72 5.86, 2.63 5.11 C3.53 4.36, 5.51 2.03, 5.13 1.35 C4.74 0.67, 1.26 1.26, 0.34 1.02 M-0.42 1.81 C-1.4 1.83, -4.38 1.29, -4.47 1.65 C-4.56 2.01, -2.11 3.72, -0.94 3.96 C0.23 4.19, 1.74 3.92, 2.55 3.04 C3.36 2.17, 4.63 -0.87, 3.92 -1.29 C3.2 -1.71, -1.08 0.55, -1.73 0.52" stroke="#364fc7" stroke-width="1" fill="none"></path></g></g><g transform="translate(809.5767893591716 15.428265791798701) rotate(0 0.00003460736155602717 0.0000346073615506981)" stroke="none" fill="#364fc7"><path d="M 1.8561553006146871 -1.8561553006146871 Q 1.8561553006146871 -1.8561553006146871 2.224418597338462 -1.1333978856726465 2.5926818940622365 -0.41064047073060594 2.224418597338462 -1.1333978856726465 1.8561553006146871 -1.8561553006146871 2.224418597338462 -1.1333978856726465 2.5926818940622365 -0.41064047073060594 2.465787010028351 0.39054229554285214 2.3388921259944655 1.1917250618163102 1.7653085939053876 1.765308593905388 1.19172506181631 2.338892125994466 0.39054229554285225 2.465787010028351 -0.4106404707306055 2.5926818940622365 -1.1333978856726463 2.224418597338462 -1.856155300614687 1.8561553006146874 -2.224418597338462 1.1333978856726468 -2.5926818940622365 0.41064047073060617 -2.465787010028351 -0.3905422955428519 -2.338892125994466 -1.19172506181631 -1.7653085939053883 -1.7653085939053876 -1.1917250618163107 -2.3388921259944655 -0.3905422955428537 -2.465787010028351 0.4106404707306033 -2.592681894062237 1.1333978856726452 -2.2244185973384623 Z"></path></g><g transform="translate(733.1714255807509 10) rotate(0 110.39748334566985 49.142453401520754)"><text x="220.7949666913397" y="35.142453401520754" font-family="Virgil, Segoe UI Emoji" font-size="38.67311529140274px" fill="#000000" text-anchor="end" style="white-space: pre;" direction="ltr">PostgreSQL</text><text x="220.7949666913397" y="84.28490680304151" font-family="Virgil, Segoe UI Emoji" font-size="38.67311529140274px" fill="#000000" text-anchor="end" style="white-space: pre;" direction="ltr"></text></g><g stroke-linecap="round" transform="translate(903.8891656595168 497.78267603344096) rotate(0 0.02485861638518827 0.02485861638518827)"><path d="M0 0 C0 0, 0 0, 0 0 M0 0 C0 0, 0 0, 0 0" stroke="#000000" stroke-width="0.5" fill="none"></path><path d="M0 0 C0.01 0, 0.02 0, 0.05 0 M0 0 C0.02 0, 0.03 0, 0.05 0 M0.05 0 C0.05 0.02, 0.05 0.03, 0.05 0.05 M0.05 0 C0.05 0.02, 0.05 0.04, 0.05 0.05 M0.05 0.05 C0.04 0.05, 0.03 0.05, 0 0.05 M0.05 0.05 C0.03 0.05, 0.02 0.05, 0 0.05 M0 0.05 C0 0.03, 0 0.01, 0 0 M0 0.05 C0 0.03, 0 0.02, 0 0" stroke="#000000" stroke-width="1" fill="none"></path></g><g stroke-linecap="round" transform="translate(781.6608300027596 487.6759414802256) rotate(0 29.256618579299413 28.69157828305208)"><path d="M-0.41 19.52 C-0.41 19.52, -0.41 19.52, -0.41 19.52 M-0.41 19.52 C-0.41 19.52, -0.41 19.52, -0.41 19.52 M-2.57 28.59 C5.43 17.07, 10.54 11.44, 21.11 2.1 M1.49 23.93 C6.05 18.98, 10.98 12.35, 15.91 3.39 M2.12 28.15 C10.28 23.56, 12.17 18.66, 23.38 1.44 M0.6 32.02 C4.96 25.12, 11.13 18.43, 22.24 3.62 M1.42 38.85 C11.23 30.07, 16.8 20.28, 26.8 3.34 M1.77 35.23 C12.38 23.07, 22.05 11.58, 28.6 2.71 M-0.39 37.43 C16.33 22.36, 32.69 10.09, 36.58 3.45 M4.14 40.68 C11.42 33.29, 16.46 23.22, 35.81 2.53 M5.84 42.12 C14.15 27.28, 25.37 19.54, 38.53 5.55 M4.34 41.18 C17.45 28.3, 28.55 18.8, 39.35 2.87 M10.15 47.05 C14.73 36.71, 20.05 29.76, 42.37 7.66 M8.48 44.73 C19.51 31.88, 33.16 14.49, 42.6 4.59 M12.18 46.84 C21 41.26, 25.22 32.31, 43.77 6.18 M10.74 48.14 C21.1 37.7, 27.9 30.43, 46.86 8.82 M13.18 50.98 C27.42 34.94, 38.25 27.44, 52.48 6.28 M13.41 54.52 C20.31 44.61, 27.35 34.05, 49.37 8.46 M16.77 56.98 C32.43 37.57, 44.19 20.46, 52.9 10.47 M17.48 55.43 C28.85 39.65, 40.62 24.72, 55.86 11.74 M23.62 53.71 C36.49 43.81, 49.36 30.15, 59.65 18.35 M21.33 57.34 C33.93 42.05, 45.89 29.3, 58 15.06 M29.53 53.57 C32.65 44.78, 41.11 36.35, 61.36 22.8 M24.72 54.81 C34.28 48.69, 44.41 37.41, 57.2 18.3 M29.43 54.32 C41.22 49.28, 44.74 34.59, 57.56 20.75 M28.74 59.44 C36.85 50.69, 42.65 43.02, 59.38 24.54 M36.74 57.23 C44.09 49.08, 45.75 42.29, 56.68 28.76 M37.09 59.04 C41.94 49.63, 46.22 44.12, 60.94 30.82 M44.89 48.49 C47.13 47.22, 52.13 40.69, 58.52 41.88 M45.46 53.27 C48.03 50.01, 49.05 47.34, 57.34 40.25 M13.47 53.1 C13.47 53.1, 13.47 53.1, 13.47 53.1 M13.47 53.1 C13.47 53.1, 13.47 53.1, 13.47 53.1 M25.14 57.5 C16.75 48.98, 8.53 45.22, 2.12 35.42 M19.66 56.64 C13.01 49.15, 8.57 42.8, 2.27 39.1 M30.52 56.52 C26.41 48.47, 18.9 43.08, -0.99 32.85 M27.08 56.43 C21.52 46.56, 13.17 38.97, 0.24 31.94 M33.07 57.48 C25.12 47.04, 17.33 39.72, 1.68 29.02 M33.79 55.56 C20.88 45.97, 10.17 33.97, 1.61 25.09 M39.2 51.92 C30.28 41.43, 12.9 27.42, -3.02 17.43 M37.97 54.69 C25.89 43.04, 8.8 29.02, 1.28 18.47 M39.37 49.62 C28.89 40.75, 10.72 28.04, 4.91 12.85 M43.54 52.88 C27.56 41.14, 13.75 27.75, 0.45 17 M49.53 47.93 C35.07 36.5, 23.51 31.25, 7.77 11.97 M47.52 49.98 C32.52 39.4, 21.54 25.43, 3.69 14.25 M48.12 48.47 C39.31 43.94, 31.28 32.56, 6.31 8.64 M49.01 46.38 C40.16 39.64, 29.81 27.17, 9 12.85 M52.79 44.33 C37.4 30.99, 23.33 22.22, 11.57 8.51 M55.82 47.26 C43.48 34.9, 32.15 27.46, 11.64 6.07 M54.5 42.1 C37.04 26.9, 25.14 14.9, 16.55 8.28 M54.51 39.75 C41.1 30.15, 26.05 17.12, 13.7 6.25 M56.4 35.07 C43 27.72, 35.9 16.23, 17.04 -0.28 M55.21 39.08 C43.38 27.2, 27.61 13.83, 16.88 3.77 M54.45 31.93 C43.21 17.57, 27.29 8.68, 18.27 -0.41 M56.16 32.45 C42.34 20.52, 29.37 6.33, 23.08 2.13 M54.26 24.73 C52.31 19.35, 38.32 16.39, 28.03 2.31 M58.57 27.99 C45.95 18.89, 35.76 8.19, 27.44 1.61 M59.29 24.14 C47.43 12.74, 37.89 4.89, 28.54 -1.48 M58.61 21.09 C48.25 14.63, 41.85 8.94, 32.17 -1.05 M55.66 11.39 C48.74 6.68, 40.23 -1.54, 37.82 -3.53 M54.31 15.46 C51.31 11.57, 43.5 5.33, 35.85 -4.24 M54.27 10.55 C51.21 6.22, 47.82 4.34, 45.06 1.88 M52.74 8.25 C51.44 7.57, 50.75 4.8, 45.98 0.56" stroke="#000000" stroke-width="0.5" fill="none"></path><path d="M15.37 3.07 C20.24 -0.42, 26.46 -0.44, 32.76 0.34 C39.05 1.12, 48.98 3.08, 53.13 7.76 C57.27 12.43, 57.78 21.72, 57.65 28.4 C57.53 35.07, 56 43.05, 52.36 47.82 C48.72 52.58, 42.24 56.07, 35.81 56.99 C29.37 57.91, 19.47 56.52, 13.74 53.33 C8.02 50.15, 3.83 43.5, 1.47 37.87 C-0.9 32.24, -6.09 25.94, -0.45 19.57 C5.19 13.19, 25.98 0.34, 35.3 -0.37 C44.62 -1.09, 55.21 14.39, 55.45 15.28 M3.9 8.42 C7.39 4.04, 19.13 3.44, 25.57 2.38 C32.01 1.32, 37.44 -0.05, 42.57 2.07 C47.69 4.19, 54.32 9.46, 56.3 15.11 C58.29 20.77, 56.29 29.79, 54.47 36.01 C52.65 42.22, 50.04 49.15, 45.38 52.4 C40.72 55.65, 32.87 56.47, 26.51 55.49 C20.15 54.5, 11.17 50.46, 7.22 46.48 C3.28 42.49, 2.67 37.48, 2.85 31.57 C3.02 25.67, 7.39 14.64, 8.27 11.06 C9.15 7.48, 7.88 9.35, 8.13 10.09" stroke="#000000" stroke-width="1" fill="none"></path></g><g stroke-linecap="round" transform="translate(792.2068934824864 498.120183810804) rotate(0 19.172623052658423 17.79348607552822)"><path d="M33.66 8.12 C36.48 10.67, 40.08 14.8, 39.83 18.33 C39.59 21.85, 35.28 26.28, 32.18 29.25 C29.08 32.22, 25 35.56, 21.23 36.14 C17.47 36.73, 13.08 34.68, 9.57 32.76 C6.06 30.84, 1.33 28.33, 0.17 24.63 C-0.98 20.94, 0.95 14.58, 2.61 10.6 C4.28 6.63, 6.46 2.55, 10.18 0.77 C13.9 -1.01, 20.25 -2.14, 24.92 -0.08 C29.6 1.97, 35.9 9.46, 38.23 13.1 C40.57 16.75, 39.32 21.82, 38.95 21.81 M28.15 0.22 C31.21 2.6, 36.19 10.01, 37.37 14.24 C38.55 18.47, 36.87 22.13, 35.23 25.59 C33.58 29.05, 31.21 33.82, 27.48 34.99 C23.76 36.15, 17.07 33.68, 12.85 32.58 C8.63 31.48, 4.7 30.8, 2.19 28.38 C-0.32 25.97, -2.84 22.13, -2.21 18.09 C-1.57 14.05, 2.57 7.06, 5.99 4.14 C9.42 1.21, 14.72 0.42, 18.33 0.54 C21.95 0.67, 26.01 4.77, 27.68 4.88 C29.35 4.99, 28.75 1.57, 28.37 1.19" stroke="none" stroke-width="0" fill="#000000"></path><path d="M10.68 0.58 C14.08 -0.92, 21.21 1.69, 25.01 2.83 C28.81 3.97, 31.21 4.5, 33.49 7.41 C35.77 10.33, 38.71 16.29, 38.7 20.32 C38.68 24.35, 36.5 29.31, 33.41 31.59 C30.33 33.86, 24.59 34.01, 20.17 33.96 C15.75 33.91, 10.39 33.68, 6.87 31.3 C3.35 28.92, -0.16 23.45, -0.95 19.67 C-1.74 15.89, -0.83 11.62, 2.1 8.6 C5.04 5.59, 12.87 2.67, 16.67 1.59 C20.46 0.51, 24.42 2.37, 24.87 2.11 M26.85 5.09 C30.73 7.15, 37.74 8.68, 39.2 11.91 C40.66 15.13, 37.93 21.27, 35.6 24.44 C33.26 27.62, 28.89 29.05, 25.2 30.95 C21.52 32.85, 17.13 35.99, 13.49 35.84 C9.84 35.69, 5.87 33.23, 3.35 30.06 C0.84 26.89, -1.64 20.39, -1.59 16.82 C-1.55 13.26, 0.26 11.09, 3.62 8.65 C6.97 6.21, 14.23 2.94, 18.54 2.19 C22.85 1.45, 27.92 3.83, 29.49 4.18 C31.06 4.53, 27.69 3.91, 27.97 4.28" stroke="#ffffff" stroke-width="1" fill="none"></path></g><g stroke-linecap="round" transform="translate(786.1590558248421 424.62394235513847) rotate(0 22.997376805994975 22.55322279112994)"><path d="M1.53 10.61 C1.53 10.61, 1.53 10.61, 1.53 10.61 M1.53 10.61 C1.53 10.61, 1.53 10.61, 1.53 10.61 M-0.92 17.63 C2.23 14.24, 13.67 3.98, 14.53 -2.68 M1.57 17.1 C6.01 10.91, 7.69 6.05, 15.29 -1.07 M2.6 25.34 C4.19 20.83, 11.89 8.02, 16.52 -0.46 M-1 24.74 C5.13 17.79, 7.92 13.11, 18.5 1.66 M4.95 31 C12.7 18.32, 15.51 9.28, 26.55 0.37 M2.57 27.76 C11.26 17.42, 17.55 8.74, 26.97 0.05 M3.51 29.85 C16.31 22.6, 22.97 13.36, 26.7 0.07 M4.67 34.19 C11.4 21.6, 21.94 11.23, 30.84 3.7 M2.6 34.53 C10.87 30.29, 21.31 18.79, 35.08 1.46 M5.05 34.82 C11.96 31.17, 18.66 21.02, 32.17 5.67 M6.88 39.42 C11.49 32.8, 21.36 24.65, 40.5 8.68 M6.21 40.65 C13.52 30.89, 20.78 23.35, 35.49 4.41 M13.38 43.02 C20.2 31.18, 28.23 17.48, 37.21 7.15 M13.31 40.33 C23.49 29.54, 33.67 17.68, 40.58 8.71 M18.27 39.33 C27.61 33.78, 37.62 16.93, 40.24 9.67 M14.94 44.62 C25.24 29.7, 36.09 16.45, 45.67 10.89 M20.88 43.77 C23.77 36.52, 29.13 30.8, 48.86 11.53 M19 43.31 C23.12 36.67, 30.69 33.5, 48.86 11.01 M26.32 47.96 C32.28 42.1, 39.13 35.12, 48.59 18.7 M25.34 45.14 C32.03 37.99, 38.5 30.35, 46.07 20.04 M30.95 40.67 C36.14 35.85, 43.04 37.05, 43.79 27.85 M31.11 45.74 C37.17 39.57, 38.96 33.03, 45.59 29.01 M6.06 38.76 C6.06 38.76, 6.06 38.76, 6.06 38.76 M6.06 38.76 C6.06 38.76, 6.06 38.76, 6.06 38.76 M20.67 40.69 C12.35 35.84, 5.08 33.35, -1.82 33.38 M18.95 41.09 C12.72 36.75, 7.7 34.36, 1.85 28.57 M21.61 43.12 C16.21 32.99, 11.13 33.93, -2.83 26.71 M24.24 45.15 C14.67 38.59, 8.51 31.83, -0.81 25.06 M27.42 42.51 C24.04 39.43, 16.93 31.01, -2.44 16.33 M27.24 40.95 C19.38 31.59, 8.81 22.24, 0.19 17.87 M34.16 40.59 C22.27 34.55, 17.48 25.87, 4.29 11.42 M32.21 41.91 C22.82 31.47, 10.26 22.46, 0.28 15.15 M42.43 38.81 C31.96 31.3, 19.81 27.59, 2.72 5.74 M39.63 39.32 C32.18 32.43, 22.51 27.43, 2.47 7.36 M39.98 36.21 C30.36 27.12, 17.16 18.51, 8.06 9.54 M38.79 37.28 C30.24 26.34, 20.78 17.14, 6.66 6.22 M46.19 31.97 C33.61 21.58, 22.37 15.15, 12.67 5.66 M44.15 34.3 C30.27 22.57, 19.22 9.78, 10.91 5.89 M46.33 32.14 C36.48 25.74, 32.26 11.92, 14.46 0.03 M43.56 31.11 C33.5 21.21, 20.65 11, 11.79 0.49 M45.98 22.92 C38.66 21.17, 33.1 10.01, 16.31 -3.69 M44.66 26.97 C39.34 17.73, 28.85 12.14, 13.7 -0.12 M44.15 23.28 C36.48 12, 26.2 1.93, 20.66 -2.14 M45.87 21.37 C40.34 12.33, 34.61 10.56, 23.42 -1.4 M44.18 14.16 C41.33 14.91, 39.49 8.75, 27.83 -1.53 M47.26 14.33 C41.7 12.35, 35.41 3.39, 30.39 -0.28" stroke="#000000" stroke-width="0.5" fill="none"></path><path d="M30.6 1.58 C35.16 2.87, 42.82 5.54, 45.17 9.86 C47.52 14.18, 45.97 22.23, 44.7 27.5 C43.42 32.77, 41.13 38.51, 37.54 41.47 C33.94 44.44, 28.34 45.73, 23.12 45.3 C17.9 44.87, 10.11 42.34, 6.2 38.89 C2.29 35.43, 0.47 29.25, -0.33 24.56 C-1.12 19.87, -1.09 14.84, 1.41 10.75 C3.91 6.65, 8.52 0.85, 14.69 -0.02 C20.86 -0.89, 33.85 3.76, 38.43 5.53 C43.01 7.3, 42.96 10.27, 42.17 10.6 M18.35 2.83 C23.03 1.37, 27.1 -0.69, 31.25 0.37 C35.4 1.43, 41.32 4.96, 43.26 9.19 C45.19 13.42, 43.79 20.66, 42.87 25.76 C41.95 30.85, 40.96 36.79, 37.72 39.75 C34.49 42.7, 28.53 43.79, 23.45 43.48 C18.38 43.16, 10.66 40.52, 7.26 37.86 C3.86 35.2, 3.32 32.06, 3.04 27.51 C2.76 22.96, 3.19 15.19, 5.59 10.57 C7.99 5.96, 15.47 0.87, 17.44 -0.18 C19.4 -1.23, 17.14 4.02, 17.37 4.26" stroke="#000000" stroke-width="1" fill="none"></path></g><g stroke-linecap="round" transform="translate(794.8100902420209 433.9138920138768) rotate(0 13.922644405769006 13.47302098454358)"><path d="M21.57 1.31 C24.09 2.08, 24.56 4.82, 25.41 7.6 C26.26 10.37, 27.21 15.14, 26.67 17.97 C26.14 20.79, 24.71 22.84, 22.21 24.54 C19.7 26.25, 14.5 28.58, 11.65 28.2 C8.79 27.82, 7.03 24.78, 5.09 22.26 C3.16 19.73, 0.15 15.92, 0.05 13.05 C-0.06 10.18, 2.67 7.36, 4.47 5.04 C6.27 2.72, 6.81 -1.39, 10.85 -0.89 C14.89 -0.39, 26.12 5.07, 28.7 8.06 C31.29 11.06, 26.7 16.58, 26.37 17.07 M5.33 5.18 C7.28 3.96, 9.64 1.46, 12.44 1.44 C15.25 1.41, 20.06 3.8, 22.16 5.02 C24.25 6.25, 24.76 6.33, 25.01 8.8 C25.27 11.28, 25.18 16.89, 23.7 19.9 C22.22 22.9, 18.39 26.16, 16.13 26.85 C13.86 27.53, 12.16 25.12, 10.12 24.01 C8.07 22.91, 5.72 22.03, 3.86 20.22 C1.99 18.41, -1.23 16.28, -1.07 13.13 C-0.92 9.97, 4.15 3.19, 4.8 1.28 C5.44 -0.64, 2.84 1.15, 2.79 1.66" stroke="none" stroke-width="0" fill="#000000"></path><path d="M23.19 5.39 C25.31 7.06, 25.3 8.09, 25.82 10.64 C26.34 13.19, 27.34 17.98, 26.31 20.69 C25.28 23.4, 22.53 26.29, 19.64 26.91 C16.76 27.52, 12.1 25.66, 9.01 24.39 C5.91 23.13, 2.77 21.9, 1.08 19.3 C-0.61 16.71, -1.8 11.72, -1.11 8.84 C-0.43 5.95, 2.82 3.19, 5.18 1.98 C7.55 0.76, 9.24 0.03, 13.09 1.55 C16.95 3.08, 25.79 8.76, 28.32 11.13 C30.85 13.49, 28.46 15.99, 28.26 15.75 M5.92 3.4 C8.03 0.94, 9.3 0.52, 11.5 -0.06 C13.7 -0.64, 16.73 -1.9, 19.12 -0.1 C21.5 1.71, 24.68 7.3, 25.8 10.76 C26.92 14.21, 27.12 18.19, 25.84 20.65 C24.56 23.1, 20.93 24.03, 18.1 25.47 C15.26 26.91, 11.12 29.68, 8.84 29.29 C6.55 28.9, 5.84 25.76, 4.39 23.14 C2.94 20.53, 0.38 16.63, 0.13 13.62 C-0.11 10.61, 1.75 6.33, 2.91 5.09 C4.07 3.86, 7.07 6.11, 7.11 6.2" stroke="#ffffff" stroke-width="1" fill="none"></path></g><g stroke-linecap="round" transform="translate(788.7052883888676 561.3673897082781) rotate(0 22.997376805994975 22.55322279112994)"><path d="M11.83 2.33 C11.83 2.33, 11.83 2.33, 11.83 2.33 M11.83 2.33 C11.83 2.33, 11.83 2.33, 11.83 2.33 M0.38 19.95 C12.8 8.71, 13.77 1.91, 18.22 4.19 M4.79 16 C5.19 12.53, 10 8.5, 18.53 2.05 M0.97 28.07 C6.71 17.06, 8.71 11.64, 21.64 1.22 M3.24 23.83 C8.76 16.25, 16.55 7.7, 24.95 0.78 M5.34 30.73 C8.61 20.33, 22.42 7.85, 30.08 3.33 M3.82 29.54 C8.04 23.19, 17.93 13.96, 28.07 0.9 M8.21 34.57 C12.51 28.41, 14.2 18.4, 32.8 6.54 M3.84 34.44 C14.12 23.6, 23.42 15.04, 31.1 4.37 M4.15 41.48 C14.65 30.72, 25.17 17.23, 31.92 2.76 M6.71 39.75 C13.62 29.99, 18.88 25.16, 33.78 7.21 M6.83 42.23 C18.82 31.9, 32.2 22.04, 35.7 8.19 M9.12 39.18 C17.01 31.33, 22.73 23.06, 39.67 8.91 M11.13 45.08 C15.56 34.98, 23.35 26.12, 45.99 9.86 M13.12 44.68 C18.53 38.03, 26.77 27.89, 43.44 10.1 M19.08 46.93 C25.24 34.55, 27.07 28.44, 47.61 14.6 M15.95 44.56 C26.37 31.68, 40.32 20.48, 42.25 14.52 M21.38 43.18 C28.25 35.63, 40.01 25.19, 42.25 20.09 M21.58 42.52 C30.76 38, 38.8 26.65, 45.6 19.16 M31.38 46.87 C36.06 41.87, 38.67 33.17, 47.38 23.26 M30.51 43.77 C36.56 36.39, 40.51 29.78, 48.11 23.76 M10.73 42.53 C10.73 42.53, 10.73 42.53, 10.73 42.53 M10.73 42.53 C10.73 42.53, 10.73 42.53, 10.73 42.53 M14.15 40.99 C12.52 36.33, 6.67 37.08, -0.51 27.32 M18.05 41.16 C11.83 37.62, 3.9 34.07, 2.22 30.26 M23.64 40.01 C14.45 35.91, 6.99 35.5, 4.76 27.74 M24.88 41.31 C16.86 36.23, 7 27.37, 2.79 24.15 M27.86 38.06 C25.29 40.85, 14.63 35.95, 4.57 18.91 M26.95 43.31 C18.84 35.21, 6.81 26.44, 1.81 20.05 M33.97 42.45 C26.08 33.14, 12.38 23.41, 7.5 18.05 M33.39 38.1 C26.87 31.38, 16.72 25.75, 3 17.25 M32.95 37.33 C25.35 26.08, 16.15 15.98, 10.04 8.92 M36.69 37.72 C25.15 29.26, 10.97 18.51, 5 13.34 M40.94 33.07 C26.46 27.46, 18.96 14.39, 4.99 5.76 M40.03 33.76 C27.37 25.9, 17.8 14.85, 9.67 7.37 M43.91 33.48 C33.22 26.83, 23.58 17.22, 10.82 1.21 M41.86 31.67 C35.84 25.08, 27.14 18.05, 9.48 4.69 M43.5 25.13 C33.23 19.77, 32.17 17.23, 15.35 -2.38 M43.66 29.11 C35.48 19.5, 26.25 14.31, 11 -0.59 M45.15 28.62 C42.25 16.47, 35.12 12.94, 19.56 1.62 M46.07 26.31 C35.64 18.42, 27.71 8.95, 16.78 2.03 M47.26 23.23 C44.14 13.81, 37.03 8.34, 21.73 0.91 M47.9 19.76 C39.6 16.01, 33.19 11.16, 25.32 -0.76 M41.48 10.96 C36.03 5.21, 31.01 1.39, 25.82 -5.23 M42.44 9.32 C40.15 10.69, 36.74 4.73, 25.44 -2.48" stroke="#000000" stroke-width="0.5" fill="none"></path><path d="M12.14 1.98 C15.84 -0.74, 19.95 -0.39, 24.55 0.64 C29.15 1.68, 36.03 4.78, 39.71 8.2 C43.38 11.62, 46.54 16.68, 46.59 21.18 C46.64 25.68, 43.1 31.56, 39.99 35.21 C36.89 38.85, 32.81 41.78, 27.97 43.04 C23.14 44.3, 15.47 44.83, 10.98 42.74 C6.49 40.66, 2.47 34.76, 1.04 30.52 C-0.38 26.28, -2.89 21.87, 2.44 17.3 C7.76 12.73, 26.19 2.72, 33.01 3.09 C39.82 3.46, 43.77 19.64, 43.32 19.5 M5.16 6.45 C7.6 2.02, 14.78 -1.8, 19.29 -2.6 C23.8 -3.41, 27.89 -1.24, 32.24 1.61 C36.59 4.47, 43.14 9.99, 45.4 14.55 C47.67 19.12, 47.77 24.63, 45.85 29.02 C43.93 33.41, 37.96 37.97, 33.9 40.9 C29.83 43.84, 25.9 47.31, 21.45 46.63 C16.99 45.95, 10.5 41.11, 7.16 36.82 C3.83 32.54, 1.48 25.3, 1.43 20.92 C1.38 16.54, 5.75 13, 6.86 10.52 C7.98 8.05, 7.9 5.84, 8.12 6.08" stroke="#000000" stroke-width="1" fill="none"></path></g><g stroke-linecap="round" transform="translate(797.419521507998 570.7728404430059) rotate(0 14.330167070105574 13.502441069936879)"><path d="M21.69 2.26 C23.78 3.91, 26.68 8.31, 27.67 11.18 C28.66 14.05, 29.07 16.81, 27.65 19.49 C26.23 22.17, 21.89 26.19, 19.18 27.26 C16.47 28.32, 14.19 27.17, 11.38 25.88 C8.58 24.6, 3.92 21.97, 2.34 19.56 C0.76 17.14, 1.47 14.27, 1.88 11.4 C2.29 8.54, 2.56 4.39, 4.79 2.36 C7.02 0.33, 11.57 -1.3, 15.27 -0.75 C18.98 -0.2, 24.65 3.06, 27.01 5.67 C29.37 8.28, 29.88 14.62, 29.45 14.9 M2.5 5.25 C4.29 3.11, 9.37 2.57, 12.3 1.67 C15.22 0.78, 17.74 -1.44, 20.04 -0.12 C22.35 1.19, 25.31 6.23, 26.13 9.58 C26.96 12.93, 25.79 17.61, 25.02 19.99 C24.24 22.36, 23.56 22.69, 21.49 23.83 C19.42 24.97, 15.99 26.88, 12.59 26.81 C9.19 26.75, 3.28 26.15, 1.12 23.43 C-1.05 20.7, -0.49 13.99, -0.39 10.48 C-0.29 6.96, 1.15 3.36, 1.71 2.33 C2.26 1.31, 2.04 4.1, 2.95 4.33" stroke="none" stroke-width="0" fill="#000000"></path><path d="M7.12 0.12 C9.84 -1.37, 15.87 -0.31, 19.32 0.84 C22.77 1.99, 26.25 4.87, 27.82 7.03 C29.38 9.19, 29.47 11.15, 28.71 13.81 C27.96 16.47, 25.84 21.1, 23.29 22.97 C20.73 24.85, 16.37 25.02, 13.39 25.06 C10.41 25.09, 7.78 24.38, 5.4 23.17 C3.01 21.97, -0.44 20.3, -0.9 17.82 C-1.36 15.34, 0.05 11.59, 2.66 8.32 C5.27 5.05, 12.05 -0.41, 14.77 -1.78 C17.48 -3.16, 19.42 -0.17, 18.94 0.07 M23.09 3.8 C24.52 5.26, 25.48 6.65, 25.72 9.66 C25.95 12.67, 25.88 18.81, 24.51 21.86 C23.13 24.9, 20.42 27.3, 17.46 27.91 C14.49 28.52, 9.64 26.48, 6.73 25.51 C3.82 24.55, 0.72 24.34, 0 22.1 C-0.72 19.87, 1.38 15.14, 2.4 12.11 C3.43 9.07, 4.15 5.72, 6.12 3.91 C8.1 2.1, 10.75 0.91, 14.26 1.27 C17.77 1.63, 25.84 5.44, 27.17 6.04 C28.5 6.65, 22.41 5.07, 22.23 4.91" stroke="#ffffff" stroke-width="1" fill="none"></path></g><g stroke-linecap="round" transform="translate(845.927947617157 453.9741524893407) rotate(0 22.997376805994975 22.55322279112994)"><path d="M10.01 6.05 C10.01 6.05, 10.01 6.05, 10.01 6.05 M10.01 6.05 C10.01 6.05, 10.01 6.05, 10.01 6.05 M6.59 17.31 C6.77 11.6, 12.53 12.53, 15.81 4.55 M1.4 18.6 C6.61 14.16, 11.45 11.87, 16.95 4.09 M2.31 24.2 C6.15 16.59, 14.06 11.49, 26.34 0.85 M1.17 26.38 C7.39 19.73, 16.22 12.55, 25.5 4.02 M-0.18 32.89 C12.69 21.09, 22.73 13.01, 27.32 5.7 M1.62 32.26 C10.26 24.49, 14.96 17.62, 27.05 3.23 M6.98 36.02 C8.05 26.16, 19.23 23.22, 33.63 7.02 M6.21 35.1 C17.02 25.24, 26.35 11.9, 31.76 3.79 M6.96 40.39 C16.98 27.58, 19.74 18.5, 33.71 5.5 M7.78 37.7 C12.71 32.98, 19.22 25.32, 36.87 5.86 M10.14 43.25 C23.06 34.37, 25.44 22.05, 37.73 4.95 M10.37 40.17 C19.26 29.15, 32.01 20.23, 38.74 9.14 M10.23 43.28 C20.47 31.74, 36.81 22.19, 40.16 15.19 M13.32 45.92 C20.5 36.65, 27.98 29.17, 41.49 12.81 M20.25 41.86 C20.43 37.1, 33.37 32.04, 48.53 13.16 M17.14 44.04 C31.03 33.47, 37.66 21.97, 45.54 15.65 M21.99 44.55 C32.21 36.26, 33.23 32.46, 47.46 17.31 M24.94 45.82 C31.32 37.23, 34.61 34.27, 45.71 19.59 M33.99 46.39 C38.32 35.1, 43.12 29.19, 51.4 24.72 M32.34 43.1 C34.08 38.62, 40.47 33.76, 47.82 21.8 M12.64 43.38 C12.64 43.38, 12.64 43.38, 12.64 43.38 M12.64 43.38 C12.64 43.38, 12.64 43.38, 12.64 43.38 M17.13 39.33 C9.67 38.1, 5.77 31.68, 7.06 32.43 M18.85 42.93 C12.89 40.79, 10.78 36.73, 3.86 32.27 M21.44 41.11 C15.25 41.51, 16.37 36.72, 6.81 28.81 M25.69 43.16 C19.44 37.3, 15.67 34.39, 1.64 23.61 M31.42 45.7 C18.43 38.19, 16.18 27.58, 6.02 18.78 M30.03 43.78 C18.48 35.48, 9.2 25.72, 2.16 17.77 M35.08 40.36 C20.77 30.73, 19.57 28.36, 2.72 11.34 M34.89 38.44 C25.74 33.57, 19.88 31, 5.69 15.02 M36.7 35.27 C30.83 27.66, 24.34 20.11, 10.84 8.48 M36.85 38.95 C25.17 30.48, 16.58 22.69, 7.36 13.69 M37.36 35.99 C31.83 24.44, 20.51 18.24, 10.46 9.87 M38.59 35.08 C32.29 26.49, 26.59 20.87, 9.25 7.86 M43.81 35.44 C35.54 27.4, 25.39 13.44, 9.5 1.44 M43.73 31.51 C33.42 22.78, 22.31 14.73, 9.95 7.01 M41.37 25.81 C39.79 22.23, 31.9 10.61, 14.56 6.04 M45.67 26.86 C35.62 20.99, 22.74 8.84, 13.36 3.79 M48.54 20.58 C38.35 14.78, 28.12 8.64, 19.8 -0.57 M44.08 24.73 C35.27 14.87, 24.68 8.45, 17.5 0.97 M49.14 17.72 C42.16 12.69, 34.32 11.36, 21.54 -3.82 M45.06 20.01 C36.45 13.19, 31.9 4.08, 23.09 -1.45 M47.75 14.52 C42.01 9.99, 37.5 4.2, 30.94 4.23 M50.3 18.52 C44.86 10.72, 37.7 7.12, 33.92 3.29" stroke="#000000" stroke-width="0.5" fill="none"></path><path d="M22.54 0.52 C26.92 0.85, 34.28 3.73, 38.25 6.84 C42.22 9.96, 45.89 14.77, 46.36 19.22 C46.84 23.67, 43.85 29.68, 41.1 33.56 C38.36 37.44, 34.61 40.82, 29.9 42.48 C25.19 44.14, 17.48 45.23, 12.82 43.53 C8.16 41.83, 3.75 36.34, 1.94 32.29 C0.13 28.23, 0.67 23.53, 1.97 19.22 C3.26 14.9, 5.41 9.25, 9.71 6.4 C14.01 3.54, 23.66 2.75, 27.78 2.08 C31.9 1.4, 34.53 1.89, 34.44 2.33 M35.65 0.91 C39.36 3.17, 40.96 9.61, 42.47 14.62 C43.99 19.63, 46.04 26.54, 44.72 30.97 C43.4 35.39, 39.14 39.14, 34.57 41.16 C30 43.18, 21.84 43.64, 17.3 43.09 C12.75 42.54, 9.83 41.49, 7.3 37.84 C4.76 34.19, 2 26.52, 2.08 21.17 C2.16 15.82, 4.53 8.77, 7.8 5.73 C11.07 2.68, 16.68 3.55, 21.7 2.9 C26.71 2.24, 35.46 1.15, 37.89 1.81 C40.33 2.48, 36.85 6.01, 36.31 6.89" stroke="#000000" stroke-width="1" fill="none"></path></g><g stroke-linecap="round" transform="translate(854.7097379694177 462.7345406109993) rotate(0 14.330167070105688 14.201985322621596)"><path d="M13.16 0.74 C16.37 0.5, 21.26 0.89, 23.66 2.85 C26.06 4.82, 26.81 9.63, 27.57 12.54 C28.33 15.44, 29.53 18.04, 28.23 20.29 C26.93 22.54, 22.51 24.88, 19.76 26.04 C17.01 27.2, 14.61 28.18, 11.72 27.25 C8.84 26.33, 4.09 23.11, 2.45 20.49 C0.8 17.86, 1.48 14.58, 1.84 11.5 C2.21 8.42, 0.3 2.44, 4.64 2.02 C8.99 1.6, 24.59 5.76, 27.92 8.98 C31.26 12.21, 25.3 21.52, 24.65 21.36 M23.11 5.45 C25.23 6.61, 25.68 7.14, 25.87 9.79 C26.07 12.43, 25.85 18.22, 24.26 21.32 C22.66 24.42, 18.68 27.72, 16.31 28.38 C13.94 29.04, 12.13 26.52, 10.03 25.28 C7.94 24.05, 5.57 22.96, 3.74 20.97 C1.9 18.98, -1.24 16.65, -0.99 13.35 C-0.74 10.06, 3.01 3.68, 5.24 1.21 C7.48 -1.26, 9.56 -1.95, 12.44 -1.46 C15.32 -0.97, 20.29 3.4, 22.5 4.14 C24.72 4.88, 25.67 2.74, 25.72 2.98" stroke="none" stroke-width="0" fill="#000000"></path><path d="M26.91 6.69 C29.17 9.28, 30.3 13.93, 29.86 16.65 C29.42 19.38, 26.83 21.17, 24.25 23.02 C21.68 24.88, 17.74 27.71, 14.41 27.8 C11.08 27.89, 6.61 25.47, 4.25 23.56 C1.9 21.66, 0.92 18.77, 0.27 16.38 C-0.37 14, -1.19 11.59, 0.39 9.24 C1.97 6.89, 6.49 4.03, 9.75 2.29 C13.02 0.56, 16.63 -2.77, 19.95 -1.17 C23.27 0.43, 28.66 8.84, 29.68 11.87 C30.7 14.9, 26.23 16.66, 26.06 16.99 M9.19 -2.42 C11.99 -2.93, 17.09 0.46, 20.09 2.68 C23.1 4.91, 26.22 8.22, 27.22 10.94 C28.22 13.67, 27.32 15.94, 26.11 19.02 C24.89 22.1, 22.01 27.59, 19.92 29.45 C17.83 31.31, 16.32 30.99, 13.55 30.18 C10.77 29.37, 5.74 27.08, 3.28 24.58 C0.81 22.09, -1.74 18.12, -1.24 15.2 C-0.75 12.27, 4.37 9.4, 6.26 7.04 C8.15 4.67, 8.67 2.05, 10.09 0.99 C11.52 -0.07, 14.24 0.74, 14.84 0.68" stroke="#ffffff" stroke-width="1" fill="none"></path></g><g stroke-linecap="round" transform="translate(850.1163299717958 524.5016670278403) rotate(0 22.997376805994975 22.55322279112994)"><path d="M4.57 10.59 C4.57 10.59, 4.57 10.59, 4.57 10.59 M4.57 10.59 C4.57 10.59, 4.57 10.59, 4.57 10.59 M-2.12 19.95 C5.51 18.54, 9.69 9.7, 16.75 3.33 M-1.36 21.56 C3.85 19.55, 6.13 15.52, 18.3 0.24 M-2.76 25.19 C7.14 18.14, 20.13 6.6, 22.72 2.43 M-0.78 27.3 C7.85 20.88, 13.71 16.38, 24.04 2.91 M4.65 29.03 C13.27 23.03, 16.81 16.53, 25.48 4.47 M5.07 28.72 C9.28 22.89, 12.69 18.51, 26.77 3.53 M2.17 31.76 C14.94 26.68, 22.93 17.29, 35.91 0.89 M6.32 35.39 C13 25, 20.55 14.87, 31.37 1.43 M8.59 35.41 C15.34 21.72, 26.53 12.02, 31.92 4.53 M5.68 39.62 C17.07 26.76, 29.48 13.05, 35.15 3.89 M12.7 44.13 C16.69 29.88, 27 15.48, 39.84 5.94 M7.69 39.86 C17.43 35.03, 21.48 27.91, 39.03 7.48 M10.06 41.85 C26.86 32.6, 30.04 25.94, 38.49 11.83 M13.43 43.41 C24.06 32.06, 31.24 22.63, 39.65 11.58 M13.75 43.62 C30.87 33.9, 40.71 20.56, 47.86 10.16 M19.18 44.84 C24.77 35.32, 35.46 26.31, 43.95 12.54 M22.37 45.48 C24.21 41.11, 35.17 30.09, 41.9 15.77 M22.37 44.96 C25.82 41.32, 30.39 34.99, 45.88 20.36 M26.03 48.12 C31.51 40.68, 41.55 33.59, 43.06 28.75 M23.52 49.46 C30.8 43.18, 35.05 34.37, 42.93 26.12 M7.84 39.75 C7.84 39.75, 7.84 39.75, 7.84 39.75 M7.84 39.75 C7.84 39.75, 7.84 39.75, 7.84 39.75 M16.43 44.96 C12.64 38, 13.27 37.84, -1.54 29.4 M18.71 46.67 C15.91 41.97, 11.18 39.35, -1.23 27.6 M20.7 47.1 C21.63 41.74, 17.12 37.91, -3.48 25.28 M24.37 42.29 C19.3 38.7, 11.86 33.5, -0.11 22.28 M24.98 45.02 C24.83 36.9, 21.31 33.27, 4.69 15.97 M27 43.37 C17.84 34.23, 8.88 24.67, 1.97 19.97 M28.39 37.27 C24.96 33.25, 9.44 18.02, 0.24 18.4 M31.01 38.81 C24.36 35.56, 20.4 28.38, 3.41 13.72 M38.89 35.63 C31.06 26.61, 22.21 18.6, 4.64 11.75 M34.88 39.36 C25.79 31.75, 18.36 24.41, 3.41 11.04 M38.83 31.27 C28.27 25.6, 25.99 23.78, 4.94 9.32 M38.58 32.89 C33.81 27.81, 26.51 23.14, 7.32 8.85 M43.42 34.41 C31.95 19.98, 19.7 11.53, 11.59 5.35 M42.02 31.09 C32.46 24.54, 24.05 19.96, 10.42 5.35 M46.52 29.22 C40.86 18.85, 31.49 20.62, 16.36 2.85 M44.76 29.44 C32.77 17.94, 23.52 13.03, 15.72 2.88 M46.04 21.62 C35.11 14.73, 24.29 3.75, 20.7 1.57 M43.37 22.08 C33.73 16.42, 24.17 7.24, 16.33 1.01 M44.88 15.28 C33.57 10.93, 25.33 0.02, 22.39 -0.01 M42.26 18.85 C40.39 11.88, 32.78 7.33, 21.95 -2.44 M41.68 10.27 C38.02 4.85, 30.37 4.19, 29.63 -0.17 M44.44 11 C38.8 9.33, 36.1 6.17, 27.03 -1.81" stroke="#000000" stroke-width="0.5" fill="none"></path><path d="M4.62 10.53 C7.41 6.6, 13.7 2.31, 18.19 0.84 C22.68 -0.62, 27.35 -0.15, 31.56 1.73 C35.78 3.6, 41.53 7.57, 43.46 12.08 C45.39 16.59, 44.57 24.12, 43.13 28.79 C41.69 33.46, 38.34 37.25, 34.82 40.1 C31.31 42.96, 26.58 46.03, 22.03 45.93 C17.49 45.83, 11.53 42.98, 7.57 39.51 C3.6 36.05, -4.41 31.99, -1.76 25.15 C0.88 18.31, 16.39 0.54, 23.45 -1.53 C30.52 -3.6, 40.34 12.17, 40.62 12.76 M10.63 0.53 C14.87 -1.31, 24.13 -1.14, 29.56 0.1 C34.98 1.34, 40.5 4.13, 43.18 7.96 C45.87 11.79, 45.83 17.68, 45.66 23.09 C45.48 28.49, 45.23 36.73, 42.13 40.4 C39.04 44.06, 32.23 45.18, 27.09 45.09 C21.95 44.99, 15.46 42.13, 11.28 39.81 C7.11 37.5, 3.19 35.99, 2.02 31.21 C0.85 26.42, 2.27 15.49, 4.27 11.1 C6.27 6.71, 12.48 6.05, 14.04 4.86 C15.6 3.66, 13.77 3.71, 13.64 3.92" stroke="#000000" stroke-width="1" fill="none"></path></g><g stroke-linecap="round" transform="translate(859.7632887611745 533.7393143125444) rotate(0 13.859445703813037 13.731263956329087)"><path d="M11.35 0.21 C14.04 -0.48, 16.69 1.58, 19.44 2.86 C22.19 4.14, 26.59 5.62, 27.87 7.89 C29.14 10.16, 27.9 13.67, 27.11 16.49 C26.32 19.31, 25.59 23.21, 23.13 24.81 C20.67 26.41, 15.31 26.5, 12.35 26.07 C9.39 25.65, 7.46 24.5, 5.39 22.28 C3.32 20.06, 0.2 15.25, -0.05 12.73 C-0.3 10.2, 1.78 9.34, 3.91 7.12 C6.04 4.9, 10.75 0.47, 12.72 -0.59 C14.68 -1.65, 15.23 0.62, 15.7 0.75 M17.56 -1.14 C19.96 -0.39, 23.34 4.57, 24.56 7.83 C25.78 11.09, 25.2 15.85, 24.88 18.43 C24.56 21.01, 24.4 21.76, 22.63 23.3 C20.86 24.84, 17.64 27.33, 14.25 27.67 C10.86 28.02, 4.76 27.87, 2.31 25.37 C-0.15 22.88, -0.1 16.29, -0.45 12.71 C-0.8 9.13, -1.41 5.92, 0.21 3.91 C1.82 1.91, 5.59 1.23, 9.23 0.66 C12.87 0.09, 20.28 0.19, 22.05 0.49 C23.82 0.79, 20.53 2.54, 19.84 2.48" stroke="none" stroke-width="0" fill="#000000"></path><path d="M9.46 1.87 C11.91 0.27, 15.26 -1.69, 17.8 -1.1 C20.34 -0.51, 23.29 3.02, 24.7 5.4 C26.11 7.77, 26.46 10.28, 26.25 13.15 C26.05 16.02, 25.56 19.97, 23.46 22.61 C21.37 25.25, 16.49 28.39, 13.7 28.97 C10.91 29.55, 8.72 28.35, 6.74 26.07 C4.75 23.8, 2.51 18.47, 1.8 15.32 C1.09 12.17, 1.46 9.89, 2.5 7.16 C3.53 4.44, 6.33 -0.14, 8.03 -1.04 C9.73 -1.95, 12.41 1.37, 12.69 1.73 M11.78 0.67 C14.97 1.07, 19.41 2.64, 21.75 4.3 C24.09 5.96, 25.31 7.51, 25.81 10.63 C26.3 13.75, 25.52 20.04, 24.72 23.02 C23.91 26, 23.49 27.63, 20.98 28.5 C18.46 29.37, 12.99 29.26, 9.64 28.22 C6.28 27.17, 1.98 24.6, 0.85 22.22 C-0.27 19.85, 2.6 16.93, 2.9 13.95 C3.19 10.97, 0.42 6.62, 2.62 4.33 C4.82 2.05, 14.08 1.06, 16.11 0.23 C18.13 -0.6, 14.89 -1.2, 14.77 -0.63" stroke="#ffffff" stroke-width="1" fill="none"></path></g><g stroke-linecap="round" transform="translate(805.6199727805757 469.66007242162453) rotate(0 3.8148569106409695 8.994164216843245)"><path d="M0 0 C0 0, 0 0, 0 0 M0 0 C0 0, 0 0, 0 0 M-0.28 5.17 C1.61 5.48, 3.19 3.85, 6.41 1.14 M-0.24 6.7 C1.4 4.76, 3.78 1.81, 5.45 -0.15 M-0.62 14.77 C1.12 9.15, 4.56 2.74, 9.14 -0.33 M0.35 10.88 C2.9 8.52, 7.88 4.48, 9.95 2.71 M-0.57 19.61 C4.23 15.74, 4.23 12.92, 7.05 6.46 M0.43 18.93 C0.81 15.13, 2.51 12.89, 8.76 6.65 M4.86 17.13 C7.46 16.21, 8.08 15.95, 9.16 13.36 M5.79 18.52 C6.73 16.68, 7.16 15.79, 8.96 13.73 M0.15 18.12 C0.15 18.12, 0.15 18.12, 0.15 18.12 M0.15 18.12 C0.15 18.12, 0.15 18.12, 0.15 18.12 M7.29 17.88 C3.89 17.01, 1.82 13.63, 0.73 11.04 M5.28 16.96 C3.53 16.74, 1.73 15, -0.61 13.16 M9.46 18.12 C8.34 11.9, 5.99 13.27, 1 6.82 M10.1 16.38 C7.22 12.44, 5.79 11.71, -0.22 6.53 M11.88 11.84 C5.81 7.75, 7.39 5, 1.33 3.18 M10.68 10.74 C5.83 7.26, 2.77 5, 0.69 1.35 M10.16 3.85 C8.16 2.95, 5.73 -1.72, 1.67 -3.66 M10.74 4.99 C7.39 3.11, 4.05 -0.26, 1.76 -0.87" stroke="#000000" stroke-width="0.5" fill="none"></path><path d="M-0.65 0.4 C2.43 1.15, 5.1 0.29, 6.4 -0.46 M-0.03 -0.36 C1.6 0.74, 4.49 0.6, 8.15 -0.69 M4.55 2.81 C9.63 5.84, 5.94 12.7, 4.17 14.88 M8.46 -0.97 C7.56 3.61, 9.41 10.03, 8.85 18.03 M9.03 19.08 C3.97 18.46, 3.71 18.16, 0.7 17.52 M7.15 17.82 C4.61 18.26, 2.28 17.93, -0.29 18.5 M-2.37 21.18 C-0.75 11.93, -2.2 8.07, -1.38 -0.12 M-1.21 17.46 C-1.58 14.13, 1.16 9.07, 0.86 -0.6" stroke="#000000" stroke-width="1" fill="none"></path></g><g stroke-linecap="round" transform="translate(807.4150313688677 544.6339339306162) rotate(0 3.8148569106409695 8.596723720231694)"><path d="M0 0 C0 0, 0 0, 0 0 M0 0 C0 0, 0 0, 0 0 M-1.49 6.51 C2.07 4.91, 3.68 4.86, 5.77 1.49 M0.04 6.1 C1.85 4.81, 2.63 3.42, 4.47 0.88 M2.86 9.49 C3.04 7.41, 2.42 7.47, 7.51 3.8 M-1.03 11.28 C3.38 9.59, 6.1 6.38, 10.55 0.75 M1.61 19.59 C2.89 14.7, 5.14 10.23, 7.74 5.86 M0.98 16.82 C2.93 12.66, 6.31 9.79, 7.93 7.52 M5.41 18.07 C6.93 16.29, 9 14.2, 9.32 12.66 M6.56 17.63 C6.95 15.98, 8.13 14.3, 9.63 13.23 M-0.21 17.01 C-0.21 17.01, -0.21 17.01, -0.21 17.01 M-0.21 17.01 C-0.21 17.01, -0.21 17.01, -0.21 17.01 M6.34 17.36 C5.28 15.63, 1.61 14.9, -1.29 12.61 M5.42 17.11 C4.72 15.36, 2.56 13.04, 0.83 11.36 M11.67 15.46 C4.66 12.6, 4.89 10.55, -0.91 5.16 M9.93 14.65 C5.67 13.36, 4.37 9.86, -1.21 5.29 M11.4 8.19 C6.92 10.17, 3.83 7.91, 1.45 3.01 M10.29 9.91 C5.89 7.33, 3 4.58, -0.38 2.44 M8.14 5.58 C7.33 4.27, 3.28 0.37, 0.32 -1.68 M9.17 4.39 C7.72 2.53, 5.17 1.67, 2.85 -1.31" stroke="#000000" stroke-width="0.5" fill="none"></path><path d="M0.4 0.13 C4.05 0.56, 6.25 -1.16, 7.17 -0.45 M-0.36 -0.46 C2.35 0.37, 3.97 0.53, 6.94 0.43 M10.31 2.02 C6.82 3.12, 7.25 5.95, 4.65 15.36 M6.71 -0.15 C6.77 7.16, 8.66 12.24, 7.67 18.01 M8.72 16.19 C6.07 18.72, 3.8 18.03, -0.47 18.18 M7.46 16.96 C5.05 17.31, 1.86 16.8, 0.51 17.66 M3.05 16.38 C0.42 10.3, 2.94 6.48, -0.11 -2.85 M-0.51 15.87 C-0.25 12.4, -1.35 5.84, -0.57 0.94" stroke="#000000" stroke-width="1" fill="none"></path></g><g stroke-linecap="round" transform="translate(840.9155481638267 523.9858993821963) rotate(303.0460002072582 3.8148569106409695 8.596723720231694)"><path d="M0 0 C0 0, 0 0, 0 0 M0 0 C0 0, 0 0, 0 0 M-0.15 7.34 C0.85 6.46, 3.38 4.7, 6.12 0.12 M-0.56 6.92 C1.07 4.79, 2.61 3.08, 5.51 -0.36 M-2.42 12.91 C0 7.56, 4.56 4.82, 11.65 1.37 M-0.62 12.63 C3.86 9.28, 6.83 6.4, 8.59 1.28 M2.43 17.66 C3.13 14.2, 4.25 9.9, 7.05 10.07 M-0.33 16.75 C1.6 14.12, 4.83 11.14, 8.71 8.95 M6.95 16.78 C7.56 16.56, 7.85 15.05, 8.59 13.89 M6.51 16.94 C7.03 15.92, 7.55 15.33, 9.17 13.13 M-0.21 17.01 C-0.21 17.01, -0.21 17.01, -0.21 17.01 M-0.21 17.01 C-0.21 17.01, -0.21 17.01, -0.21 17.01 M6.27 18.31 C4.48 15.26, 3.9 13.1, 0.74 13.01 M6.03 18.02 C4.33 16.2, 1.91 14.38, -0.51 12.06 M10.11 12.83 C7.93 14.48, 6.48 10.93, -1.46 5.8 M9.3 13.62 C8.06 13.13, 4.66 10.05, -1.33 5.38 M8.2 9.12 C8.68 5.67, 5.27 6.06, 1.73 3.47 M9.91 9.74 C6.58 7.44, 3.4 3.09, 1.17 1.46 M10.83 4.46 C8.72 0.21, 4.06 -2.3, 2.59 -3.9 M9.64 4.24 C6.05 0.72, 3.68 -0.04, 2.96 -2.18" stroke="#000000" stroke-width="0.5" fill="none"></path><path d="M0.13 1 C2.07 0.11, 1.92 -0.5, 7.18 -1.07 M-0.46 0.59 C1.92 0.53, 3.62 -0.62, 8.06 -0.24 M9.65 -0.54 C5.83 3.7, 4.03 4.67, 5.79 17.96 M7.48 -0.79 C9.41 5.89, 8.95 9.61, 8.45 16.48 M6.62 17.61 C6.41 17.42, 3.13 16.84, 0.98 18.34 M7.39 17.47 C5.58 17.11, 2.82 17.67, 0.47 16.99 M-0.81 17.61 C-1.97 14.96, -1.1 6.73, -2.85 1.86 M-1.32 17.23 C1.52 9.51, 1.05 3.38, 0.94 -1.54" stroke="#000000" stroke-width="1" fill="none"></path></g><g stroke-linecap="round" transform="translate(839.1873968246033 486.26279175705014) rotate(233.50826307900493 3.8148569106409695 8.596723720231694)"><path d="M0 0 C0 0, 0 0, 0 0 M0 0 C0 0, 0 0, 0 0 M0.68 6.39 C2.66 6, 3.75 3.91, 4.75 -0.78 M0.26 6.53 C1.09 5.08, 2.35 3.31, 4.27 -0.06 M1 9.57 C0.76 9.14, 3.14 8.76, 9.22 2.38 M0.72 12.74 C3.8 9.44, 7.33 4.75, 9.12 1.84 M0.5 17.48 C2.65 12.9, 3.98 9.98, 11.26 7.17 M-0.41 16.5 C2.53 14.19, 5.12 10.78, 10.13 7.7 M5.66 17.7 C7.34 16.07, 7.71 14.53, 9.83 13.28 M5.82 17.28 C6.97 15.53, 8.56 14.35, 9.07 13.34 M-0.21 17.01 C-0.21 17.01, -0.21 17.01, -0.21 17.01 M-0.21 17.01 C-0.21 17.01, -0.21 17.01, -0.21 17.01 M7.22 17.24 C3.15 16.18, -0.02 13.73, 1.14 12.49 M6.94 17.34 C5.63 15.64, 4.11 14.1, 0.19 11.25 M7.49 15.24 C7.81 13.43, 3.23 8.92, -0.82 4.61 M8.28 15.7 C6.58 11.86, 2.4 8.43, -1.25 6.53 M9.13 11.89 C4.3 8.07, 3.51 4.75, 2.19 3.33 M9.75 10.4 C6.72 7.58, 1.76 4.35, 0.18 2.25 M9.72 6.25 C5.7 2.4, 3.24 0.88, 0.36 -0.47 M9.49 3.85 C5.79 1.97, 4.75 0.32, 2.09 -2.55" stroke="#000000" stroke-width="0.5" fill="none"></path><path d="M1 0.5 C2.12 -1.24, 3.47 -0.46, 6.56 -1.48 M0.59 0.37 C2.71 0.61, 3.83 0.52, 7.39 -0.59 M7.09 -1.51 C7.78 0.38, 4.92 5.54, 8.39 16.45 M6.84 1.62 C8.55 7.12, 7.49 12.72, 6.92 17.9 M8.04 18.58 C4.75 17.79, 1.18 18.08, 1.14 17.14 M7.91 17.4 C5.77 16.85, 4.51 17.61, -0.2 17.2 M0.42 14.99 C2.64 11.84, -0.42 6.29, 1.86 2.93 M0.04 18.48 C-0.96 14.01, -0.47 10.13, -1.54 -1.54" stroke="#000000" stroke-width="1" fill="none"></path></g><g transform="translate(776.7767011342131 382.3752102819462) rotate(0 56.40999932709775 49.142453401520754)"><text x="112.81999865419552" y="35.142453401520754" font-family="Virgil, Segoe UI Emoji" font-size="38.67311529140273px" fill="#000000" text-anchor="end" style="white-space: pre;" direction="ltr">Kafka</text><text x="112.81999865419552" y="84.28490680304151" font-family="Virgil, Segoe UI Emoji" font-size="38.67311529140273px" fill="#000000" text-anchor="end" style="white-space: pre;" direction="ltr"></text></g><g stroke-linecap="round" transform="translate(133.02673596183675 473.7274512545819) rotate(0 49.58406824345351 75.24106831580929)"><path d="M1.88 1.63 L99.37 -1.14 L99.09 151.56 L0.8 151.8" stroke="none" stroke-width="0" fill="#fff"></path><path d="M1.3 0.03 C29.19 -2.12, 56.07 -1.88, 98.92 -1.11 M-0.96 -0.68 C23.8 0.19, 46.37 -0.4, 99.84 -0.62 M97.61 -0.1 C100.26 49.24, 97.49 95.49, 99.43 151.73 M99.36 0.28 C99.64 34.66, 98.57 68.26, 99.75 150.86 M97.99 150.46 C75.29 152, 55.58 152.32, -1.83 149.9 M99.99 151.41 C71.19 150.31, 44.77 150.94, -0.69 150.52 M-0.89 152.45 C1.69 111.25, -0.92 75.97, 1.04 -1.84 M-0.44 151.31 C-0.47 100.65, -1.71 52.14, 0.6 -0.92" stroke="#000000" stroke-width="2" fill="none"></path></g><g stroke-linecap="round" transform="translate(122.43703732766029 463.87766132349606) rotate(0 49.58406824345351 75.24106831580929)"><path d="M1.63 0.2 L98.03 -0.08 L100.24 151.28 L1.31 149.95" stroke="none" stroke-width="0" fill="#fff"></path><path d="M0.03 1.25 C27.04 -0.45, 56.18 -0.89, 98.06 -1.25 M-0.68 0.23 C36.55 0.2, 72.69 1.63, 98.55 0.23 M99.06 1.23 C98.57 42.16, 96.16 87.65, 100.42 149.08 M99.45 0.29 C98.75 46.22, 97.74 94.59, 99.55 149.71 M99.15 148.72 C76.47 150.53, 53.35 148.06, -0.58 150.02 M100.09 149.98 C67.35 151.86, 36.37 150.61, 0.04 149.97 M1.97 151.2 C-1.38 113.16, 0.77 80.66, -1.84 0.5 M0.83 151.42 C-1.53 90.94, -1.15 32.59, -0.92 0.94" stroke="#000000" stroke-width="2" fill="none"></path></g><g stroke-linecap="round" transform="translate(109.25491783006177 452.2967199188295) rotate(0 49.58406824345351 75.24106831580929)"><path d="M0.2 -1.14 L99.09 1.07 L99.97 151.8 L-0.53 150.98" stroke="none" stroke-width="0" fill="#fff"></path><path d="M1.25 -1.87 C32.4 -1.65, 64.18 -1.12, 97.92 1.41 M0.23 -0.18 C25.3 -0.09, 52.79 0.06, 99.4 -0.1 M100.4 0.59 C96.47 31.47, 98.26 67.84, 97.77 150.73 M99.46 0.04 C98.67 39.61, 100.03 81.55, 98.4 149.85 M97.4 151.24 C62.46 151.56, 22.64 149.89, -0.46 150.86 M98.66 150.26 C69.5 151.81, 38.03 151.43, -0.51 149.84 M0.72 148.68 C-1.22 109.92, 1.71 66.83, 0.5 1.87 M0.94 149.56 C0.37 98.71, 1.26 47.09, 0.94 0.82" stroke="#000000" stroke-width="2" fill="none"></path></g><g stroke-linecap="round"><g transform="translate(125.92487289537013 520.4252555634112) rotate(0 32.444852675602405 -2.0462280684441794)"><path d="M0.75 -1.12 C10.09 -1.25, 46.09 -0.12, 56.83 -0.76 C67.58 -1.41, 63.91 -4.55, 65.21 -5 M-0.32 0.9 C8.81 0.89, 45.16 1.08, 55.94 0.26 C66.72 -0.56, 62.94 -3.06, 64.36 -4.04" stroke="#000000" stroke-width="1" fill="none"></path></g></g><g stroke-linecap="round"><g transform="translate(128.1675396706559 476.4771549187596) rotate(0 31.072948437141672 -1.9842518918810867)"><path d="M-1.12 0.11 C2.65 -0.69, 11.9 -3.86, 22.63 -4.08 C33.37 -4.3, 56.25 -1.74, 63.27 -1.21 M0.49 -0.87 C4.62 -1.55, 14.55 -2.72, 24.83 -2.62 C35.11 -2.52, 55.38 -0.71, 62.16 -0.28" stroke="#000000" stroke-width="1" fill="none"></path></g></g><g stroke-linecap="round"><g transform="translate(127.94754168610037 570.6390123854958) rotate(0 33.05033496976737 0.0900895663713186)"><path d="M0.11 -0.98 C6.14 -0.97, 28.26 -1.87, 36.91 -1.02 C45.56 -0.18, 46.96 4.58, 52.04 4.09 C57.11 3.61, 64.88 -2.82, 67.37 -3.91 M-1.29 1.12 C4.5 1.38, 26.58 -0.01, 35.88 0.17 C45.19 0.35, 49.29 2.79, 54.54 2.19 C59.79 1.6, 65.02 -2.73, 67.39 -3.42" stroke="#000000" stroke-width="1" fill="none"></path></g></g><g stroke-linecap="round"><g transform="translate(123.55321046424748 586.793756896225) rotate(0 37.8154596541582 -1.3208207616249865)"><path d="M-0.98 -0.15 C1.47 -0.57, 9.52 -2.14, 13.6 -2.39 C17.68 -2.63, 15.12 -2.03, 23.48 -1.63 C31.84 -1.22, 54.9 0.34, 63.75 0.04 C72.61 -0.26, 74.67 -2.74, 76.61 -3.44 M0.7 -1.27 C3.65 -1.56, 12.22 -1.36, 15.96 -1.24 C19.7 -1.12, 15.25 -0.87, 23.16 -0.55 C31.06 -0.22, 54.7 1.15, 63.39 0.72 C72.08 0.28, 73.13 -2.7, 75.29 -3.16" stroke="#000000" stroke-width="1" fill="none"></path></g></g><g stroke-linecap="round"><g transform="translate(123.67170190583819 497.33981097804406) rotate(0 31.856196950051682 0.26752121013495866)"><path d="M-0.15 -0.66 C3.96 -0.5, 13.85 -0.34, 24.78 0.02 C35.7 0.37, 58.69 1, 65.4 1.49 M-1.69 1.6 C2.8 1.52, 16.08 -1.76, 27.1 -1.66 C38.11 -1.56, 58.11 1.23, 64.4 2.2" stroke="#000000" stroke-width="1" fill="none"></path></g></g><g stroke-linecap="round"><g transform="translate(124.22288830832991 545.729491185268) rotate(0 32.923956107983116 0.8870402294667201)"><path d="M-0.66 -0.75 C1.53 -0.46, 8.03 1.71, 12.2 1.56 C16.37 1.41, 15.39 -1.79, 24.37 -1.65 C33.36 -1.5, 59.36 1.87, 66.12 2.43 M1.19 1.47 C3.39 1.94, 7.45 3.23, 11.7 2.86 C15.94 2.49, 17.52 -0.85, 26.66 -0.76 C35.8 -0.67, 59.85 3.02, 66.51 3.42" stroke="#000000" stroke-width="1" fill="none"></path></g></g><g transform="translate(120.91289791875299 405.9082161361957) rotate(0 39.01400125464975 55.95947654707339)"><text x="78.0280025092995" y="39.95947654707337" font-family="Virgil, Segoe UI Emoji" font-size="44.0378356869856px" fill="#000000" text-anchor="end" style="white-space: pre;" direction="ltr">CSV</text><text x="78.0280025092995" y="95.91895309414674" font-family="Virgil, Segoe UI Emoji" font-size="44.0378356869856px" fill="#000000" text-anchor="end" style="white-space: pre;" direction="ltr"></text></g><g stroke-linecap="round"><g transform="translate(255.3651178623737 552.1892161494343) rotate(0 89.572623558455 -50.151315241695954)"><path d="M-0.64 -1.45 C26.56 -1.8, 130.63 14.01, 160.56 -3.93 C190.48 -21.87, 175.8 -91.6, 178.91 -109.1 M4.2 3.93 C31.4 4.13, 130.09 17.5, 159.06 -0.93 C188.03 -19.35, 174.39 -88.95, 178.04 -106.6" stroke="#000000" stroke-width="2" fill="none"></path></g><g transform="translate(255.3651178623737 552.1892161494343) rotate(0 89.572623558455 -50.151315241695954)"><path d="M185.99 -76.38 C184.73 -81.68, 182.73 -86.99, 176.68 -108.19 M189.63 -77.28 C187.02 -84.33, 183.13 -94.76, 176.08 -108.4" stroke="#000000" stroke-width="2" fill="none"></path></g><g transform="translate(255.3651178623737 552.1892161494343) rotate(0 89.572623558455 -50.151315241695954)"><path d="M165.47 -76.55 C168.39 -81.73, 170.58 -87, 176.68 -108.19 M169.11 -77.46 C171.82 -84.19, 173.26 -94.58, 176.08 -108.4" stroke="#000000" stroke-width="2" fill="none"></path></g></g><g stroke-linecap="round"><g transform="translate(469.46233352715365 165.59052504681074) rotate(0 121.09108548133003 -49.863993111171425)"><path d="M-1.04 -0.06 C2.84 -15.48, -17.82 -78.04, 22.3 -93.27 C62.43 -108.51, 202.99 -91.8, 239.73 -91.46 M3.59 -2.57 C8.47 -17.66, -12.46 -76.74, 27.8 -91.05 C68.06 -105.36, 209.19 -88.83, 245.14 -88.41" stroke="#000000" stroke-width="2" fill="none"></path></g><g transform="translate(469.46233352715365 165.59052504681074) rotate(0 121.09108548133003 -49.863993111171425)"><path d="M216.28 -82.32 C220.35 -85.69, 231.52 -83.66, 245.34 -88.35 M214.53 -81.34 C227.31 -81.76, 235.43 -84.86, 245.46 -89.12" stroke="#000000" stroke-width="2" fill="none"></path></g><g transform="translate(469.46233352715365 165.59052504681074) rotate(0 121.09108548133003 -49.863993111171425)"><path d="M217.56 -102.8 C221.18 -100.75, 232.01 -93.29, 245.34 -88.35 M215.81 -101.82 C227.95 -95.57, 235.66 -92.02, 245.46 -89.12" stroke="#000000" stroke-width="2" fill="none"></path></g></g><g stroke-linecap="round"><g transform="translate(690.2434650352935 563.647354252978) rotate(180 -96.42826578993436 -60.919441172737294)"><path d="M-0.81 1.11 C-2.88 -18.5, 19.62 -97.61, -13.41 -116.01 C-46.45 -134.41, -168.93 -110.76, -199.02 -109.3 M3.94 -0.75 C1.76 -20.01, 18.25 -94.54, -14.66 -112.23 C-47.57 -129.93, -162.53 -108.24, -193.52 -106.92" stroke="#000000" stroke-width="2" fill="none"></path></g><g transform="translate(690.2434650352935 563.647354252978) rotate(180 -96.42826578993436 -60.919441172737294)"><path d="M-165.03 -117.61 C-173.16 -120.35, -182.54 -109.59, -192.53 -110.74 M-164.82 -118.78 C-173.4 -115.24, -183.57 -110.75, -193.36 -106.47" stroke="#000000" stroke-width="2" fill="none"></path></g><g transform="translate(690.2434650352935 563.647354252978) rotate(180 -96.42826578993436 -60.919441172737294)"><path d="M-162.78 -97.21 C-171.75 -105.35, -181.72 -99.97, -192.53 -110.74 M-162.58 -98.38 C-172.07 -101.01, -182.92 -102.71, -193.36 -106.47" stroke="#000000" stroke-width="2" fill="none"></path></g></g><g stroke-linecap="round" transform="translate(712.676177018146 247.64366179475985) rotate(0 148.4996192790028 24.88158514515206)"><path d="M12.84 -1.05 L289.22 -1.64 L294.05 1.43 L294.36 8.72 L295.88 38.76 L292.11 45.5 L284.15 48.55 L8.48 50.08 L5.57 46.31 L1.63 41.4 L-0.08 10.67 L5.04 3.23 L11.73 -0.28" stroke="none" stroke-width="0" fill="#ffecb0"></path><path d="M12.44 0 M12.44 0 C92.18 1.77, 168.75 1.68, 284.56 0 M12.44 0 C90.46 -0.96, 168.04 0.31, 284.56 0 M284.56 0 C294.63 -1.26, 298.38 3.45, 297 12.44 M284.56 0 C291.91 -0.13, 299.27 4.27, 297 12.44 M297 12.44 C296.78 18.65, 295.27 26.08, 297 37.32 M297 12.44 C296.09 20.15, 296.55 29.31, 297 37.32 M297 37.32 C298.57 46.07, 292.13 48.63, 284.56 49.76 M297 37.32 C296.61 47.15, 294.35 51.23, 284.56 49.76 M284.56 49.76 C193.01 51.92, 100.64 50.34, 12.44 49.76 M284.56 49.76 C217.24 48.79, 149.07 49.61, 12.44 49.76 M12.44 49.76 C5.17 48.93, 0.74 47.45, 0 37.32 M12.44 49.76 C2.55 47.58, 0.54 44.19, 0 37.32 M0 37.32 C-1 29.88, 0.77 26.14, 0 12.44 M0 37.32 C-0.61 28.43, 0.75 18.48, 0 12.44 M0 12.44 C0.13 4.52, 6.15 0.28, 12.44 0 M0 12.44 C0.39 1.9, 6.06 -0.72, 12.44 0" stroke="#ffd754" stroke-width="1" fill="none"></path></g><g transform="translate(737.9527079592541 252.77795714217143) rotate(0 108.21514809161368 17.77256081796577)"><text x="216.43029618322737" y="24.54512163593153" font-family="Virgil, Segoe UI Emoji" font-size="28.43609730874519px" fill="#000000" text-anchor="end" style="white-space: pre;" direction="ltr">DB:Spring-batch</text></g><g stroke-linecap="round" transform="translate(715.835743385784 311.6248807394364) rotate(0 148.4996192790028 24.88158514515206)"><path d="M11.03 1.18 L286.05 -0.21 L292.01 2.66 L296.35 5.99 L296.39 38.74 L295.47 46.92 L285.97 50.79 L8.12 48.53 L5.85 46.69 L-0.41 40.89 L0.71 13.98 L2.94 1.47 L14.34 0.21" stroke="none" stroke-width="0" fill="#ffecb0"></path><path d="M12.44 0 M12.44 0 C83.42 1.63, 154.7 1.88, 284.56 0 M12.44 0 C67.26 -0.72, 123.88 -0.61, 284.56 0 M284.56 0 C292.78 -0.2, 295.84 3.64, 297 12.44 M284.56 0 C293.3 -0.84, 297.65 4.55, 297 12.44 M297 12.44 C298.46 19.69, 297.57 27.88, 297 37.32 M297 12.44 C298.01 18.07, 296.31 24.98, 297 37.32 M297 37.32 C295.25 46.41, 291.9 48.25, 284.56 49.76 M297 37.32 C295.72 45.47, 292.42 51.18, 284.56 49.76 M284.56 49.76 C188.19 49.65, 90.51 52.6, 12.44 49.76 M284.56 49.76 C203.45 47.81, 124 47.67, 12.44 49.76 M12.44 49.76 C4.89 51.37, -0.63 44.19, 0 37.32 M12.44 49.76 C6.04 51.62, 0.98 47.35, 0 37.32 M0 37.32 C-2.09 32.6, -2.01 26.73, 0 12.44 M0 37.32 C0.69 27.64, 0.08 18.02, 0 12.44 M0 12.44 C-0.33 3.85, 2.36 -1.29, 12.44 0 M0 12.44 C0.47 5.04, 2.44 0.67, 12.44 0" stroke="#ffd754" stroke-width="1" fill="none"></path></g><g transform="translate(733.6083042037488 315.57433869898426) rotate(0 132.30684164485615 35.54512163593154)"><text x="264.6136832897123" y="24.54512163593153" font-family="Virgil, Segoe UI Emoji" font-size="28.436097308745204px" fill="#000000" text-anchor="end" style="white-space: pre;" direction="ltr">DB:data_migration</text><text x="264.6136832897123" y="60.09024327186306" font-family="Virgil, Segoe UI Emoji" font-size="28.436097308745204px" fill="#000000" text-anchor="end" style="white-space: pre;" direction="ltr"></text></g><g stroke-linecap="round" transform="translate(10 645.3171920641446) rotate(0 145.76569544445192 33.00355368553625)"><path d="M-0.33 1.16 L291.43 1.66 L288.01 64.58 L-0.78 66.05" stroke="none" stroke-width="0" fill="#228be6"></path><path d="M0.41 -0.63 C108.87 2.45, 216.03 3.99, 290.98 -0.38 M-1.23 1.02 C83.03 -3.36, 163.23 -2.46, 291.67 -0.88 M287.76 -0.39 C289.76 17.48, 293.64 34.27, 293.67 63.04 M292.95 -1.12 C292.43 26.46, 290.35 51.84, 290.81 65.89 M292.51 67.6 C183.83 64.65, 69.8 67.92, 2.18 64.16 M290.9 66.6 C196.3 62.65, 97.98 64.27, 0.7 64.62 M0.18 68.01 C0 40.42, 0.77 17.43, 0.53 -2.35 M-1.91 64.51 C-2.07 48.62, -0.29 31.9, -0.42 -0.35" stroke="#000000" stroke-width="2" fill="none"></path></g><g transform="translate(23.751480702306793 654.4848458656843) rotate(0 126.05523977114542 41.25444210692035)"><text x="252.11047954229085" y="29.254442106920344" font-family="Virgil, Segoe UI Emoji" font-size="33.00355368553625px" fill="#000000" text-anchor="end" style="white-space: pre;" direction="ltr">file:employee.csv</text><text x="252.11047954229085" y="70.50888421384069" font-family="Virgil, Segoe UI Emoji" font-size="33.00355368553625px" fill="#000000" text-anchor="end" style="white-space: pre;" direction="ltr"></text></g><g stroke-linecap="round" transform="translate(834.54378089359 447.1306265375891) rotate(89.48150031270934 31.426400941725262 221.06928230304652)"><path d="M14.95 1.45 L54.02 0.18 L58.97 5.7 L63.54 10.96 L64.24 427.07 L62.39 435.18 L60.04 437.55 L51.66 442.06 L8.33 439.93 L2.23 439.72 L-0.62 429.58 L-0.27 16.96 L2.01 10.46 L2.24 2.3 L9.38 1.97 L17.29 -0.53" stroke="none" stroke-width="0" fill="#868e96"></path><path d="M15.71 0 M15.71 0 C23.01 1.88, 33.45 0.41, 47.14 0 M15.71 0 C21.57 -0.3, 29.33 0.87, 47.14 0 M47.14 0 C57.54 -1.5, 61.52 3.74, 62.85 15.71 M47.14 0 C56.67 1.55, 62.49 4.95, 62.85 15.71 M62.85 15.71 C61.77 105.61, 61.72 193.32, 62.85 426.43 M62.85 15.71 C62.52 113.33, 62.57 209.93, 62.85 426.43 M62.85 426.43 C63.26 435.97, 59 443.12, 47.14 442.14 M62.85 426.43 C62.17 435.3, 55.71 440.02, 47.14 442.14 M47.14 442.14 C36.28 443.69, 23.76 442.71, 15.71 442.14 M47.14 442.14 C38.26 442.17, 27.68 441.4, 15.71 442.14 M15.71 442.14 C5.9 443.59, 0.48 435.12, 0 426.43 M15.71 442.14 C6.2 444.13, 0.54 435.12, 0 426.43 M0 426.43 C-0.94 272.05, -1.72 115.44, 0 15.71 M0 426.43 C-0.44 315.87, 0.3 204.59, 0 15.71 M0 15.71 C1.19 6.07, 4.76 0.45, 15.71 0 M0 15.71 C-0.19 3.26, 6.41 -0.28, 15.71 0" stroke="#000000" stroke-width="4" fill="none"></path></g><g transform="translate(674.5917950788413 645.6807387074834) rotate(0 192.51571226700776 17.716169840522184)"><text x="385.03142453401557" y="24.432339681044404" font-family="Virgil, Segoe UI Emoji" font-size="28.345871744835485px" fill="#ffff" text-anchor="end" style="white-space: pre;" direction="ltr">TP: spring-batch-partitioner</text></g><g stroke-linecap="round"><g transform="translate(713.835972556933 21.417499960397294) rotate(0 -147.9218632189557 74.61220054591219)"><path d="M2.41 2.8 C-40.79 4.46, -210.73 -15.48, -260.75 9.99 C-310.77 35.46, -291.4 132.09, -297.7 155.63 M0.28 1.84 C-43.1 2.62, -212.86 -19.53, -262.62 5.37 C-312.37 30.26, -292.5 126.69, -298.26 151.22" stroke="#343a40" stroke-width="2" fill="none"></path></g><g transform="translate(713.835972556933 21.417499960397294) rotate(0 -147.9218632189557 74.61220054591219)"><path d="M-303.9 123.78 C-304.52 132.89, -300.23 138.64, -301.63 150.57 M-306.2 124.01 C-304.62 133.52, -301.95 141.5, -296.65 151.2" stroke="#343a40" stroke-width="2" fill="none"></path></g><g transform="translate(713.835972556933 21.417499960397294) rotate(0 -147.9218632189557 74.61220054591219)"><path d="M-283.38 124.23 C-289.04 133.59, -289.78 139.22, -301.63 150.57 M-285.69 124.47 C-291.41 133.77, -296.03 141.58, -296.65 151.2" stroke="#343a40" stroke-width="2" fill="none"></path></g></g></svg>