<svg version="1.1" xmlns="http://www.w3.org/2000/svg" viewBox="0 0 1097.3148022567236 746.993730079525" width="1097.3148022567236" height="746.993730079525">
  <!-- svg-source:excalidraw -->
  
  <defs>
    <style>
      @font-face {
        font-family: "Virgil";
        src: url("https://excalidraw.com/Virgil.woff2");
      }
      @font-face {
        font-family: "Cascadia";
        src: url("https://excalidraw.com/Cascadia.woff2");
      }
    </style>
  </defs>
  <rect x="0" y="0" width="1097.3148022567236" height="746.993730079525" fill="#ffffff"></rect><g stroke-linecap="round"><g transform="translate(538.8191401822671 363.4428439877931) rotate(0 0.15688712048537923 -0.043389891414591375)"><path d="M-0.77 -0.13 C-0.54 0.06, 0.86 1.15, 0.99 1.17 M1.03 -1.24 C1.22 -1.37, 0.86 -0.81, 0.56 -0.4" stroke="#fab005" stroke-width="2" fill="none"></path></g></g><g stroke-linecap="round" transform="translate(381.03399858031617 246.24963406331943) rotate(349.49460188942567 78.37730863843478 77.51211343823451)"><path d="M15.7 32.2 C15.7 32.2, 15.7 32.2, 15.7 32.2 M15.7 32.2 C15.7 32.2, 15.7 32.2, 15.7 32.2 M2.2 60.3 C17.06 42.11, 29.79 30.36, 42.18 10.58 M2.19 58.38 C14.95 45.25, 29.22 28.9, 44.02 11.03 M7.12 68.59 C23.39 49.16, 39.02 27.38, 59.22 6.4 M5.88 69.15 C26.64 44.48, 47.07 21.17, 58.53 7.7 M7.29 80.54 C29.75 52.96, 51.97 29.83, 74.87 0.24 M5.53 79.93 C32.05 51.5, 56.02 21.03, 75.23 1.09 M5.48 89.54 C33.55 58.27, 61.88 29.33, 86.25 0.8 M7.54 90.72 C36.03 56.54, 64.88 22.83, 84.19 2.46 M7.6 103.24 C26.39 79.5, 45.06 57.3, 92.55 4.43 M9.16 101.42 C41.18 65.47, 72.16 28.46, 93.96 3.23 M11.05 109.85 C41.87 77.52, 72.3 41.16, 102.41 6.44 M12.87 109.73 C33.43 83.66, 54.9 59.38, 102.03 4.73 M17.79 116.98 C41.63 89.81, 65.48 61.01, 112.81 7.81 M16.43 116.46 C50.77 76.33, 84.17 37.18, 111.61 8.47 M21.94 125.66 C45.22 97.39, 67.07 70.74, 116.86 11.05 M20.35 125.1 C50.75 88.89, 81.75 53.45, 118.41 12.54 M22.84 133.18 C55.01 96.94, 82.6 62.95, 123.31 18.71 M24.06 133.2 C47.46 103.43, 73.61 74.19, 124.15 17.64 M31.37 137.13 C65.02 99.43, 100.46 60.39, 129.03 20.44 M30.08 137.95 C67.79 93.48, 106.05 49.81, 129.98 22.7 M35.71 141.49 C65.14 107.78, 95.54 75.57, 138.03 25.39 M36.82 142.77 C69.77 102.59, 104.69 62.5, 137.46 26.76 M42.34 146.2 C63.02 123.83, 84.82 98.89, 142.41 31.42 M43.52 146.41 C74.24 108.71, 106.49 71.73, 142.52 32.75 M50.31 151.41 C87.36 108.57, 126.02 65.53, 148.85 38.74 M49.47 151.79 C70.58 128.66, 89.88 105.12, 147.86 38.65 M58.99 153.1 C87.78 123.68, 114.32 92.53, 152.1 45.9 M59.8 153.07 C81.73 123.98, 106.2 96.99, 151.47 48.01 M66.51 156.38 C91.35 130.87, 111.9 102.79, 154.8 53.89 M68.78 155.57 C100.06 117.42, 132.62 80.35, 154.35 55.59 M77.98 157.33 C107.91 117.93, 141.27 80.88, 157.82 62.97 M76.11 157.04 C95.18 134.17, 115.28 111.72, 157.91 62.7 M84.55 158.98 C113.63 129.17, 138.6 99.52, 160.68 75.5 M84.9 158.25 C103.12 137.73, 120.68 117.38, 158.25 75.58 M99.69 157.67 C119.71 131.28, 143.65 106.49, 160.98 85.63 M97.93 156.85 C118.09 134.37, 136.12 113.4, 160.68 85.63 M117.75 148.9 C127.43 137.43, 138.47 125.54, 162.4 96.51 M115.16 147.77 C127.42 137.28, 137.07 125.24, 161.55 98.12 M19.42 128.56 C19.42 128.56, 19.42 128.56, 19.42 128.56 M19.42 128.56 C19.42 128.56, 19.42 128.56, 19.42 128.56 M50.03 145.17 C41.23 135.44, 27.73 125.96, 8.98 107.59 M50.51 145.13 C34.94 131.09, 19.38 118.15, 7.89 108.62 M67.03 149.1 C46.91 130, 26.99 112.68, 2.35 92.26 M66.93 148.6 C49 132.3, 30.53 117, 3.87 93.57 M81.87 150.56 C58.29 134.39, 35.65 111.9, 3.15 84.81 M82.5 151.75 C57.38 130.52, 31.84 108.74, 4.16 83.1 M91.5 149.09 C58.43 120.27, 25.47 90.06, 2.12 71.4 M92.88 151.02 C62.19 124.92, 32.08 98.05, 3.92 71.91 M103.7 145.65 C78.87 131.53, 61.25 111.91, 3.43 60.3 M101.7 146.61 C67 117.16, 30.87 86.13, 3.59 61.86 M112.85 144.96 C69.01 107.74, 30.69 72.69, 6.13 55.13 M112.29 146.24 C73.01 112.39, 32.48 78.03, 7.28 53.81 M120.39 143.38 C80.03 108.67, 38.19 71.59, 8.98 45.13 M119.14 141.69 C76.81 106.35, 35.65 70.11, 9.61 45.34 M124.84 137.53 C83.88 98.61, 42.59 62.7, 15.76 40.19 M125.79 136.86 C97.68 110.79, 68.77 85.47, 13.97 38.36 M130.42 128.92 C92.72 95.62, 50.56 60.65, 15.63 31.63 M132.52 130.96 C92.75 95.51, 54.08 63.58, 16.84 31.41 M138.49 123.32 C95.43 87.89, 47.88 49.88, 24.11 24.07 M137.74 125.41 C103.57 96.24, 68.29 65.69, 23.79 26.08 M144.78 119.36 C98.86 78.3, 55.45 42.21, 29.47 18.92 M144.12 118.98 C102.79 83.99, 61.38 48.04, 29.75 19.98 M146.76 111.91 C121.02 88.01, 94.28 67.47, 34.23 14.23 M148.02 112.68 C111.56 80.43, 74.54 47.95, 35.55 15.17 M150.14 105.28 C109.77 67.83, 63.22 28.86, 41.79 11.33 M150.9 105.51 C125.9 81.24, 99.18 58.8, 40.5 10.34 M155.8 96.61 C112.96 60.98, 69.88 27.52, 47.39 1.56 M154.25 97.38 C112.46 62.19, 70.37 24.59, 46.31 3.99 M156.93 88.51 C123.39 60.08, 90.9 33.71, 53.85 0.77 M157.67 90.27 C120.62 59.72, 84.34 27.18, 54.81 0.57 M155.25 77.09 C135.61 57.87, 116.29 42.92, 65.63 -3.16 M157.07 77.8 C134.04 58.86, 110.27 37.71, 64.98 -1.54 M158.49 67.75 C127.25 43.29, 102.09 19.28, 77.67 -3.86 M157.15 67.53 C128.69 43.76, 99.04 18.44, 75.71 -2.04 M156.49 56.69 C142.13 43.32, 124.42 29.83, 93.95 -1.07 M155.42 56.08 C135.62 37.39, 115.32 19.77, 91.42 1.28 M148.9 38.27 C134.53 28.27, 122.3 16.86, 111.51 6.68 M146.9 38.89 C138.12 31.01, 130.04 22.89, 111.98 7.32" stroke="#bfc548" stroke-width="1" fill="none"></path><path d="M111.94 7.75 C122.26 11.25, 132.51 20.15, 139.55 28.65 C146.59 37.15, 151.48 48.13, 154.17 58.74 C156.87 69.36, 157.94 81.54, 155.72 92.34 C153.5 103.14, 147.79 114.42, 140.85 123.54 C133.91 132.66, 124.02 141.67, 114.07 147.05 C104.12 152.43, 92.3 155.44, 81.15 155.82 C70.01 156.2, 57.5 153.9, 47.2 149.34 C36.9 144.79, 26.8 137.27, 19.36 128.5 C11.92 119.73, 5.71 107.53, 2.57 96.74 C-0.57 85.95, -1.73 74.57, 0.51 63.76 C2.75 52.94, 9.26 40.97, 16.02 31.84 C22.78 22.7, 31.36 14.42, 41.08 8.97 C50.81 3.51, 63.18 -0.36, 74.38 -0.87 C85.59 -1.39, 100.51 3.75, 108.33 5.88 C116.16 8, 118.01 9.59, 121.32 11.87 C124.64 14.15, 129 18.5, 128.22 19.57 M47.45 5.76 C56.65 0.76, 69.04 1.1, 80.08 1.39 C91.11 1.68, 103.33 2.56, 113.65 7.5 C123.97 12.45, 134.86 21.97, 141.99 31.07 C149.13 40.17, 154.53 51.1, 156.47 62.1 C158.42 73.11, 156.72 86.07, 153.66 97.09 C150.6 108.1, 145.22 119.52, 138.12 128.19 C131.02 136.86, 121.09 144.43, 111.06 149.13 C101.04 153.84, 88.94 156.99, 77.98 156.41 C67.02 155.84, 55.24 150.57, 45.28 145.67 C35.31 140.76, 25.2 135.23, 18.18 126.97 C11.16 118.71, 5.67 107.14, 3.14 96.11 C0.62 85.07, 0.69 71.96, 3.04 60.77 C5.39 49.57, 10.44 37.79, 17.25 28.93 C24.07 20.06, 38.95 11.28, 43.93 7.58 C48.9 3.88, 46.4 6.46, 47.1 6.72 C47.8 6.98, 47.78 7.98, 48.13 9.14" stroke="#bfc548" stroke-width="2" fill="none"></path></g><g stroke-linecap="round"><g transform="translate(416.35202972506306 407.6979500297046) rotate(349.49460188942567 57.41081462820867 -79.29495568852937)" fill-rule="evenodd"><path d="M-7.58 -40.3 L-6.68 -37.54 L-19.49 -59.29 L-18.09 -69.29 L-20.64 -76.24 L-16.17 -83.35 L-6.67 -98.33 L2.19 -103.36 L28.82 -109.66 L40.88 -108.3 L93.09 -98.51 L101.55 -100.37 L122.14 -109.14 L128.22 -115.26 L134.64 -131.07 L130.89 -105.2 L125.09 -82.79 L110.15 -60.17 L90.23 -45.22 L68.17 -34.33 L57.83 -27.28 L37.52 -24.94 L21.92 -27.32 L15.05 -30.44 L-5.46 -38.16 L-6.64 -42.35" stroke="none" stroke-width="0" fill="#ffffff" fill-rule="evenodd"></path><path d="M-4.92 -39.43 C-4.9 -39.33, -4.44 -36.91, -6.57 -39.99 C-8.7 -43.08, -15.74 -51.72, -17.71 -57.95 C-19.68 -64.18, -19.2 -71.77, -18.39 -77.36 C-17.59 -82.95, -16.22 -87.18, -12.89 -91.51 C-9.56 -95.83, -5.06 -100.2, 1.59 -103.3 C8.23 -106.4, 18.49 -109.63, 26.98 -110.11 C35.48 -110.58, 41.74 -107.92, 52.55 -106.14 C63.35 -104.36, 81.7 -99.64, 91.82 -99.42 C101.94 -99.2, 107.43 -102.05, 113.27 -104.81 C119.11 -107.57, 123.43 -111.38, 126.87 -115.99 C130.31 -120.6, 133.61 -135.9, 133.92 -132.47 C134.22 -129.04, 130.98 -105.39, 128.71 -95.4 C126.43 -85.42, 125.49 -80.01, 120.25 -72.56 C115.01 -65.12, 107.65 -57.8, 97.27 -50.71 C86.88 -43.62, 70.69 -33.95, 57.94 -30.02 C45.19 -26.1, 31.25 -25.59, 20.77 -27.17 C10.29 -28.75, -0.42 -37.19, -4.93 -39.49 C-9.44 -41.79, -6.12 -40.68, -6.29 -40.97 M-5.86 -39.93 C-5.94 -39.63, -5.47 -35.19, -7.52 -38.53 C-9.58 -41.87, -16.47 -53.11, -18.17 -59.97 C-19.87 -66.82, -18.94 -74.45, -17.72 -79.65 C-16.5 -84.86, -13.78 -87.6, -10.87 -91.19 C-7.97 -94.78, -6.72 -98.34, -0.3 -101.2 C6.12 -104.05, 19.04 -107.51, 27.66 -108.32 C36.28 -109.14, 40.95 -107.43, 51.41 -106.09 C61.88 -104.75, 79.96 -100.52, 90.46 -100.29 C100.95 -100.05, 108.21 -101.66, 114.39 -104.66 C120.57 -107.66, 124.53 -114.1, 127.53 -118.28 C130.54 -122.47, 132.3 -133.48, 132.45 -129.75 C132.59 -126.03, 130.47 -105.43, 128.42 -95.93 C126.37 -86.43, 125.29 -80.15, 120.14 -72.73 C114.99 -65.32, 107.73 -58.68, 97.51 -51.46 C87.29 -44.23, 71.26 -33.53, 58.82 -29.38 C46.39 -25.23, 33.69 -24.86, 22.9 -26.54 C12.1 -28.22, -1.44 -37.05, -5.96 -39.46 C-10.48 -41.86, -4.3 -40.93, -4.22 -40.98" stroke="#bfc548" stroke-width="2" fill="none"></path></g></g><g stroke-linecap="round"><g transform="translate(431.57971203890634 377.20962740146587) rotate(349.49460188942567 34.29585869924202 -30.217299187246198)" fill-rule="evenodd"><path d="M-24.43 -15.94 C-24.43 -15.94, -24.43 -15.94, -24.43 -15.94 M-24.43 -15.94 C-24.43 -15.94, -24.43 -15.94, -24.43 -15.94 M-20.01 -9.19 C-17.49 -11.67, -14.8 -14.22, -12.44 -17.1 M-19.31 -9.55 C-17.5 -11.23, -15.88 -13.17, -13.46 -16.24 M-14.3 -5.15 C-10.46 -9.41, -7.43 -12.65, -4.65 -15.11 M-12.93 -4.85 C-9.77 -7.8, -7.68 -11.43, -3.83 -15.11 M-4.36 -4.05 C-2.73 -6.95, 2.49 -7.87, 5.8 -15.32 M-3.96 -2.55 C-1.29 -5.8, 1.37 -9.33, 6.61 -15.04 M5.36 -2.52 C11.29 -6.56, 12.34 -10.89, 19.46 -16.99 M6.82 -2.78 C11.41 -7.6, 14.63 -12.38, 19.41 -16.95 M20.14 -8.22 C24.29 -9.22, 28.47 -15.33, 31.24 -18.99 M20.83 -7.68 C24.1 -11.84, 28.06 -15.92, 31.89 -18.41 M35.53 -9.28 C36.39 -14.23, 39.14 -17.9, 44.59 -23.4 M34.63 -10.49 C38.97 -15.12, 42.22 -19.71, 44.94 -23.46 M42.41 -6.55 C47.68 -13.23, 53.27 -20.34, 56.26 -24.12 M42.27 -8.64 C47.32 -12.62, 51.96 -16.86, 56.81 -24.5 M60.8 -15.6 C73.39 -29.38, 81.1 -41.41, 91.01 -54.03 M60.65 -15.31 C67.54 -23.49, 75.06 -31.84, 93.02 -52.34 M-21.92 -11.36 C-21.92 -11.36, -21.92 -11.36, -21.92 -11.36 M-21.92 -11.36 C-21.92 -11.36, -21.92 -11.36, -21.92 -11.36 M-5.05 -7.63 C-8.88 -12.66, -13.02 -14.99, -20.83 -19.53 M-6.77 -8.82 C-10.31 -11.29, -16.21 -16.37, -21.14 -20.93 M6.22 -8.44 C3.16 -13.15, -2.21 -15.32, -6.19 -18.34 M5.43 -7.86 C2.01 -11.7, -1.51 -14.26, -6.19 -19.44 M18.23 -9.26 C15.18 -10.52, 12.61 -12.66, 6.28 -20.52 M17.3 -9.59 C12.6 -12.95, 8.12 -16.26, 5.36 -19.05 M24.52 -13.24 C23.75 -15.32, 21.13 -16.46, 15.37 -20.01 M24.94 -13.37 C22.25 -15.71, 20.57 -17.34, 15.6 -21.33 M38.98 -11.08 C33.8 -15.32, 31.2 -18.76, 27.25 -22.98 M38.01 -11.75 C33.57 -16.11, 29.46 -19.93, 27.66 -21.3 M48.91 -14.97 C43.79 -17.1, 41.58 -21.7, 34.43 -25.64 M47.13 -14.74 C44.05 -16.7, 41.61 -19.78, 34.49 -25.98 M57.92 -16.01 C53.33 -21.31, 50.29 -23.61, 44.83 -27.47 M56.02 -18.26 C52.66 -21.13, 48.32 -25.86, 43.43 -28.7 M63 -22.42 C61.44 -25.22, 59.09 -26.06, 55.28 -29.25 M62.59 -22.67 C59.97 -25.23, 57.32 -27.17, 55.51 -29.07 M69.54 -28.19 C67.5 -29.55, 65.92 -30.63, 64.01 -32.92 M68.86 -27.82 C67.38 -28.85, 65.68 -30.47, 63.77 -31.95 M77.33 -31.7 C73.88 -33.29, 71.78 -36.24, 70.05 -38.39 M77.14 -30.84 C74.72 -33.83, 71.48 -36, 70.15 -37.33 M83.26 -37.7 C81.61 -37.85, 79.77 -39.58, 77.83 -41.08 M82.78 -36.79 C81.26 -38.13, 79.96 -39.27, 77.53 -41.38 M87.68 -43.38 C87.04 -43.37, 86.78 -44.1, 85.66 -44.82 M87.95 -43.11 C87.05 -43.92, 86.09 -44.64, 85.61 -45.19 M92.52 -49.8 C92.04 -50.31, 91.31 -50.62, 90.71 -51.25 M92.38 -49.88 C91.77 -50.29, 91.19 -50.91, 90.81 -51.13" stroke="#82c91e" stroke-width="1" fill="none"></path><path d="M-6.46 -16.67 C-4.61 -16.89, -0.7 -16.8, 3.44 -16.99 C7.59 -17.18, 11.99 -16.69, 18.43 -17.8 C24.86 -18.92, 34.23 -21.45, 42.04 -23.69 C49.86 -25.92, 59.61 -28.6, 65.32 -31.22 C71.03 -33.84, 73.44 -37.39, 76.29 -39.42 C79.13 -41.46, 80.29 -41.93, 82.38 -43.42 C84.47 -44.91, 87.05 -46.69, 88.84 -48.36 C90.62 -50.03, 92.38 -53.12, 93.1 -53.44 C93.82 -53.75, 94.54 -52.68, 93.16 -50.25 C91.78 -47.83, 86.91 -41.05, 84.82 -38.88 C82.72 -36.71, 81.47 -38.33, 80.58 -37.23 C79.69 -36.14, 80.72 -33.89, 79.49 -32.3 C78.27 -30.71, 76.81 -30.03, 73.22 -27.71 C69.63 -25.39, 63.97 -21, 57.96 -18.38 C51.94 -15.75, 43.43 -13.84, 37.11 -11.97 C30.79 -10.11, 26.02 -8.04, 20.04 -7.18 C14.06 -6.32, 7.23 -6.83, 1.2 -6.83 C-4.83 -6.83, -11.76 -5.47, -16.15 -7.16 C-20.54 -8.86, -26.59 -15.31, -25.13 -17 C-23.67 -18.7, -10.45 -17.24, -7.39 -17.31 M-7.37 -17.72 C-5.68 -18.38, -1.8 -18.48, 2.43 -18.81 C6.65 -19.14, 11.29 -19.06, 17.98 -19.72 C24.67 -20.38, 34.92 -20.97, 42.55 -22.76 C50.18 -24.55, 58 -27.52, 63.77 -30.47 C69.54 -33.41, 74.06 -38.03, 77.18 -40.43 C80.3 -42.83, 80.66 -43.55, 82.5 -44.87 C84.33 -46.2, 86.62 -46.79, 88.2 -48.39 C89.78 -49.99, 91.51 -54.13, 91.95 -54.46 C92.4 -54.79, 91.94 -53.11, 90.87 -50.36 C89.8 -47.61, 86.94 -40.6, 85.51 -37.96 C84.09 -35.31, 83.23 -35.42, 82.31 -34.52 C81.39 -33.61, 81.65 -33.62, 80.02 -32.53 C78.39 -31.44, 76.19 -30.23, 72.54 -27.99 C68.88 -25.75, 63.93 -21.92, 58.1 -19.09 C52.26 -16.26, 44.11 -13.15, 37.54 -11 C30.96 -8.85, 24.38 -6.89, 18.67 -6.17 C12.95 -5.45, 8.71 -6.53, 3.24 -6.66 C-2.23 -6.79, -9.42 -5.43, -14.14 -6.93 C-18.85 -8.42, -25.99 -14.28, -25.04 -15.65 C-24.09 -17.02, -11.57 -15.2, -8.42 -15.17" stroke="#bfc548" stroke-width="2" fill="none"></path></g></g><g stroke-linecap="round" transform="translate(402.0497264324789 371.1924066841845) rotate(349.49460188942567 5.8799177251046615 5.673634731559389)"><path d="M9.39 1.55 C10.47 2.32, 11.61 3.41, 12.09 4.42 C12.56 5.43, 12.7 6.65, 12.24 7.6 C11.78 8.55, 10.5 9.52, 9.33 10.11 C8.15 10.69, 6.42 11.19, 5.19 11.11 C3.96 11.03, 2.7 10.35, 1.94 9.61 C1.18 8.88, 0.8 7.95, 0.61 6.72 C0.41 5.49, 0.26 3.36, 0.79 2.23 C1.31 1.1, 2.17 0.23, 3.78 -0.05 C5.38 -0.33, 9.23 0.13, 10.42 0.57 C11.61 1.01, 11.12 2.26, 10.9 2.6 M3.53 -1.13 C4.15 -1.87, 5.51 -0.62, 6.61 -0.11 C7.7 0.4, 9.5 0.83, 10.12 1.93 C10.73 3.03, 10.43 5.22, 10.3 6.48 C10.16 7.73, 9.96 8.57, 9.3 9.45 C8.64 10.32, 7.6 11.61, 6.36 11.72 C5.13 11.83, 3.01 10.84, 1.9 10.08 C0.78 9.33, -0.27 8.62, -0.33 7.17 C-0.38 5.72, 0.81 2.28, 1.57 1.38 C2.33 0.48, 4.02 2.09, 4.21 1.77 C4.4 1.46, 2.66 -0.52, 2.71 -0.52" stroke="none" stroke-width="0" fill="#ffffff"></path><path d="M7.72 -0.11 C8.79 0.08, 9.97 1.87, 10.51 2.91 C11.04 3.95, 11.13 5.03, 10.93 6.11 C10.72 7.2, 9.91 8.49, 9.27 9.44 C8.64 10.39, 8.1 11.56, 7.12 11.81 C6.15 12.06, 4.41 11.62, 3.42 10.95 C2.43 10.28, 1.58 9.06, 1.19 7.78 C0.8 6.5, 0.89 4.61, 1.11 3.28 C1.32 1.94, 1.25 0.08, 2.48 -0.25 C3.71 -0.57, 7.45 1.17, 8.48 1.32 C9.51 1.47, 8.83 0.76, 8.67 0.66 M3.78 -0.15 C4.83 -0.81, 5.55 -0.72, 6.67 -0.48 C7.79 -0.25, 9.86 0.18, 10.5 1.27 C11.14 2.36, 10.68 4.53, 10.5 6.05 C10.32 7.56, 10.2 9.56, 9.41 10.35 C8.62 11.13, 6.65 10.83, 5.76 10.75 C4.87 10.68, 5.18 10.26, 4.09 9.9 C2.99 9.54, -0.27 9.45, -0.8 8.6 C-1.33 7.76, 0.19 6.31, 0.9 4.85 C1.6 3.39, 2.88 0.66, 3.43 -0.16 C3.98 -0.97, 3.94 -0.18, 4.18 -0.03" stroke="#bfc548" stroke-width="2" fill="none"></path></g><g transform="translate(341.58638302235613 193.15629366490396) rotate(0 119.47230259665491 48.34139411425349)"><text x="238.94460519330985" y="34.3413941142535" font-family="Virgil, Segoe UI Emoji" font-size="38.67311529140274px" fill="#000000" text-anchor="end" style="white-space: pre;" direction="ltr">Spring Batch</text><text x="238.94460519330985" y="82.682788228507" font-family="Virgil, Segoe UI Emoji" font-size="38.67311529140274px" fill="#000000" text-anchor="end" style="white-space: pre;" direction="ltr"></text></g><g stroke-linecap="round"><g transform="translate(902.524159412264 72.4783366047974) rotate(0 -68.37155177994867 73.39013940590891)" fill-rule="evenodd"><path d="M-145.99 1.62 C-145.99 1.62, -145.99 1.62, -145.99 1.62 M-145.99 1.62 C-145.99 1.62, -145.99 1.62, -145.99 1.62 M-148.69 9.94 C-142.25 6.58, -138.16 -0.71, -136.87 -3.6 M-147.79 10.94 C-144.27 5.63, -140.39 1.43, -135.84 -4.27 M-151.67 19.99 C-144.3 13.53, -143.07 10.64, -129.22 -5.01 M-149.94 19.3 C-145.42 12.56, -139.33 5.63, -129.46 -3.75 M-151 25.17 C-141.68 17.34, -132.05 4.77, -121.46 -7.26 M-152.78 26.01 C-143.01 17.76, -135.28 6.49, -123.76 -6.5 M-150.62 32.4 C-141.36 21.45, -127.64 7.63, -117.04 -5.74 M-152.45 33.16 C-142.85 22.41, -134.44 13.73, -117.34 -7.29 M-151.37 38.25 C-141.02 27.9, -131.24 14.03, -111.93 -6.48 M-151.76 38.64 C-142.55 28.23, -132.44 18.09, -112.3 -5.74 M-151.78 41.87 C-135.97 26.1, -122.23 7.71, -108.66 -7.01 M-149.45 43.97 C-139.71 31.89, -131.34 21.26, -107.76 -5.19 M-149.35 47.96 C-138 37.78, -128.19 23.39, -104.2 -2.62 M-148.91 49.22 C-135.21 32.38, -122.04 18.58, -104.2 -3.96 M-149.97 52.42 C-136.58 38.33, -123.83 21.18, -101.42 -2.72 M-148.13 53.7 C-132.79 34.57, -118.83 17.66, -100.41 -3.79 M-147.85 56.3 C-134.95 44.15, -119.68 26.97, -93.77 -0.86 M-147.06 57.83 C-131.19 38.24, -115.13 20.4, -94.62 -2.86 M-145.64 62.01 C-125.47 36.92, -104.59 13.2, -91.91 -2.81 M-146.18 62.34 C-125.64 38.35, -103.16 12.51, -90.57 -1.92 M-145.73 65.97 C-125.53 43.12, -105.17 20.91, -86.46 0.62 M-143.3 66.87 C-132 51.03, -118.14 37.02, -86.79 -0.12 M-142.26 71.83 C-121.53 45.95, -98.67 20.51, -82.67 1.53 M-142.03 70.16 C-121.02 46.14, -99.74 21.27, -80.71 0.88 M-139.83 73.9 C-120.69 49.43, -98.48 27.49, -74.44 -2.16 M-139.99 75.45 C-117.23 47.32, -93.79 21.65, -73.14 -1.19 M-140.88 77.55 C-114.52 51.07, -93.88 24.24, -68.97 -4.47 M-138.56 79.91 C-117.83 54.78, -95.15 29.92, -66.38 -2.98 M-138.3 84.97 C-115.26 55.08, -91.58 29.08, -60.79 -4.95 M-137.09 84.24 C-110.74 53.52, -85.33 22.04, -60.76 -4.2 M-134.21 86.79 C-119.61 68.12, -102.9 49.98, -54.49 -4.76 M-136.05 87.39 C-110.89 56.39, -84.04 26.54, -56.8 -3.69 M-131.93 91.05 C-112.67 65.71, -92.58 44.01, -51.44 -3.48 M-132.51 91.4 C-114.21 70.28, -95.61 49.01, -52.42 -3.26 M-132.63 93.14 C-99.85 57.28, -66.26 21.45, -47.72 -3.41 M-131.27 94.38 C-101.62 59.42, -71.27 26.4, -48.31 -2.03 M-130.78 99.97 C-104.42 68.3, -81.74 40.92, -42.85 -0.1 M-129.73 98.62 C-99.52 63.32, -69.27 27.22, -43.18 -0.01 M-126.76 103.43 C-105.73 79.03, -86.81 57.85, -37.17 -4.51 M-127.02 100.97 C-102.76 76.1, -80.4 48.48, -36.57 -2.26 M-123.58 106.53 C-100.95 75.26, -73.64 48.6, -27.12 -5.46 M-124.18 105.08 C-100.39 78.05, -74.36 48.52, -26.58 -8.37 M-122.89 108.17 C-88.62 71.08, -56.47 32.04, -19.23 -6.94 M-122.6 108.98 C-87.51 65.99, -51.14 25.14, -21.4 -7.87 M-117.69 112.74 C-94.02 82.05, -67.91 52.61, -14.35 -8.57 M-118.23 110.76 C-80.9 66.95, -41.62 23.18, -15.93 -7.59 M-115.65 110.61 C-109.85 103.44, -102.22 96.37, -96.11 90.33 M-115.38 111.99 C-107.61 103.89, -99.98 95.79, -93.77 88.1 M-93.79 89.55 C-70.95 64.8, -52.41 37.03, -10.16 -6.25 M-94.86 89.11 C-64.7 54.19, -33.9 19.57, -10.87 -6.63 M-87.28 85.69 C-65.07 60.39, -40.51 30.02, -7.28 -7.33 M-87.2 87.34 C-59.64 54.96, -30.58 21.3, -6.17 -7.49 M-100.3 107.59 C-100.3 107.59, -100.3 107.59, -100.3 107.59 M-100.3 107.59 C-100.3 107.59, -100.3 107.59, -100.3 107.59 M-85.85 88.07 C-61.21 63.24, -38.72 34.98, -1.96 -5.18 M-83.51 89.13 C-64.52 66.02, -42.74 42.12, -2.17 -5.9 M-96.03 107.93 C-92.47 105, -91.36 103.73, -89.55 102.16 M-95.07 107.73 C-93.89 106.4, -92.3 104.69, -90.36 101.63 M-79.26 92.49 C-62.89 71.09, -45.95 51.4, 2.19 -3.83 M-80.36 91.56 C-48.78 55.01, -15.33 17.76, 1.96 -4.15 M-91.03 110.39 C-66.34 83.7, -42.72 55.33, 7.07 -1.4 M-90.7 109.02 C-70.95 84.15, -50.19 60.06, 5.87 -3.43 M-85.4 111.27 C-51.27 69.99, -13.84 26.17, 7.96 -1.16 M-85.61 109.53 C-63.62 84.32, -42.28 59.95, 9.06 -0.01 M-80.24 108.5 C-44.71 70.8, -12.82 31.4, 15.05 2.55 M-78.77 107.76 C-60.58 84.99, -41.2 62.86, 13.63 0.35 M-72.54 105.93 C-42.18 72.23, -10.26 33.49, 17.49 2.91 M-74.31 107.1 C-43.44 73.37, -14.58 37.61, 15.05 4.28 M-69.54 107.71 C-48.51 83.42, -22.63 57.5, 14.62 10.08 M-69.48 107.34 C-33.86 67.91, -0.41 29.11, 16.96 9.3 M-68.06 111.2 C-41.56 82.82, -19.99 57.17, 15.34 16.86 M-66.38 112.64 C-35.52 74.08, -3.67 37.07, 15 17.4 M-66.62 114.88 C-47.94 94.48, -31.42 74.58, 13.37 24.12 M-65.6 117.38 C-38.98 84.96, -11.61 54.82, 13.65 25.45 M-66.66 122.1 C-49.69 103.29, -30.23 83.78, 11.96 34.03 M-65.88 122.85 C-40.12 93.63, -12.88 63.45, 11.5 32.44 M-65.32 125.73 C-40.32 98.88, -18.63 73.65, 15.12 38.46 M-64.37 127.92 C-41.45 100.53, -17.43 74.45, 13.93 36.78 M-64.74 131.36 C-42.58 107.75, -19.95 83.25, 7.24 51.79 M-64.38 133.18 C-44.76 111.67, -27.9 92.16, 7.35 51.1 M-64.07 137.74 C-46.91 122.29, -31.16 104.01, 1.17 66.09 M-64.89 139.33 C-44.46 115.65, -24.01 92.97, -1.29 66.46 M-60.95 142.94 C-50.81 128.79, -40.31 115.69, -13.35 84.3 M-62.47 142.34 C-47.96 125.08, -31.91 108.47, -11.42 85.39 M-59.32 146.34 C-43.5 128.7, -27 107.71, -11.48 86.68 M-60.57 147.43 C-43.1 126.76, -25.85 106.69, -9.2 89.4 M-57.6 152.77 C-52.31 141.37, -40.3 130.47, -20.97 108.94 M-58.2 152.1 C-44.61 136.01, -32.35 120.12, -20.64 107.07 M-15.82 104.74 C-12.88 99.53, -12.7 96.11, -6.89 89.55 M-18.32 104.42 C-12.46 99, -8.39 93.67, -4.93 90.22 M-56.3 155.12 C-49.33 144.93, -42.91 139.41, -21.97 113.1 M-55.74 154.57 C-42.08 138.73, -29.28 122.82, -19.69 113.49 M-13.15 103.44 C-8.11 98, -3.91 92.99, 1.2 89.04 M-12.73 103.28 C-9.78 99.77, -7.83 97.42, -0.51 89.62 M-53.52 155.53 C-46.62 149.47, -35.42 137.63, -19.83 118.71 M-53.89 158.2 C-44.25 146.47, -34.82 137.5, -20.34 119.07 M-6.32 104.08 C-4.82 101.19, -2.5 99.41, 4.59 91.3 M-6.15 104.61 C-2.11 98.6, 0.55 93.87, 3.58 90.39 M-49.16 156.8 C-39.36 146.71, -28.55 135.57, -19.82 126.72 M-47.69 158.77 C-37.67 145.97, -27.69 134.1, -20.47 126.82 M-1.25 103.04 C3.58 100.7, 3.48 97.01, 8.09 90.11 M-0.96 102.04 C1.64 100.32, 3.53 98.83, 8.72 90.87 M-39.37 155.01 C-37.22 151.83, -32.58 144.77, -25.17 132.84 M-40.23 154.33 C-38.11 151.98, -34.11 146.65, -23.21 135 M-32.7 152.24 C-29.85 148.51, -27.84 147.1, -25.99 143.56 M-32.93 152.85 C-30.99 150.38, -29.89 148.17, -26 143.77" stroke="#4c6ef5" stroke-width="0.5" fill="none"></path><path d="M-45.48 -2.58 C-48.13 -3.51, -57.53 -7.26, -62.44 -7.54 C-67.36 -7.82, -70.85 -5.1, -74.97 -4.27 C-79.09 -3.44, -78.96 -2.03, -87.18 -2.54 C-95.39 -3.06, -113.76 -9.32, -124.29 -7.36 C-134.82 -5.41, -145.99 -0.27, -150.36 9.18 C-154.73 18.64, -153.2 35.69, -150.51 49.36 C-147.81 63.04, -140.22 80.62, -134.19 91.23 C-128.15 101.83, -120.83 113.43, -114.29 113 C-107.76 112.57, -99.96 92.78, -94.95 88.64 C-89.94 84.5, -86.91 87.48, -84.22 88.17 C-81.52 88.87, -78.81 91.34, -78.76 92.82 C-78.7 94.31, -81.94 95.8, -83.88 97.08 C-85.81 98.35, -87.68 98.81, -90.36 100.47 C-93.04 102.13, -100.9 105.74, -99.96 107.03 C-99.03 108.33, -88.71 107.92, -84.75 108.25 C-80.79 108.57, -78.76 108.88, -76.22 108.97 C-73.69 109.07, -71.47 103.68, -69.54 108.79 C-67.6 113.91, -67.09 131.69, -64.61 139.65 C-62.13 147.6, -60.25 154.59, -54.65 156.52 C-49.06 158.46, -36.35 154.74, -31.04 151.25 C-25.72 147.76, -23.97 142.48, -22.75 135.57 C-21.52 128.67, -24.05 115.44, -23.67 109.84 C-23.29 104.25, -24.17 103.31, -20.45 102 C-16.73 100.69, -6.54 103.57, -1.37 101.97 C3.8 100.37, 10.95 94.32, 10.57 92.42 C10.19 90.51, 0.35 91.85, -3.64 90.54 C-7.63 89.23, -14.04 89.38, -13.35 84.54 C-12.67 79.69, -3.61 70.07, 0.47 61.47 C4.56 52.86, 8.68 42.57, 11.16 32.9 C13.63 23.24, 18.32 10.38, 15.32 3.47 C12.33 -3.45, 0.72 -6.52, -6.81 -8.58 C-14.34 -10.65, -23.33 -9.73, -29.85 -8.92 C-36.36 -8.1, -43.08 -4.91, -45.88 -3.71 M-46.48 -3.47 C-49.21 -4.86, -58.21 -9.05, -63.01 -9.5 C-67.8 -9.96, -71.33 -7.51, -75.25 -6.21 C-79.18 -4.91, -78.21 -1.08, -86.57 -1.72 C-94.94 -2.36, -115.07 -11.79, -125.45 -10.07 C-135.82 -8.35, -144.7 -1.17, -148.83 8.59 C-152.95 18.35, -152.5 34.69, -150.19 48.51 C-147.88 62.33, -140.68 80.9, -134.95 91.51 C-129.22 102.12, -122.55 112.72, -115.79 112.16 C-109.03 111.6, -99.65 92.06, -94.4 88.16 C-89.14 84.27, -86.71 88.05, -84.25 88.8 C-81.8 89.55, -79.8 91.47, -79.65 92.67 C-79.5 93.87, -81.5 94.78, -83.37 95.99 C-85.24 97.2, -87.65 98.19, -90.88 99.95 C-94.12 101.71, -103.46 105.03, -102.78 106.57 C-102.09 108.11, -91.51 109.18, -86.78 109.17 C-82.05 109.17, -77.58 106.64, -74.41 106.54 C-71.23 106.44, -69.68 102.92, -67.71 108.56 C-65.74 114.2, -64.79 132.68, -62.56 140.38 C-60.34 148.08, -59.44 153.13, -54.36 154.77 C-49.29 156.42, -36.93 153.61, -32.12 150.25 C-27.31 146.9, -26.88 140.96, -25.52 134.62 C-24.16 128.28, -25.03 117.76, -23.95 112.2 C-22.86 106.64, -22.51 102.87, -19 101.26 C-15.48 99.65, -7.99 103.97, -2.84 102.53 C2.31 101.08, 11.78 94.64, 11.91 92.58 C12.04 90.52, 1.96 91.73, -2.08 90.16 C-6.12 88.6, -12.85 87.74, -12.31 83.17 C-11.77 78.6, -2.96 70.83, 1.17 62.75 C5.3 54.67, 10.11 44.28, 12.46 34.68 C14.82 25.07, 18.03 12.08, 15.31 5.11 C12.58 -1.87, 3.43 -4.8, -3.89 -7.18 C-11.22 -9.57, -21.36 -9.9, -28.64 -9.19 C-35.92 -8.49, -44.81 -4.21, -47.58 -2.97" stroke="#364fc7" stroke-width="1" fill="none"></path></g></g><g stroke-linecap="round"><g transform="translate(826.3947575713813 70.22122814340742) rotate(0 -7.2995227224238874 54.60211741603124)"><path d="M-7.54 0.73 C-9.51 2.67, -16.04 7.08, -18.76 12.51 C-21.48 17.93, -23.2 25.81, -23.86 33.29 C-24.52 40.76, -22.65 51.06, -22.73 57.36 C-22.82 63.67, -24.65 67.1, -24.37 71.1 C-24.1 75.1, -23.05 78.53, -21.08 81.39 C-19.11 84.25, -15.85 86.36, -12.56 88.26 C-9.27 90.15, -4.76 91.63, -1.34 92.77 C2.07 93.9, 6.05 93.45, 7.93 95.07 C9.8 96.7, 10.47 100.18, 9.9 102.52 C9.33 104.86, 5.21 108.11, 4.51 109.13 M-8.84 0.07 C-11.02 1.61, -16.99 5.66, -19.55 10.87 C-22.12 16.08, -23.69 23.93, -24.23 31.3 C-24.76 38.68, -22.59 48.4, -22.76 55.12 C-22.94 61.84, -25.26 66.85, -25.28 71.61 C-25.3 76.37, -24.58 81.09, -22.88 83.68 C-21.18 86.28, -18.61 85.69, -15.08 87.17 C-11.56 88.66, -5.39 90.94, -1.74 92.6 C1.9 94.26, 4.73 95.62, 6.79 97.13 C8.86 98.65, 11.03 100.07, 10.64 101.71 C10.25 103.35, 5.48 105.84, 4.47 106.98" stroke="#364fc7" stroke-width="1" fill="none"></path></g></g><g stroke-linecap="round"><g transform="translate(855.5796205165983 69.40205707266287) rotate(0 16.544294064279597 43.4848485287829)"><path d="M0.73 0.3 C2.27 0.69, 6.23 0.63, 10.08 2.65 C13.94 4.67, 20.5 6.7, 23.86 12.4 C27.21 18.11, 29.5 29.22, 30.24 36.9 C30.97 44.59, 27.92 52.12, 28.26 58.52 C28.59 64.92, 32.03 70.44, 32.26 75.31 C32.48 80.17, 30.07 85.65, 29.6 87.69 M-0.34 -0.59 C1.04 -0.56, 5.65 -1.41, 9.62 0.93 C13.58 3.27, 19.92 7.78, 23.45 13.44 C26.98 19.11, 30.22 27.26, 30.8 34.91 C31.37 42.56, 26.48 52.71, 26.91 59.35 C27.33 66, 32.74 70.15, 33.34 74.76 C33.94 79.36, 31.3 84.8, 30.51 86.97" stroke="#364fc7" stroke-width="1" fill="none"></path></g></g><g stroke-linecap="round"><g transform="translate(887.3261090591944 208.72509015375246) rotate(0 -8.87125614608209 -70.0189498250861)"><path d="M-6.33 -32.11 C-6.16 -33.76, -5.93 -39.81, -5.31 -42.21 C-4.69 -44.61, -4.16 -45.37, -2.59 -46.5 C-1.02 -47.64, 4.03 -47.75, 4.1 -49.02 C4.16 -50.29, -0.33 -51.98, -2.21 -54.13 C-4.08 -56.28, -5.47 -58.54, -7.14 -61.9 C-8.8 -65.27, -9.99 -68.8, -12.22 -74.3 C-14.45 -79.79, -19.54 -89.38, -20.52 -94.88 C-21.5 -100.38, -20.92 -105.38, -18.09 -107.28 C-15.26 -109.19, -6.15 -106.4, -3.53 -106.31 M-7.64 -32.67 C-7.58 -34.73, -6.52 -41.33, -5.86 -43.98 C-5.19 -46.62, -4.82 -47.9, -3.63 -48.53 C-2.45 -49.17, 1.18 -46.88, 1.24 -47.8 C1.31 -48.72, -1.54 -51.58, -3.23 -54.06 C-4.92 -56.55, -7 -59.11, -8.89 -62.68 C-10.79 -66.25, -12.59 -70.01, -14.61 -75.46 C-16.63 -80.92, -20.14 -90.45, -21.01 -95.44 C-21.87 -100.42, -22.77 -103.56, -19.79 -105.36 C-16.81 -107.17, -6.13 -106.22, -3.12 -106.24" stroke="#364fc7" stroke-width="1" fill="none"></path></g></g><g stroke-linecap="round"><g transform="translate(802.3736211007117 114.3507987420629) rotate(0 13.937076684784131 19.624620283260285)"><path d="M0.92 -1.75 C2.38 -2.64, 6.22 -6.65, 9.48 -7.54 C12.75 -8.43, 17.72 -8.67, 20.54 -7.11 C23.35 -5.55, 25.54 -2.68, 26.37 1.84 C27.2 6.35, 26.1 14.66, 25.52 19.97 C24.94 25.28, 23.69 28.97, 22.87 33.7 C22.04 38.43, 21.06 46.1, 20.55 48.36 M-0.05 -2.4 C1.24 -3.15, 5.54 -5.2, 8.89 -6.28 C12.25 -7.36, 17.11 -9.89, 20.08 -8.89 C23.06 -7.89, 25.52 -5.23, 26.74 -0.27 C27.95 4.69, 28.36 15.26, 27.38 20.85 C26.41 26.45, 21.88 28.84, 20.88 33.29 C19.88 37.74, 21.76 45.28, 21.37 47.55" stroke="#364fc7" stroke-width="1" fill="none"></path></g></g><g stroke-linecap="round"><g transform="translate(876.8817010946647 104.89494341598694) rotate(358.18735542929625 -2.088203087791726 3.4675512100500825)" fill-rule="evenodd"><path d="M-0.21 -0.68 L-6.33 1.12 L-2.82 6.96 L3.13 1.81 L-2.76 0.59" stroke="none" stroke-width="0" fill="#4c6ef5" fill-rule="evenodd"></path><path d="M-1.16 0.68 C-2.02 1, -6.86 2.04, -6.77 2.86 C-6.68 3.67, -2.27 5.97, -0.62 5.55 C1.03 5.12, 3.19 1.15, 3.13 0.31 C3.07 -0.53, -0.34 0.49, -0.99 0.5 M-2.21 -0.01 C-3.3 -0.12, -8.23 -0.12, -8 1.04 C-7.77 2.21, -2.79 6.98, -0.82 6.99 C1.15 6.99, 4.02 2.06, 3.82 1.09 C3.63 0.12, -0.94 1.42, -1.97 1.15" stroke="#364fc7" stroke-width="1" fill="none"></path></g></g><g stroke-linecap="round"><g transform="translate(820.5585435177262 109.90833835271692) rotate(14.802012269513854 -1.6180746670983694 2.313667433443648)" fill-rule="evenodd"><path d="M-3.11 -1.14 L-4.75 3 L-1.62 4.16 L1.86 3.15 L4.3 0.47 L-0.08 -1.03" stroke="none" stroke-width="0" fill="#4c6ef5" fill-rule="evenodd"></path><path d="M-1.29 -0.53 C-2.08 -0.12, -5.64 2.15, -5.8 3.21 C-5.97 4.28, -3.35 5.54, -2.27 5.85 C-1.19 6.17, -0.25 5.86, 0.66 5.11 C1.56 4.36, 3.54 2.03, 3.16 1.35 C2.77 0.67, -0.71 1.26, -1.63 1.02 M-2.39 1.81 C-3.37 1.83, -6.35 1.29, -6.44 1.65 C-6.53 2.01, -4.08 3.72, -2.91 3.96 C-1.74 4.19, -0.23 3.92, 0.58 3.04 C1.39 2.17, 2.66 -0.87, 1.95 -1.29 C1.23 -1.71, -3.05 0.55, -3.7 0.52" stroke="#364fc7" stroke-width="1" fill="none"></path></g></g><g transform="translate(809.5767893591716 15.428265791798701) rotate(0 0.00003460736155602717 0.0000346073615506981)" stroke="none" fill="#364fc7"><path d="M 1.8561553006146871 -1.8561553006146871 Q 1.8561553006146871 -1.8561553006146871 2.224418597338462 -1.1333978856726465 2.5926818940622365 -0.41064047073060594 2.224418597338462 -1.1333978856726465 1.8561553006146871 -1.8561553006146871 2.224418597338462 -1.1333978856726465 2.5926818940622365 -0.41064047073060594 2.465787010028351 0.39054229554285214 2.3388921259944655 1.1917250618163102 1.7653085939053876 1.765308593905388 1.19172506181631 2.338892125994466 0.39054229554285225 2.465787010028351 -0.4106404707306055 2.5926818940622365 -1.1333978856726463 2.224418597338462 -1.856155300614687 1.8561553006146874 -2.224418597338462 1.1333978856726468 -2.5926818940622365 0.41064047073060617 -2.465787010028351 -0.3905422955428519 -2.338892125994466 -1.19172506181631 -1.7653085939053883 -1.7653085939053876 -1.1917250618163107 -2.3388921259944655 -0.3905422955428537 -2.465787010028351 0.4106404707306033 -2.592681894062237 1.1333978856726452 -2.2244185973384623 Z"></path></g><g transform="translate(733.1714255807509 10) rotate(0 110.39748334566985 49.142453401520754)"><text x="220.7949666913397" y="35.142453401520754" font-family="Virgil, Segoe UI Emoji" font-size="38.67311529140274px" fill="#000000" text-anchor="end" style="white-space: pre;" direction="ltr">PostgreSQL</text><text x="220.7949666913397" y="84.28490680304151" font-family="Virgil, Segoe UI Emoji" font-size="38.67311529140274px" fill="#000000" text-anchor="end" style="white-space: pre;" direction="ltr"></text></g><g stroke-linecap="round" transform="translate(903.8891656595168 497.78267603344096) rotate(0 0.02485861638518827 0.02485861638518827)"><path d="M0 0 C0 0, 0 0, 0 0 M0 0 C0 0, 0 0, 0 0" stroke="#000000" stroke-width="0.5" fill="none"></path><path d="M0 0 C0.01 0, 0.02 0, 0.05 0 M0 0 C0.02 0, 0.03 0, 0.05 0 M0.05 0 C0.05 0.02, 0.05 0.03, 0.05 0.05 M0.05 0 C0.05 0.02, 0.05 0.04, 0.05 0.05 M0.05 0.05 C0.04 0.05, 0.03 0.05, 0 0.05 M0.05 0.05 C0.03 0.05, 0.02 0.05, 0 0.05 M0 0.05 C0 0.03, 0 0.01, 0 0 M0 0.05 C0 0.03, 0 0.02, 0 0" stroke="#000000" stroke-width="1" fill="none"></path></g><g stroke-linecap="round" transform="translate(781.6608300027596 487.6759414802256) rotate(0 29.256618579299413 28.69157828305208)"><path d="M-0.41 19.52 C-0.41 19.52, -0.41 19.52, -0.41 19.52 M-0.41 19.52 C-0.41 19.52, -0.41 19.52, -0.41 19.52 M-2.57 28.59 C5.43 17.07, 10.54 11.44, 21.11 2.1 M1.49 23.93 C6.05 18.98, 10.98 12.35, 15.91 3.39 M2.12 28.15 C10.28 23.56, 12.17 18.66, 23.38 1.44 M0.6 32.02 C4.96 25.12, 11.13 18.43, 22.24 3.62 M1.42 38.85 C11.23 30.07, 16.8 20.28, 26.8 3.34 M1.77 35.23 C12.38 23.07, 22.05 11.58, 28.6 2.71 M-0.39 37.43 C16.33 22.36, 32.69 10.09, 36.58 3.45 M4.14 40.68 C11.42 33.29, 16.46 23.22, 35.81 2.53 M5.84 42.12 C14.15 27.28, 25.37 19.54, 38.53 5.55 M4.34 41.18 C17.45 28.3, 28.55 18.8, 39.35 2.87 M10.15 47.05 C14.73 36.71, 20.05 29.76, 42.37 7.66 M8.48 44.73 C19.51 31.88, 33.16 14.49, 42.6 4.59 M12.18 46.84 C21 41.26, 25.22 32.31, 43.77 6.18 M10.74 48.14 C21.1 37.7, 27.9 30.43, 46.86 8.82 M13.18 50.98 C27.42 34.94, 38.25 27.44, 52.48 6.28 M13.41 54.52 C20.31 44.61, 27.35 34.05, 49.37 8.46 M16.77 56.98 C32.43 37.57, 44.19 20.46, 52.9 10.47 M17.48 55.43 C28.85 39.65, 40.62 24.72, 55.86 11.74 M23.62 53.71 C36.49 43.81, 49.36 30.15, 59.65 18.35 M21.33 57.34 C33.93 42.05, 45.89 29.3, 58 15.06 M29.53 53.57 C32.65 44.78, 41.11 36.35, 61.36 22.8 M24.72 54.81 C34.28 48.69, 44.41 37.41, 57.2 18.3 M29.43 54.32 C41.22 49.28, 44.74 34.59, 57.56 20.75 M28.74 59.44 C36.85 50.69, 42.65 43.02, 59.38 24.54 M36.74 57.23 C44.09 49.08, 45.75 42.29, 56.68 28.76 M37.09 59.04 C41.94 49.63, 46.22 44.12, 60.94 30.82 M44.89 48.49 C47.13 47.22, 52.13 40.69, 58.52 41.88 M45.46 53.27 C48.03 50.01, 49.05 47.34, 57.34 40.25 M13.47 53.1 C13.47 53.1, 13.47 53.1, 13.47 53.1 M13.47 53.1 C13.47 53.1, 13.47 53.1, 13.47 53.1 M25.14 57.5 C16.75 48.98, 8.53 45.22, 2.12 35.42 M19.66 56.64 C13.01 49.15, 8.57 42.8, 2.27 39.1 M30.52 56.52 C26.41 48.47, 18.9 43.08, -0.99 32.85 M27.08 56.43 C21.52 46.56, 13.17 38.97, 0.24 31.94 M33.07 57.48 C25.12 47.04, 17.33 39.72, 1.68 29.02 M33.79 55.56 C20.88 45.97, 10.17 33.97, 1.61 25.09 M39.2 51.92 C30.28 41.43, 12.9 27.42, -3.02 17.43 M37.97 54.69 C25.89 43.04, 8.8 29.02, 1.28 18.47 M39.37 49.62 C28.89 40.75, 10.72 28.04, 4.91 12.85 M43.54 52.88 C27.56 41.14, 13.75 27.75, 0.45 17 M49.53 47.93 C35.07 36.5, 23.51 31.25, 7.77 11.97 M47.52 49.98 C32.52 39.4, 21.54 25.43, 3.69 14.25 M48.12 48.47 C39.31 43.94, 31.28 32.56, 6.31 8.64 M49.01 46.38 C40.16 39.64, 29.81 27.17, 9 12.85 M52.79 44.33 C37.4 30.99, 23.33 22.22, 11.57 8.51 M55.82 47.26 C43.48 34.9, 32.15 27.46, 11.64 6.07 M54.5 42.1 C37.04 26.9, 25.14 14.9, 16.55 8.28 M54.51 39.75 C41.1 30.15, 26.05 17.12, 13.7 6.25 M56.4 35.07 C43 27.72, 35.9 16.23, 17.04 -0.28 M55.21 39.08 C43.38 27.2, 27.61 13.83, 16.88 3.77 M54.45 31.93 C43.21 17.57, 27.29 8.68, 18.27 -0.41 M56.16 32.45 C42.34 20.52, 29.37 6.33, 23.08 2.13 M54.26 24.73 C52.31 19.35, 38.32 16.39, 28.03 2.31 M58.57 27.99 C45.95 18.89, 35.76 8.19, 27.44 1.61 M59.29 24.14 C47.43 12.74, 37.89 4.89, 28.54 -1.48 M58.61 21.09 C48.25 14.63, 41.85 8.94, 32.17 -1.05 M55.66 11.39 C48.74 6.68, 40.23 -1.54, 37.82 -3.53 M54.31 15.46 C51.31 11.57, 43.5 5.33, 35.85 -4.24 M54.27 10.55 C51.21 6.22, 47.82 4.34, 45.06 1.88 M52.74 8.25 C51.44 7.57, 50.75 4.8, 45.98 0.56" stroke="#000000" stroke-width="0.5" fill="none"></path><path d="M15.37 3.07 C20.24 -0.42, 26.46 -0.44, 32.76 0.34 C39.05 1.12, 48.98 3.08, 53.13 7.76 C57.27 12.43, 57.78 21.72, 57.65 28.4 C57.53 35.07, 56 43.05, 52.36 47.82 C48.72 52.58, 42.24 56.07, 35.81 56.99 C29.37 57.91, 19.47 56.52, 13.74 53.33 C8.02 50.15, 3.83 43.5, 1.47 37.87 C-0.9 32.24, -6.09 25.94, -0.45 19.57 C5.19 13.19, 25.98 0.34, 35.3 -0.37 C44.62 -1.09, 55.21 14.39, 55.45 15.28 M3.9 8.42 C7.39 4.04, 19.13 3.44, 25.57 2.38 C32.01 1.32, 37.44 -0.05, 42.57 2.07 C47.69 4.19, 54.32 9.46, 56.3 15.11 C58.29 20.77, 56.29 29.79, 54.47 36.01 C52.65 42.22, 50.04 49.15, 45.38 52.4 C40.72 55.65, 32.87 56.47, 26.51 55.49 C20.15 54.5, 11.17 50.46, 7.22 46.48 C3.28 42.49, 2.67 37.48, 2.85 31.57 C3.02 25.67, 7.39 14.64, 8.27 11.06 C9.15 7.48, 7.88 9.35, 8.13 10.09" stroke="#000000" stroke-width="1" fill="none"></path></g><g stroke-linecap="round" transform="translate(792.2068934824864 498.120183810804) rotate(0 19.172623052658423 17.79348607552822)"><path d="M33.66 8.12 C36.48 10.67, 40.08 14.8, 39.83 18.33 C39.59 21.85, 35.28 26.28, 32.18 29.25 C29.08 32.22, 25 35.56, 21.23 36.14 C17.47 36.73, 13.08 34.68, 9.57 32.76 C6.06 30.84, 1.33 28.33, 0.17 24.63 C-0.98 20.94, 0.95 14.58, 2.61 10.6 C4.28 6.63, 6.46 2.55, 10.18 0.77 C13.9 -1.01, 20.25 -2.14, 24.92 -0.08 C29.6 1.97, 35.9 9.46, 38.23 13.1 C40.57 16.75, 39.32 21.82, 38.95 21.81 M28.15 0.22 C31.21 2.6, 36.19 10.01, 37.37 14.24 C38.55 18.47, 36.87 22.13, 35.23 25.59 C33.58 29.05, 31.21 33.82, 27.48 34.99 C23.76 36.15, 17.07 33.68, 12.85 32.58 C8.63 31.48, 4.7 30.8, 2.19 28.38 C-0.32 25.97, -2.84 22.13, -2.21 18.09 C-1.57 14.05, 2.57 7.06, 5.99 4.14 C9.42 1.21, 14.72 0.42, 18.33 0.54 C21.95 0.67, 26.01 4.77, 27.68 4.88 C29.35 4.99, 28.75 1.57, 28.37 1.19" stroke="none" stroke-width="0" fill="#000000"></path><path d="M10.68 0.58 C14.08 -0.92, 21.21 1.69, 25.01 2.83 C28.81 3.97, 31.21 4.5, 33.49 7.41 C35.77 10.33, 38.71 16.29, 38.7 20.32 C38.68 24.35, 36.5 29.31, 33.41 31.59 C30.33 33.86, 24.59 34.01, 20.17 33.96 C15.75 33.91, 10.39 33.68, 6.87 31.3 C3.35 28.92, -0.16 23.45, -0.95 19.67 C-1.74 15.89, -0.83 11.62, 2.1 8.6 C5.04 5.59, 12.87 2.67, 16.67 1.59 C20.46 0.51, 24.42 2.37, 24.87 2.11 M26.85 5.09 C30.73 7.15, 37.74 8.68, 39.2 11.91 C40.66 15.13, 37.93 21.27, 35.6 24.44 C33.26 27.62, 28.89 29.05, 25.2 30.95 C21.52 32.85, 17.13 35.99, 13.49 35.84 C9.84 35.69, 5.87 33.23, 3.35 30.06 C0.84 26.89, -1.64 20.39, -1.59 16.82 C-1.55 13.26, 0.26 11.09, 3.62 8.65 C6.97 6.21, 14.23 2.94, 18.54 2.19 C22.85 1.45, 27.92 3.83, 29.49 4.18 C31.06 4.53, 27.69 3.91, 27.97 4.28" stroke="#ffffff" stroke-width="1" fill="none"></path></g><g stroke-linecap="round" transform="translate(786.1590558248421 424.62394235513847) rotate(0 22.997376805994975 22.55322279112994)"><path d="M1.53 10.61 C1.53 10.61, 1.53 10.61, 1.53 10.61 M1.53 10.61 C1.53 10.61, 1.53 10.61, 1.53 10.61 M-0.92 17.63 C2.23 14.24, 13.67 3.98, 14.53 -2.68 M1.57 17.1 C6.01 10.91, 7.69 6.05, 15.29 -1.07 M2.6 25.34 C4.19 20.83, 11.89 8.02, 16.52 -0.46 M-1 24.74 C5.13 17.79, 7.92 13.11, 18.5 1.66 M4.95 31 C12.7 18.32, 15.51 9.28, 26.55 0.37 M2.57 27.76 C11.26 17.42, 17.55 8.74, 26.97 0.05 M3.51 29.85 C16.31 22.6, 22.97 13.36, 26.7 0.07 M4.67 34.19 C11.4 21.6, 21.94 11.23, 30.84 3.7 M2.6 34.53 C10.87 30.29, 21.31 18.79, 35.08 1.46 M5.05 34.82 C11.96 31.17, 18.66 21.02, 32.17 5.67 M6.88 39.42 C11.49 32.8, 21.36 24.65, 40.5 8.68 M6.21 40.65 C13.52 30.89, 20.78 23.35, 35.49 4.41 M13.38 43.02 C20.2 31.18, 28.23 17.48, 37.21 7.15 M13.31 40.33 C23.49 29.54, 33.67 17.68, 40.58 8.71 M18.27 39.33 C27.61 33.78, 37.62 16.93, 40.24 9.67 M14.94 44.62 C25.24 29.7, 36.09 16.45, 45.67 10.89 M20.88 43.77 C23.77 36.52, 29.13 30.8, 48.86 11.53 M19 43.31 C23.12 36.67, 30.69 33.5, 48.86 11.01 M26.32 47.96 C32.28 42.1, 39.13 35.12, 48.59 18.7 M25.34 45.14 C32.03 37.99, 38.5 30.35, 46.07 20.04 M30.95 40.67 C36.14 35.85, 43.04 37.05, 43.79 27.85 M31.11 45.74 C37.17 39.57, 38.96 33.03, 45.59 29.01 M6.06 38.76 C6.06 38.76, 6.06 38.76, 6.06 38.76 M6.06 38.76 C6.06 38.76, 6.06 38.76, 6.06 38.76 M20.67 40.69 C12.35 35.84, 5.08 33.35, -1.82 33.38 M18.95 41.09 C12.72 36.75, 7.7 34.36, 1.85 28.57 M21.61 43.12 C16.21 32.99, 11.13 33.93, -2.83 26.71 M24.24 45.15 C14.67 38.59, 8.51 31.83, -0.81 25.06 M27.42 42.51 C24.04 39.43, 16.93 31.01, -2.44 16.33 M27.24 40.95 C19.38 31.59, 8.81 22.24, 0.19 17.87 M34.16 40.59 C22.27 34.55, 17.48 25.87, 4.29 11.42 M32.21 41.91 C22.82 31.47, 10.26 22.46, 0.28 15.15 M42.43 38.81 C31.96 31.3, 19.81 27.59, 2.72 5.74 M39.63 39.32 C32.18 32.43, 22.51 27.43, 2.47 7.36 M39.98 36.21 C30.36 27.12, 17.16 18.51, 8.06 9.54 M38.79 37.28 C30.24 26.34, 20.78 17.14, 6.66 6.22 M46.19 31.97 C33.61 21.58, 22.37 15.15, 12.67 5.66 M44.15 34.3 C30.27 22.57, 19.22 9.78, 10.91 5.89 M46.33 32.14 C36.48 25.74, 32.26 11.92, 14.46 0.03 M43.56 31.11 C33.5 21.21, 20.65 11, 11.79 0.49 M45.98 22.92 C38.66 21.17, 33.1 10.01, 16.31 -3.69 M44.66 26.97 C39.34 17.73, 28.85 12.14, 13.7 -0.12 M44.15 23.28 C36.48 12, 26.2 1.93, 20.66 -2.14 M45.87 21.37 C40.34 12.33, 34.61 10.56, 23.42 -1.4 M44.18 14.16 C41.33 14.91, 39.49 8.75, 27.83 -1.53 M47.26 14.33 C41.7 12.35, 35.41 3.39, 30.39 -0.28" stroke="#000000" stroke-width="0.5" fill="none"></path><path d="M30.6 1.58 C35.16 2.87, 42.82 5.54, 45.17 9.86 C47.52 14.18, 45.97 22.23, 44.7 27.5 C43.42 32.77, 41.13 38.51, 37.54 41.47 C33.94 44.44, 28.34 45.73, 23.12 45.3 C17.9 44.87, 10.11 42.34, 6.2 38.89 C2.29 35.43, 0.47 29.25, -0.33 24.56 C-1.12 19.87, -1.09 14.84, 1.41 10.75 C3.91 6.65, 8.52 0.85, 14.69 -0.02 C20.86 -0.89, 33.85 3.76, 38.43 5.53 C43.01 7.3, 42.96 10.27, 42.17 10.6 M18.35 2.83 C23.03 1.37, 27.1 -0.69, 31.25 0.37 C35.4 1.43, 41.32 4.96, 43.26 9.19 C45.19 13.42, 43.79 20.66, 42.87 25.76 C41.95 30.85, 40.96 36.79, 37.72 39.75 C34.49 42.7, 28.53 43.79, 23.45 43.48 C18.38 43.16, 10.66 40.52, 7.26 37.86 C3.86 35.2, 3.32 32.06, 3.04 27.51 C2.76 22.96, 3.19 15.19, 5.59 10.57 C7.99 5.96, 15.47 0.87, 17.44 -0.18 C19.4 -1.23, 17.14 4.02, 17.37 4.26" stroke="#000000" stroke-width="1" fill="none"></path></g><g stroke-linecap="round" transform="translate(794.8100902420209 433.9138920138768) rotate(0 13.922644405769006 13.47302098454358)"><path d="M21.57 1.31 C24.09 2.08, 24.56 4.82, 25.41 7.6 C26.26 10.37, 27.21 15.14, 26.67 17.97 C26.14 20.79, 24.71 22.84, 22.21 24.54 C19.7 26.25, 14.5 28.58, 11.65 28.2 C8.79 27.82, 7.03 24.78, 5.09 22.26 C3.16 19.73, 0.15 15.92, 0.05 13.05 C-0.06 10.18, 2.67 7.36, 4.47 5.04 C6.27 2.72, 6.81 -1.39, 10.85 -0.89 C14.89 -0.39, 26.12 5.07, 28.7 8.06 C31.29 11.06, 26.7 16.58, 26.37 17.07 M5.33 5.18 C7.28 3.96, 9.64 1.46, 12.44 1.44 C15.25 1.41, 20.06 3.8, 22.16 5.02 C24.25 6.25, 24.76 6.33, 25.01 8.8 C25.27 11.28, 25.18 16.89, 23.7 19.9 C22.22 22.9, 18.39 26.16, 16.13 26.85 C13.86 27.53, 12.16 25.12, 10.12 24.01 C8.07 22.91, 5.72 22.03, 3.86 20.22 C1.99 18.41, -1.23 16.28, -1.07 13.13 C-0.92 9.97, 4.15 3.19, 4.8 1.28 C5.44 -0.64, 2.84 1.15, 2.79 1.66" stroke="none" stroke-width="0" fill="#000000"></path><path d="M23.19 5.39 C25.31 7.06, 25.3 8.09, 25.82 10.64 C26.34 13.19, 27.34 17.98, 26.31 20.69 C25.28 23.4, 22.53 26.29, 19.64 26.91 C16.76 27.52, 12.1 25.66, 9.01 24.39 C5.91 23.13, 2.77 21.9, 1.08 19.3 C-0.61 16.71, -1.8 11.72, -1.11 8.84 C-0.43 5.95, 2.82 3.19, 5.18 1.98 C7.55 0.76, 9.24 0.03, 13.09 1.55 C16.95 3.08, 25.79 8.76, 28.32 11.13 C30.85 13.49, 28.46 15.99, 28.26 15.75 M5.92 3.4 C8.03 0.94, 9.3 0.52, 11.5 -0.06 C13.7 -0.64, 16.73 -1.9, 19.12 -0.1 C21.5 1.71, 24.68 7.3, 25.8 10.76 C26.92 14.21, 27.12 18.19, 25.84 20.65 C24.56 23.1, 20.93 24.03, 18.1 25.47 C15.26 26.91, 11.12 29.68, 8.84 29.29 C6.55 28.9, 5.84 25.76, 4.39 23.14 C2.94 20.53, 0.38 16.63, 0.13 13.62 C-0.11 10.61, 1.75 6.33, 2.91 5.09 C4.07 3.86, 7.07 6.11, 7.11 6.2" stroke="#ffffff" stroke-width="1" fill="none"></path></g><g stroke-linecap="round" transform="translate(788.7052883888676 561.3673897082781) rotate(0 22.997376805994975 22.55322279112994)"><path d="M11.83 2.33 C11.83 2.33, 11.83 2.33, 11.83 2.33 M11.83 2.33 C11.83 2.33, 11.83 2.33, 11.83 2.33 M0.38 19.95 C12.8 8.71, 13.77 1.91, 18.22 4.19 M4.79 16 C5.19 12.53, 10 8.5, 18.53 2.05 M0.97 28.07 C6.71 17.06, 8.71 11.64, 21.64 1.22 M3.24 23.83 C8.76 16.25, 16.55 7.7, 24.95 0.78 M5.34 30.73 C8.61 20.33, 22.42 7.85, 30.08 3.33 M3.82 29.54 C8.04 23.19, 17.93 13.96, 28.07 0.9 M8.21 34.57 C12.51 28.41, 14.2 18.4, 32.8 6.54 M3.84 34.44 C14.12 23.6, 23.42 15.04, 31.1 4.37 M4.15 41.48 C14.65 30.72, 25.17 17.23, 31.92 2.76 M6.71 39.75 C13.62 29.99, 18.88 25.16, 33.78 7.21 M6.83 42.23 C18.82 31.9, 32.2 22.04, 35.7 8.19 M9.12 39.18 C17.01 31.33, 22.73 23.06, 39.67 8.91 M11.13 45.08 C15.56 34.98, 23.35 26.12, 45.99 9.86 M13.12 44.68 C18.53 38.03, 26.77 27.89, 43.44 10.1 M19.08 46.93 C25.24 34.55, 27.07 28.44, 47.61 14.6 M15.95 44.56 C26.37 31.68, 40.32 20.48, 42.25 14.52 M21.38 43.18 C28.25 35.63, 40.01 25.19, 42.25 20.09 M21.58 42.52 C30.76 38, 38.8 26.65, 45.6 19.16 M31.38 46.87 C36.06 41.87, 38.67 33.17, 47.38 23.26 M30.51 43.77 C36.56 36.39, 40.51 29.78, 48.11 23.76 M10.73 42.53 C10.73 42.53, 10.73 42.53, 10.73 42.53 M10.73 42.53 C10.73 42.53, 10.73 42.53, 10.73 42.53 M14.15 40.99 C12.52 36.33, 6.67 37.08, -0.51 27.32 M18.05 41.16 C11.83 37.62, 3.9 34.07, 2.22 30.26 M23.64 40.01 C14.45 35.91, 6.99 35.5, 4.76 27.74 M24.88 41.31 C16.86 36.23, 7 27.37, 2.79 24.15 M27.86 38.06 C25.29 40.85, 14.63 35.95, 4.57 18.91 M26.95 43.31 C18.84 35.21, 6.81 26.44, 1.81 20.05 M33.97 42.45 C26.08 33.14, 12.38 23.41, 7.5 18.05 M33.39 38.1 C26.87 31.38, 16.72 25.75, 3 17.25 M32.95 37.33 C25.35 26.08, 16.15 15.98, 10.04 8.92 M36.69 37.72 C25.15 29.26, 10.97 18.51, 5 13.34 M40.94 33.07 C26.46 27.46, 18.96 14.39, 4.99 5.76 M40.03 33.76 C27.37 25.9, 17.8 14.85, 9.67 7.37 M43.91 33.48 C33.22 26.83, 23.58 17.22, 10.82 1.21 M41.86 31.67 C35.84 25.08, 27.14 18.05, 9.48 4.69 M43.5 25.13 C33.23 19.77, 32.17 17.23, 15.35 -2.38 M43.66 29.11 C35.48 19.5, 26.25 14.31, 11 -0.59 M45.15 28.62 C42.25 16.47, 35.12 12.94, 19.56 1.62 M46.07 26.31 C35.64 18.42, 27.71 8.95, 16.78 2.03 M47.26 23.23 C44.14 13.81, 37.03 8.34, 21.73 0.91 M47.9 19.76 C39.6 16.01, 33.19 11.16, 25.32 -0.76 M41.48 10.96 C36.03 5.21, 31.01 1.39, 25.82 -5.23 M42.44 9.32 C40.15 10.69, 36.74 4.73, 25.44 -2.48" stroke="#000000" stroke-width="0.5" fill="none"></path><path d="M12.14 1.98 C15.84 -0.74, 19.95 -0.39, 24.55 0.64 C29.15 1.68, 36.03 4.78, 39.71 8.2 C43.38 11.62, 46.54 16.68, 46.59 21.18 C46.64 25.68, 43.1 31.56, 39.99 35.21 C36.89 38.85, 32.81 41.78, 27.97 43.04 C23.14 44.3, 15.47 44.83, 10.98 42.74 C6.49 40.66, 2.47 34.76, 1.04 30.52 C-0.38 26.28, -2.89 21.87, 2.44 17.3 C7.76 12.73, 26.19 2.72, 33.01 3.09 C39.82 3.46, 43.77 19.64, 43.32 19.5 M5.16 6.45 C7.6 2.02, 14.78 -1.8, 19.29 -2.6 C23.8 -3.41, 27.89 -1.24, 32.24 1.61 C36.59 4.47, 43.14 9.99, 45.4 14.55 C47.67 19.12, 47.77 24.63, 45.85 29.02 C43.93 33.41, 37.96 37.97, 33.9 40.9 C29.83 43.84, 25.9 47.31, 21.45 46.63 C16.99 45.95, 10.5 41.11, 7.16 36.82 C3.83 32.54, 1.48 25.3, 1.43 20.92 C1.38 16.54, 5.75 13, 6.86 10.52 C7.98 8.05, 7.9 5.84, 8.12 6.08" stroke="#000000" stroke-width="1" fill="none"></path></g><g stroke-linecap="round" transform="translate(797.419521507998 570.7728404430059) rotate(0 14.330167070105574 13.502441069936879)"><path d="M21.69 2.26 C23.78 3.91, 26.68 8.31, 27.67 11.18 C28.66 14.05, 29.07 16.81, 27.65 19.49 C26.23 22.17, 21.89 26.19, 19.18 27.26 C16.47 28.32, 14.19 27.17, 11.38 25.88 C8.58 24.6, 3.92 21.97, 2.34 19.56 C0.76 17.14, 1.47 14.27, 1.88 11.4 C2.29 8.54, 2.56 4.39, 4.79 2.36 C7.02 0.33, 11.57 -1.3, 15.27 -0.75 C18.98 -0.2, 24.65 3.06, 27.01 5.67 C29.37 8.28, 29.88 14.62, 29.45 14.9 M2.5 5.25 C4.29 3.11, 9.37 2.57, 12.3 1.67 C15.22 0.78, 17.74 -1.44, 20.04 -0.12 C22.35 1.19, 25.31 6.23, 26.13 9.58 C26.96 12.93, 25.79 17.61, 25.02 19.99 C24.24 22.36, 23.56 22.69, 21.49 23.83 C19.42 24.97, 15.99 26.88, 12.59 26.81 C9.19 26.75, 3.28 26.15, 1.12 23.43 C-1.05 20.7, -0.49 13.99, -0.39 10.48 C-0.29 6.96, 1.15 3.36, 1.71 2.33 C2.26 1.31, 2.04 4.1, 2.95 4.33" stroke="none" stroke-width="0" fill="#000000"></path><path d="M7.12 0.12 C9.84 -1.37, 15.87 -0.31, 19.32 0.84 C22.77 1.99, 26.25 4.87, 27.82 7.03 C29.38 9.19, 29.47 11.15, 28.71 13.81 C27.96 16.47, 25.84 21.1, 23.29 22.97 C20.73 24.85, 16.37 25.02, 13.39 25.06 C10.41 25.09, 7.78 24.38, 5.4 23.17 C3.01 21.97, -0.44 20.3, -0.9 17.82 C-1.36 15.34, 0.05 11.59, 2.66 8.32 C5.27 5.05, 12.05 -0.41, 14.77 -1.78 C17.48 -3.16, 19.42 -0.17, 18.94 0.07 M23.09 3.8 C24.52 5.26, 25.48 6.65, 25.72 9.66 C25.95 12.67, 25.88 18.81, 24.51 21.86 C23.13 24.9, 20.42 27.3, 17.46 27.91 C14.49 28.52, 9.64 26.48, 6.73 25.51 C3.82 24.55, 0.72 24.34, 0 22.1 C-0.72 19.87, 1.38 15.14, 2.4 12.11 C3.43 9.07, 4.15 5.72, 6.12 3.91 C8.1 2.1, 10.75 0.91, 14.26 1.27 C17.77 1.63, 25.84 5.44, 27.17 6.04 C28.5 6.65, 22.41 5.07, 22.23 4.91" stroke="#ffffff" stroke-width="1" fill="none"></path></g><g stroke-linecap="round" transform="translate(845.927947617157 453.9741524893407) rotate(0 22.997376805994975 22.55322279112994)"><path d="M10.01 6.05 C10.01 6.05, 10.01 6.05, 10.01 6.05 M10.01 6.05 C10.01 6.05, 10.01 6.05, 10.01 6.05 M6.59 17.31 C6.77 11.6, 12.53 12.53, 15.81 4.55 M1.4 18.6 C6.61 14.16, 11.45 11.87, 16.95 4.09 M2.31 24.2 C6.15 16.59, 14.06 11.49, 26.34 0.85 M1.17 26.38 C7.39 19.73, 16.22 12.55, 25.5 4.02 M-0.18 32.89 C12.69 21.09, 22.73 13.01, 27.32 5.7 M1.62 32.26 C10.26 24.49, 14.96 17.62, 27.05 3.23 M6.98 36.02 C8.05 26.16, 19.23 23.22, 33.63 7.02 M6.21 35.1 C17.02 25.24, 26.35 11.9, 31.76 3.79 M6.96 40.39 C16.98 27.58, 19.74 18.5, 33.71 5.5 M7.78 37.7 C12.71 32.98, 19.22 25.32, 36.87 5.86 M10.14 43.25 C23.06 34.37, 25.44 22.05, 37.73 4.95 M10.37 40.17 C19.26 29.15, 32.01 20.23, 38.74 9.14 M10.23 43.28 C20.47 31.74, 36.81 22.19, 40.16 15.19 M13.32 45.92 C20.5 36.65, 27.98 29.17, 41.49 12.81 M20.25 41.86 C20.43 37.1, 33.37 32.04, 48.53 13.16 M17.14 44.04 C31.03 33.47, 37.66 21.97, 45.54 15.65 M21.99 44.55 C32.21 36.26, 33.23 32.46, 47.46 17.31 M24.94 45.82 C31.32 37.23, 34.61 34.27, 45.71 19.59 M33.99 46.39 C38.32 35.1, 43.12 29.19, 51.4 24.72 M32.34 43.1 C34.08 38.62, 40.47 33.76, 47.82 21.8 M12.64 43.38 C12.64 43.38, 12.64 43.38, 12.64 43.38 M12.64 43.38 C12.64 43.38, 12.64 43.38, 12.64 43.38 M17.13 39.33 C9.67 38.1, 5.77 31.68, 7.06 32.43 M18.85 42.93 C12.89 40.79, 10.78 36.73, 3.86 32.27 M21.44 41.11 C15.25 41.51, 16.37 36.72, 6.81 28.81 M25.69 43.16 C19.44 37.3, 15.67 34.39, 1.64 23.61 M31.42 45.7 C18.43 38.19, 16.18 27.58, 6.02 18.78 M30.03 43.78 C18.48 35.48, 9.2 25.72, 2.16 17.77 M35.08 40.36 C20.77 30.73, 19.57 28.36, 2.72 11.34 M34.89 38.44 C25.74 33.57, 19.88 31, 5.69 15.02 M36.7 35.27 C30.83 27.66, 24.34 20.11, 10.84 8.48 M36.85 38.95 C25.17 30.48, 16.58 22.69, 7.36 13.69 M37.36 35.99 C31.83 24.44, 20.51 18.24, 10.46 9.87 M38.59 35.08 C32.29 26.49, 26.59 20.87, 9.25 7.86 M43.81 35.44 C35.54 27.4, 25.39 13.44, 9.5 1.44 M43.73 31.51 C33.42 22.78, 22.31 14.73, 9.95 7.01 M41.37 25.81 C39.79 22.23, 31.9 10.61, 14.56 6.04 M45.67 26.86 C35.62 20.99, 22.74 8.84, 13.36 3.79 M48.54 20.58 C38.35 14.78, 28.12 8.64, 19.8 -0.57 M44.08 24.73 C35.27 14.87, 24.68 8.45, 17.5 0.97 M49.14 17.72 C42.16 12.69, 34.32 11.36, 21.54 -3.82 M45.06 20.01 C36.45 13.19, 31.9 4.08, 23.09 -1.45 M47.75 14.52 C42.01 9.99, 37.5 4.2, 30.94 4.23 M50.3 18.52 C44.86 10.72, 37.7 7.12, 33.92 3.29" stroke="#000000" stroke-width="0.5" fill="none"></path><path d="M22.54 0.52 C26.92 0.85, 34.28 3.73, 38.25 6.84 C42.22 9.96, 45.89 14.77, 46.36 19.22 C46.84 23.67, 43.85 29.68, 41.1 33.56 C38.36 37.44, 34.61 40.82, 29.9 42.48 C25.19 44.14, 17.48 45.23, 12.82 43.53 C8.16 41.83, 3.75 36.34, 1.94 32.29 C0.13 28.23, 0.67 23.53, 1.97 19.22 C3.26 14.9, 5.41 9.25, 9.71 6.4 C14.01 3.54, 23.66 2.75, 27.78 2.08 C31.9 1.4, 34.53 1.89, 34.44 2.33 M35.65 0.91 C39.36 3.17, 40.96 9.61, 42.47 14.62 C43.99 19.63, 46.04 26.54, 44.72 30.97 C43.4 35.39, 39.14 39.14, 34.57 41.16 C30 43.18, 21.84 43.64, 17.3 43.09 C12.75 42.54, 9.83 41.49, 7.3 37.84 C4.76 34.19, 2 26.52, 2.08 21.17 C2.16 15.82, 4.53 8.77, 7.8 5.73 C11.07 2.68, 16.68 3.55, 21.7 2.9 C26.71 2.24, 35.46 1.15, 37.89 1.81 C40.33 2.48, 36.85 6.01, 36.31 6.89" stroke="#000000" stroke-width="1" fill="none"></path></g><g stroke-linecap="round" transform="translate(854.7097379694177 462.7345406109993) rotate(0 14.330167070105688 14.201985322621596)"><path d="M13.16 0.74 C16.37 0.5, 21.26 0.89, 23.66 2.85 C26.06 4.82, 26.81 9.63, 27.57 12.54 C28.33 15.44, 29.53 18.04, 28.23 20.29 C26.93 22.54, 22.51 24.88, 19.76 26.04 C17.01 27.2, 14.61 28.18, 11.72 27.25 C8.84 26.33, 4.09 23.11, 2.45 20.49 C0.8 17.86, 1.48 14.58, 1.84 11.5 C2.21 8.42, 0.3 2.44, 4.64 2.02 C8.99 1.6, 24.59 5.76, 27.92 8.98 C31.26 12.21, 25.3 21.52, 24.65 21.36 M23.11 5.45 C25.23 6.61, 25.68 7.14, 25.87 9.79 C26.07 12.43, 25.85 18.22, 24.26 21.32 C22.66 24.42, 18.68 27.72, 16.31 28.38 C13.94 29.04, 12.13 26.52, 10.03 25.28 C7.94 24.05, 5.57 22.96, 3.74 20.97 C1.9 18.98, -1.24 16.65, -0.99 13.35 C-0.74 10.06, 3.01 3.68, 5.24 1.21 C7.48 -1.26, 9.56 -1.95, 12.44 -1.46 C15.32 -0.97, 20.29 3.4, 22.5 4.14 C24.72 4.88, 25.67 2.74, 25.72 2.98" stroke="none" stroke-width="0" fill="#000000"></path><path d="M26.91 6.69 C29.17 9.28, 30.3 13.93, 29.86 16.65 C29.42 19.38, 26.83 21.17, 24.25 23.02 C21.68 24.88, 17.74 27.71, 14.41 27.8 C11.08 27.89, 6.61 25.47, 4.25 23.56 C1.9 21.66, 0.92 18.77, 0.27 16.38 C-0.37 14, -1.19 11.59, 0.39 9.24 C1.97 6.89, 6.49 4.03, 9.75 2.29 C13.02 0.56, 16.63 -2.77, 19.95 -1.17 C23.27 0.43, 28.66 8.84, 29.68 11.87 C30.7 14.9, 26.23 16.66, 26.06 16.99 M9.19 -2.42 C11.99 -2.93, 17.09 0.46, 20.09 2.68 C23.1 4.91, 26.22 8.22, 27.22 10.94 C28.22 13.67, 27.32 15.94, 26.11 19.02 C24.89 22.1, 22.01 27.59, 19.92 29.45 C17.83 31.31, 16.32 30.99, 13.55 30.18 C10.77 29.37, 5.74 27.08, 3.28 24.58 C0.81 22.09, -1.74 18.12, -1.24 15.2 C-0.75 12.27, 4.37 9.4, 6.26 7.04 C8.15 4.67, 8.67 2.05, 10.09 0.99 C11.52 -0.07, 14.24 0.74, 14.84 0.68" stroke="#ffffff" stroke-width="1" fill="none"></path></g><g stroke-linecap="round" transform="translate(850.1163299717958 524.5016670278403) rotate(0 22.997376805994975 22.55322279112994)"><path d="M4.57 10.59 C4.57 10.59, 4.57 10.59, 4.57 10.59 M4.57 10.59 C4.57 10.59, 4.57 10.59, 4.57 10.59 M-2.12 19.95 C5.51 18.54, 9.69 9.7, 16.75 3.33 M-1.36 21.56 C3.85 19.55, 6.13 15.52, 18.3 0.24 M-2.76 25.19 C7.14 18.14, 20.13 6.6, 22.72 2.43 M-0.78 27.3 C7.85 20.88, 13.71 16.38, 24.04 2.91 M4.65 29.03 C13.27 23.03, 16.81 16.53, 25.48 4.47 M5.07 28.72 C9.28 22.89, 12.69 18.51, 26.77 3.53 M2.17 31.76 C14.94 26.68, 22.93 17.29, 35.91 0.89 M6.32 35.39 C13 25, 20.55 14.87, 31.37 1.43 M8.59 35.41 C15.34 21.72, 26.53 12.02, 31.92 4.53 M5.68 39.62 C17.07 26.76, 29.48 13.05, 35.15 3.89 M12.7 44.13 C16.69 29.88, 27 15.48, 39.84 5.94 M7.69 39.86 C17.43 35.03, 21.48 27.91, 39.03 7.48 M10.06 41.85 C26.86 32.6, 30.04 25.94, 38.49 11.83 M13.43 43.41 C24.06 32.06, 31.24 22.63, 39.65 11.58 M13.75 43.62 C30.87 33.9, 40.71 20.56, 47.86 10.16 M19.18 44.84 C24.77 35.32, 35.46 26.31, 43.95 12.54 M22.37 45.48 C24.21 41.11, 35.17 30.09, 41.9 15.77 M22.37 44.96 C25.82 41.32, 30.39 34.99, 45.88 20.36 M26.03 48.12 C31.51 40.68, 41.55 33.59, 43.06 28.75 M23.52 49.46 C30.8 43.18, 35.05 34.37, 42.93 26.12 M7.84 39.75 C7.84 39.75, 7.84 39.75, 7.84 39.75 M7.84 39.75 C7.84 39.75, 7.84 39.75, 7.84 39.75 M16.43 44.96 C12.64 38, 13.27 37.84, -1.54 29.4 M18.71 46.67 C15.91 41.97, 11.18 39.35, -1.23 27.6 M20.7 47.1 C21.63 41.74, 17.12 37.91, -3.48 25.28 M24.37 42.29 C19.3 38.7, 11.86 33.5, -0.11 22.28 M24.98 45.02 C24.83 36.9, 21.31 33.27, 4.69 15.97 M27 43.37 C17.84 34.23, 8.88 24.67, 1.97 19.97 M28.39 37.27 C24.96 33.25, 9.44 18.02, 0.24 18.4 M31.01 38.81 C24.36 35.56, 20.4 28.38, 3.41 13.72 M38.89 35.63 C31.06 26.61, 22.21 18.6, 4.64 11.75 M34.88 39.36 C25.79 31.75, 18.36 24.41, 3.41 11.04 M38.83 31.27 C28.27 25.6, 25.99 23.78, 4.94 9.32 M38.58 32.89 C33.81 27.81, 26.51 23.14, 7.32 8.85 M43.42 34.41 C31.95 19.98, 19.7 11.53, 11.59 5.35 M42.02 31.09 C32.46 24.54, 24.05 19.96, 10.42 5.35 M46.52 29.22 C40.86 18.85, 31.49 20.62, 16.36 2.85 M44.76 29.44 C32.77 17.94, 23.52 13.03, 15.72 2.88 M46.04 21.62 C35.11 14.73, 24.29 3.75, 20.7 1.57 M43.37 22.08 C33.73 16.42, 24.17 7.24, 16.33 1.01 M44.88 15.28 C33.57 10.93, 25.33 0.02, 22.39 -0.01 M42.26 18.85 C40.39 11.88, 32.78 7.33, 21.95 -2.44 M41.68 10.27 C38.02 4.85, 30.37 4.19, 29.63 -0.17 M44.44 11 C38.8 9.33, 36.1 6.17, 27.03 -1.81" stroke="#000000" stroke-width="0.5" fill="none"></path><path d="M4.62 10.53 C7.41 6.6, 13.7 2.31, 18.19 0.84 C22.68 -0.62, 27.35 -0.15, 31.56 1.73 C35.78 3.6, 41.53 7.57, 43.46 12.08 C45.39 16.59, 44.57 24.12, 43.13 28.79 C41.69 33.46, 38.34 37.25, 34.82 40.1 C31.31 42.96, 26.58 46.03, 22.03 45.93 C17.49 45.83, 11.53 42.98, 7.57 39.51 C3.6 36.05, -4.41 31.99, -1.76 25.15 C0.88 18.31, 16.39 0.54, 23.45 -1.53 C30.52 -3.6, 40.34 12.17, 40.62 12.76 M10.63 0.53 C14.87 -1.31, 24.13 -1.14, 29.56 0.1 C34.98 1.34, 40.5 4.13, 43.18 7.96 C45.87 11.79, 45.83 17.68, 45.66 23.09 C45.48 28.49, 45.23 36.73, 42.13 40.4 C39.04 44.06, 32.23 45.18, 27.09 45.09 C21.95 44.99, 15.46 42.13, 11.28 39.81 C7.11 37.5, 3.19 35.99, 2.02 31.21 C0.85 26.42, 2.27 15.49, 4.27 11.1 C6.27 6.71, 12.48 6.05, 14.04 4.86 C15.6 3.66, 13.77 3.71, 13.64 3.92" stroke="#000000" stroke-width="1" fill="none"></path></g><g stroke-linecap="round" transform="translate(859.7632887611745 533.7393143125444) rotate(0 13.859445703813037 13.731263956329087)"><path d="M11.35 0.21 C14.04 -0.48, 16.69 1.58, 19.44 2.86 C22.19 4.14, 26.59 5.62, 27.87 7.89 C29.14 10.16, 27.9 13.67, 27.11 16.49 C26.32 19.31, 25.59 23.21, 23.13 24.81 C20.67 26.41, 15.31 26.5, 12.35 26.07 C9.39 25.65, 7.46 24.5, 5.39 22.28 C3.32 20.06, 0.2 15.25, -0.05 12.73 C-0.3 10.2, 1.78 9.34, 3.91 7.12 C6.04 4.9, 10.75 0.47, 12.72 -0.59 C14.68 -1.65, 15.23 0.62, 15.7 0.75 M17.56 -1.14 C19.96 -0.39, 23.34 4.57, 24.56 7.83 C25.78 11.09, 25.2 15.85, 24.88 18.43 C24.56 21.01, 24.4 21.76, 22.63 23.3 C20.86 24.84, 17.64 27.33, 14.25 27.67 C10.86 28.02, 4.76 27.87, 2.31 25.37 C-0.15 22.88, -0.1 16.29, -0.45 12.71 C-0.8 9.13, -1.41 5.92, 0.21 3.91 C1.82 1.91, 5.59 1.23, 9.23 0.66 C12.87 0.09, 20.28 0.19, 22.05 0.49 C23.82 0.79, 20.53 2.54, 19.84 2.48" stroke="none" stroke-width="0" fill="#000000"></path><path d="M9.46 1.87 C11.91 0.27, 15.26 -1.69, 17.8 -1.1 C20.34 -0.51, 23.29 3.02, 24.7 5.4 C26.11 7.77, 26.46 10.28, 26.25 13.15 C26.05 16.02, 25.56 19.97, 23.46 22.61 C21.37 25.25, 16.49 28.39, 13.7 28.97 C10.91 29.55, 8.72 28.35, 6.74 26.07 C4.75 23.8, 2.51 18.47, 1.8 15.32 C1.09 12.17, 1.46 9.89, 2.5 7.16 C3.53 4.44, 6.33 -0.14, 8.03 -1.04 C9.73 -1.95, 12.41 1.37, 12.69 1.73 M11.78 0.67 C14.97 1.07, 19.41 2.64, 21.75 4.3 C24.09 5.96, 25.31 7.51, 25.81 10.63 C26.3 13.75, 25.52 20.04, 24.72 23.02 C23.91 26, 23.49 27.63, 20.98 28.5 C18.46 29.37, 12.99 29.26, 9.64 28.22 C6.28 27.17, 1.98 24.6, 0.85 22.22 C-0.27 19.85, 2.6 16.93, 2.9 13.95 C3.19 10.97, 0.42 6.62, 2.62 4.33 C4.82 2.05, 14.08 1.06, 16.11 0.23 C18.13 -0.6, 14.89 -1.2, 14.77 -0.63" stroke="#ffffff" stroke-width="1" fill="none"></path></g><g stroke-linecap="round" transform="translate(805.6199727805757 469.66007242162453) rotate(0 3.8148569106409695 8.994164216843245)"><path d="M0 0 C0 0, 0 0, 0 0 M0 0 C0 0, 0 0, 0 0 M-0.28 5.17 C1.61 5.48, 3.19 3.85, 6.41 1.14 M-0.24 6.7 C1.4 4.76, 3.78 1.81, 5.45 -0.15 M-0.62 14.77 C1.12 9.15, 4.56 2.74, 9.14 -0.33 M0.35 10.88 C2.9 8.52, 7.88 4.48, 9.95 2.71 M-0.57 19.61 C4.23 15.74, 4.23 12.92, 7.05 6.46 M0.43 18.93 C0.81 15.13, 2.51 12.89, 8.76 6.65 M4.86 17.13 C7.46 16.21, 8.08 15.95, 9.16 13.36 M5.79 18.52 C6.73 16.68, 7.16 15.79, 8.96 13.73 M0.15 18.12 C0.15 18.12, 0.15 18.12, 0.15 18.12 M0.15 18.12 C0.15 18.12, 0.15 18.12, 0.15 18.12 M7.29 17.88 C3.89 17.01, 1.82 13.63, 0.73 11.04 M5.28 16.96 C3.53 16.74, 1.73 15, -0.61 13.16 M9.46 18.12 C8.34 11.9, 5.99 13.27, 1 6.82 M10.1 16.38 C7.22 12.44, 5.79 11.71, -0.22 6.53 M11.88 11.84 C5.81 7.75, 7.39 5, 1.33 3.18 M10.68 10.74 C5.83 7.26, 2.77 5, 0.69 1.35 M10.16 3.85 C8.16 2.95, 5.73 -1.72, 1.67 -3.66 M10.74 4.99 C7.39 3.11, 4.05 -0.26, 1.76 -0.87" stroke="#000000" stroke-width="0.5" fill="none"></path><path d="M-0.65 0.4 C2.43 1.15, 5.1 0.29, 6.4 -0.46 M-0.03 -0.36 C1.6 0.74, 4.49 0.6, 8.15 -0.69 M4.55 2.81 C9.63 5.84, 5.94 12.7, 4.17 14.88 M8.46 -0.97 C7.56 3.61, 9.41 10.03, 8.85 18.03 M9.03 19.08 C3.97 18.46, 3.71 18.16, 0.7 17.52 M7.15 17.82 C4.61 18.26, 2.28 17.93, -0.29 18.5 M-2.37 21.18 C-0.75 11.93, -2.2 8.07, -1.38 -0.12 M-1.21 17.46 C-1.58 14.13, 1.16 9.07, 0.86 -0.6" stroke="#000000" stroke-width="1" fill="none"></path></g><g stroke-linecap="round" transform="translate(807.4150313688677 544.6339339306162) rotate(0 3.8148569106409695 8.596723720231694)"><path d="M0 0 C0 0, 0 0, 0 0 M0 0 C0 0, 0 0, 0 0 M-1.49 6.51 C2.07 4.91, 3.68 4.86, 5.77 1.49 M0.04 6.1 C1.85 4.81, 2.63 3.42, 4.47 0.88 M2.86 9.49 C3.04 7.41, 2.42 7.47, 7.51 3.8 M-1.03 11.28 C3.38 9.59, 6.1 6.38, 10.55 0.75 M1.61 19.59 C2.89 14.7, 5.14 10.23, 7.74 5.86 M0.98 16.82 C2.93 12.66, 6.31 9.79, 7.93 7.52 M5.41 18.07 C6.93 16.29, 9 14.2, 9.32 12.66 M6.56 17.63 C6.95 15.98, 8.13 14.3, 9.63 13.23 M-0.21 17.01 C-0.21 17.01, -0.21 17.01, -0.21 17.01 M-0.21 17.01 C-0.21 17.01, -0.21 17.01, -0.21 17.01 M6.34 17.36 C5.28 15.63, 1.61 14.9, -1.29 12.61 M5.42 17.11 C4.72 15.36, 2.56 13.04, 0.83 11.36 M11.67 15.46 C4.66 12.6, 4.89 10.55, -0.91 5.16 M9.93 14.65 C5.67 13.36, 4.37 9.86, -1.21 5.29 M11.4 8.19 C6.92 10.17, 3.83 7.91, 1.45 3.01 M10.29 9.91 C5.89 7.33, 3 4.58, -0.38 2.44 M8.14 5.58 C7.33 4.27, 3.28 0.37, 0.32 -1.68 M9.17 4.39 C7.72 2.53, 5.17 1.67, 2.85 -1.31" stroke="#000000" stroke-width="0.5" fill="none"></path><path d="M0.4 0.13 C4.05 0.56, 6.25 -1.16, 7.17 -0.45 M-0.36 -0.46 C2.35 0.37, 3.97 0.53, 6.94 0.43 M10.31 2.02 C6.82 3.12, 7.25 5.95, 4.65 15.36 M6.71 -0.15 C6.77 7.16, 8.66 12.24, 7.67 18.01 M8.72 16.19 C6.07 18.72, 3.8 18.03, -0.47 18.18 M7.46 16.96 C5.05 17.31, 1.86 16.8, 0.51 17.66 M3.05 16.38 C0.42 10.3, 2.94 6.48, -0.11 -2.85 M-0.51 15.87 C-0.25 12.4, -1.35 5.84, -0.57 0.94" stroke="#000000" stroke-width="1" fill="none"></path></g><g stroke-linecap="round" transform="translate(840.9155481638267 523.9858993821963) rotate(303.0460002072582 3.8148569106409695 8.596723720231694)"><path d="M0 0 C0 0, 0 0, 0 0 M0 0 C0 0, 0 0, 0 0 M-0.15 7.34 C0.85 6.46, 3.38 4.7, 6.12 0.12 M-0.56 6.92 C1.07 4.79, 2.61 3.08, 5.51 -0.36 M-2.42 12.91 C0 7.56, 4.56 4.82, 11.65 1.37 M-0.62 12.63 C3.86 9.28, 6.83 6.4, 8.59 1.28 M2.43 17.66 C3.13 14.2, 4.25 9.9, 7.05 10.07 M-0.33 16.75 C1.6 14.12, 4.83 11.14, 8.71 8.95 M6.95 16.78 C7.56 16.56, 7.85 15.05, 8.59 13.89 M6.51 16.94 C7.03 15.92, 7.55 15.33, 9.17 13.13 M-0.21 17.01 C-0.21 17.01, -0.21 17.01, -0.21 17.01 M-0.21 17.01 C-0.21 17.01, -0.21 17.01, -0.21 17.01 M6.27 18.31 C4.48 15.26, 3.9 13.1, 0.74 13.01 M6.03 18.02 C4.33 16.2, 1.91 14.38, -0.51 12.06 M10.11 12.83 C7.93 14.48, 6.48 10.93, -1.46 5.8 M9.3 13.62 C8.06 13.13, 4.66 10.05, -1.33 5.38 M8.2 9.12 C8.68 5.67, 5.27 6.06, 1.73 3.47 M9.91 9.74 C6.58 7.44, 3.4 3.09, 1.17 1.46 M10.83 4.46 C8.72 0.21, 4.06 -2.3, 2.59 -3.9 M9.64 4.24 C6.05 0.72, 3.68 -0.04, 2.96 -2.18" stroke="#000000" stroke-width="0.5" fill="none"></path><path d="M0.13 1 C2.07 0.11, 1.92 -0.5, 7.18 -1.07 M-0.46 0.59 C1.92 0.53, 3.62 -0.62, 8.06 -0.24 M9.65 -0.54 C5.83 3.7, 4.03 4.67, 5.79 17.96 M7.48 -0.79 C9.41 5.89, 8.95 9.61, 8.45 16.48 M6.62 17.61 C6.41 17.42, 3.13 16.84, 0.98 18.34 M7.39 17.47 C5.58 17.11, 2.82 17.67, 0.47 16.99 M-0.81 17.61 C-1.97 14.96, -1.1 6.73, -2.85 1.86 M-1.32 17.23 C1.52 9.51, 1.05 3.38, 0.94 -1.54" stroke="#000000" stroke-width="1" fill="none"></path></g><g stroke-linecap="round" transform="translate(839.1873968246033 486.26279175705014) rotate(233.50826307900493 3.8148569106409695 8.596723720231694)"><path d="M0 0 C0 0, 0 0, 0 0 M0 0 C0 0, 0 0, 0 0 M0.68 6.39 C2.66 6, 3.75 3.91, 4.75 -0.78 M0.26 6.53 C1.09 5.08, 2.35 3.31, 4.27 -0.06 M1 9.57 C0.76 9.14, 3.14 8.76, 9.22 2.38 M0.72 12.74 C3.8 9.44, 7.33 4.75, 9.12 1.84 M0.5 17.48 C2.65 12.9, 3.98 9.98, 11.26 7.17 M-0.41 16.5 C2.53 14.19, 5.12 10.78, 10.13 7.7 M5.66 17.7 C7.34 16.07, 7.71 14.53, 9.83 13.28 M5.82 17.28 C6.97 15.53, 8.56 14.35, 9.07 13.34 M-0.21 17.01 C-0.21 17.01, -0.21 17.01, -0.21 17.01 M-0.21 17.01 C-0.21 17.01, -0.21 17.01, -0.21 17.01 M7.22 17.24 C3.15 16.18, -0.02 13.73, 1.14 12.49 M6.94 17.34 C5.63 15.64, 4.11 14.1, 0.19 11.25 M7.49 15.24 C7.81 13.43, 3.23 8.92, -0.82 4.61 M8.28 15.7 C6.58 11.86, 2.4 8.43, -1.25 6.53 M9.13 11.89 C4.3 8.07, 3.51 4.75, 2.19 3.33 M9.75 10.4 C6.72 7.58, 1.76 4.35, 0.18 2.25 M9.72 6.25 C5.7 2.4, 3.24 0.88, 0.36 -0.47 M9.49 3.85 C5.79 1.97, 4.75 0.32, 2.09 -2.55" stroke="#000000" stroke-width="0.5" fill="none"></path><path d="M1 0.5 C2.12 -1.24, 3.47 -0.46, 6.56 -1.48 M0.59 0.37 C2.71 0.61, 3.83 0.52, 7.39 -0.59 M7.09 -1.51 C7.78 0.38, 4.92 5.54, 8.39 16.45 M6.84 1.62 C8.55 7.12, 7.49 12.72, 6.92 17.9 M8.04 18.58 C4.75 17.79, 1.18 18.08, 1.14 17.14 M7.91 17.4 C5.77 16.85, 4.51 17.61, -0.2 17.2 M0.42 14.99 C2.64 11.84, -0.42 6.29, 1.86 2.93 M0.04 18.48 C-0.96 14.01, -0.47 10.13, -1.54 -1.54" stroke="#000000" stroke-width="1" fill="none"></path></g><g transform="translate(776.7767011342131 382.3752102819462) rotate(0 56.40999932709775 49.142453401520754)"><text x="112.81999865419552" y="35.142453401520754" font-family="Virgil, Segoe UI Emoji" font-size="38.67311529140273px" fill="#000000" text-anchor="end" style="white-space: pre;" direction="ltr">Kafka</text><text x="112.81999865419552" y="84.28490680304151" font-family="Virgil, Segoe UI Emoji" font-size="38.67311529140273px" fill="#000000" text-anchor="end" style="white-space: pre;" direction="ltr"></text></g><g stroke-linecap="round" transform="translate(133.02673596183675 473.7274512545819) rotate(0 49.58406824345351 75.24106831580929)"><path d="M1.88 1.63 L99.37 -1.14 L99.09 151.56 L0.8 151.8" stroke="none" stroke-width="0" fill="#fff"></path><path d="M1.3 0.03 C29.19 -2.12, 56.07 -1.88, 98.92 -1.11 M-0.96 -0.68 C23.8 0.19, 46.37 -0.4, 99.84 -0.62 M97.61 -0.1 C100.26 49.24, 97.49 95.49, 99.43 151.73 M99.36 0.28 C99.64 34.66, 98.57 68.26, 99.75 150.86 M97.99 150.46 C75.29 152, 55.58 152.32, -1.83 149.9 M99.99 151.41 C71.19 150.31, 44.77 150.94, -0.69 150.52 M-0.89 152.45 C1.69 111.25, -0.92 75.97, 1.04 -1.84 M-0.44 151.31 C-0.47 100.65, -1.71 52.14, 0.6 -0.92" stroke="#000000" stroke-width="2" fill="none"></path></g><g stroke-linecap="round" transform="translate(122.43703732766029 463.87766132349606) rotate(0 49.58406824345351 75.24106831580929)"><path d="M1.63 0.2 L98.03 -0.08 L100.24 151.28 L1.31 149.95" stroke="none" stroke-width="0" fill="#fff"></path><path d="M0.03 1.25 C27.04 -0.45, 56.18 -0.89, 98.06 -1.25 M-0.68 0.23 C36.55 0.2, 72.69 1.63, 98.55 0.23 M99.06 1.23 C98.57 42.16, 96.16 87.65, 100.42 149.08 M99.45 0.29 C98.75 46.22, 97.74 94.59, 99.55 149.71 M99.15 148.72 C76.47 150.53, 53.35 148.06, -0.58 150.02 M100.09 149.98 C67.35 151.86, 36.37 150.61, 0.04 149.97 M1.97 151.2 C-1.38 113.16, 0.77 80.66, -1.84 0.5 M0.83 151.42 C-1.53 90.94, -1.15 32.59, -0.92 0.94" stroke="#000000" stroke-width="2" fill="none"></path></g><g stroke-linecap="round" transform="translate(109.25491783006177 452.2967199188295) rotate(0 49.58406824345351 75.24106831580929)"><path d="M0.2 -1.14 L99.09 1.07 L99.97 151.8 L-0.53 150.98" stroke="none" stroke-width="0" fill="#fff"></path><path d="M1.25 -1.87 C32.4 -1.65, 64.18 -1.12, 97.92 1.41 M0.23 -0.18 C25.3 -0.09, 52.79 0.06, 99.4 -0.1 M100.4 0.59 C96.47 31.47, 98.26 67.84, 97.77 150.73 M99.46 0.04 C98.67 39.61, 100.03 81.55, 98.4 149.85 M97.4 151.24 C62.46 151.56, 22.64 149.89, -0.46 150.86 M98.66 150.26 C69.5 151.81, 38.03 151.43, -0.51 149.84 M0.72 148.68 C-1.22 109.92, 1.71 66.83, 0.5 1.87 M0.94 149.56 C0.37 98.71, 1.26 47.09, 0.94 0.82" stroke="#000000" stroke-width="2" fill="none"></path></g><g stroke-linecap="round"><g transform="translate(125.92487289537013 522.3552104458513) rotate(0 32.444852675602405 -3.976182950884265)"><path d="M0.75 -3.05 C10.09 -3.18, 46.09 -2.05, 56.83 -2.69 C67.58 -3.34, 63.91 -6.48, 65.21 -6.93 M-0.32 -1.03 C8.81 -1.04, 45.16 -0.85, 55.94 -1.67 C66.72 -2.49, 62.94 -4.99, 64.36 -5.97" stroke="#000000" stroke-width="1" fill="none"></path></g></g><g stroke-linecap="round"><g transform="translate(128.1675396706559 478.22659132526303) rotate(0 31.072948437141672 -3.73368829838455)"><path d="M-1.12 -1.64 C2.65 -2.44, 11.9 -5.61, 22.63 -5.83 C33.37 -6.05, 56.25 -3.49, 63.27 -2.96 M0.49 -2.62 C4.62 -3.3, 14.55 -4.47, 24.83 -4.37 C35.11 -4.27, 55.38 -2.46, 62.16 -2.03" stroke="#000000" stroke-width="1" fill="none"></path></g></g><g stroke-linecap="round"><g transform="translate(127.94754168610037 571.865476148477) rotate(0 33.05033496976737 -1.136374196609836)"><path d="M0.11 -2.21 C6.14 -2.19, 28.26 -3.1, 36.91 -2.25 C45.56 -1.4, 46.96 3.35, 52.04 2.87 C57.11 2.39, 64.88 -4.04, 67.37 -5.14 M-1.29 -0.11 C4.5 0.15, 26.58 -1.24, 35.88 -1.06 C45.19 -0.88, 49.29 1.56, 54.54 0.97 C59.79 0.37, 65.02 -3.95, 67.39 -4.64" stroke="#000000" stroke-width="1" fill="none"></path></g></g><g stroke-linecap="round"><g transform="translate(123.55321046424748 588.2272859698394) rotate(0 37.8154596541582 -2.7543498352393954)"><path d="M-0.98 -1.58 C1.47 -2, 9.52 -3.57, 13.6 -3.82 C17.68 -4.07, 15.12 -3.47, 23.48 -3.06 C31.84 -2.66, 54.9 -1.09, 63.75 -1.39 C72.61 -1.69, 74.67 -4.17, 76.61 -4.87 M0.7 -2.71 C3.65 -2.99, 12.22 -2.8, 15.96 -2.67 C19.7 -2.55, 15.25 -2.3, 23.16 -1.98 C31.06 -1.65, 54.7 -0.28, 63.39 -0.72 C72.08 -1.15, 73.13 -4.14, 75.29 -4.59" stroke="#000000" stroke-width="1" fill="none"></path></g></g><g stroke-linecap="round"><g transform="translate(123.67170190583819 497.7088119803263) rotate(0 31.856196950051682 -0.10147979214727343)"><path d="M-0.15 -1.03 C3.96 -0.87, 13.85 -0.71, 24.78 -0.35 C35.7 0.01, 58.69 0.64, 65.4 1.12 M-1.69 1.23 C2.8 1.15, 16.08 -2.13, 27.1 -2.03 C38.11 -1.93, 58.11 0.86, 64.4 1.83" stroke="#000000" stroke-width="1" fill="none"></path></g></g><g stroke-linecap="round"><g transform="translate(124.22288830832991 546.0984921875502) rotate(0 32.923956107983116 0.518039227184488)"><path d="M-0.66 -1.12 C1.53 -0.83, 8.03 1.34, 12.2 1.19 C16.37 1.04, 15.39 -2.16, 24.37 -2.02 C33.36 -1.87, 59.36 1.5, 66.12 2.06 M1.19 1.1 C3.39 1.57, 7.45 2.86, 11.7 2.49 C15.94 2.12, 17.52 -1.22, 26.66 -1.13 C35.8 -1.03, 59.85 2.66, 66.51 3.05" stroke="#000000" stroke-width="1" fill="none"></path></g></g><g transform="translate(120.91289791875299 405.9082161361957) rotate(0 39.01400125464975 55.95947654707339)"><text x="78.0280025092995" y="39.95947654707337" font-family="Virgil, Segoe UI Emoji" font-size="44.0378356869856px" fill="#000000" text-anchor="end" style="white-space: pre;" direction="ltr">CSV</text><text x="78.0280025092995" y="95.91895309414674" font-family="Virgil, Segoe UI Emoji" font-size="44.0378356869856px" fill="#000000" text-anchor="end" style="white-space: pre;" direction="ltr"></text></g><g stroke-linecap="round"><g transform="translate(255.3651178623737 600.2142481122901) rotate(0 89.572623558455 -98.17634720455175)"><path d="M-0.64 -49.48 C26.56 -49.82, 130.63 -34.01, 160.56 -51.95 C190.48 -69.89, 175.8 -139.63, 178.91 -157.13 M4.2 -44.09 C31.4 -43.9, 130.09 -30.53, 159.06 -48.95 C188.03 -67.37, 174.39 -136.98, 178.04 -154.63" stroke="#000000" stroke-width="2" fill="none"></path></g><g transform="translate(255.3651178623737 600.2142481122901) rotate(0 89.572623558455 -98.17634720455175)"><path d="M185.99 -124.4 C184.73 -129.71, 182.73 -135.01, 176.68 -156.22 M189.63 -125.31 C187.02 -132.35, 183.13 -142.78, 176.08 -156.42" stroke="#000000" stroke-width="2" fill="none"></path></g><g transform="translate(255.3651178623737 600.2142481122901) rotate(0 89.572623558455 -98.17634720455175)"><path d="M165.47 -124.58 C168.39 -129.75, 170.58 -135.02, 176.68 -156.22 M169.11 -125.48 C171.82 -132.22, 173.26 -142.6, 176.08 -156.42" stroke="#000000" stroke-width="2" fill="none"></path></g></g><g stroke-linecap="round"><g transform="translate(469.46233352715365 196.37580194607733) rotate(0 104.93495899719983 -68.47284143900944)"><path d="M-1.04 -30.85 C0.46 -42.45, -27.94 -89.66, 8.02 -101.2 C43.98 -112.74, 179.78 -100.33, 214.73 -100.1 M3.59 -33.35 C6.09 -44.64, -22.58 -88.36, 13.51 -98.98 C49.61 -109.59, 185.98 -97.35, 220.14 -97.05" stroke="#000000" stroke-width="2" fill="none"></path></g><g transform="translate(469.46233352715365 196.37580194607733) rotate(0 104.93495899719983 -68.47284143900944)"><path d="M191.4 -90.55 C195.44 -94.03, 206.58 -92.11, 220.34 -96.99 M189.65 -89.57 C202.39 -90.12, 210.48 -93.35, 220.46 -97.77" stroke="#000000" stroke-width="2" fill="none"></path></g><g transform="translate(469.46233352715365 196.37580194607733) rotate(0 104.93495899719983 -68.47284143900944)"><path d="M192.39 -111.05 C196.06 -109.1, 206.94 -101.75, 220.34 -96.99 M190.64 -110.07 C202.84 -103.95, 210.61 -100.53, 220.46 -97.77" stroke="#000000" stroke-width="2" fill="none"></path></g></g><g stroke-linecap="round"><g transform="translate(777.6736514292105 615.3666194437458) rotate(180 -183.8584521838514 -112.63870636350515)"><path d="M-88.24 -50.61 C-90.31 -70.22, -67.81 -149.33, -100.84 -167.73 C-133.88 -186.13, -256.36 -162.48, -286.45 -161.02 M-83.49 -52.47 C-85.67 -71.73, -69.18 -146.26, -102.09 -163.95 C-135 -181.64, -249.96 -159.96, -280.95 -158.64" stroke="#000000" stroke-width="2" fill="none"></path></g><g transform="translate(777.6736514292105 615.3666194437458) rotate(180 -183.8584521838514 -112.63870636350515)"><path d="M-252.46 -169.33 C-260.59 -172.07, -269.97 -161.31, -279.96 -162.46 M-252.25 -170.5 C-260.83 -166.96, -271 -162.47, -280.79 -158.19" stroke="#000000" stroke-width="2" fill="none"></path></g><g transform="translate(777.6736514292105 615.3666194437458) rotate(180 -183.8584521838514 -112.63870636350515)"><path d="M-250.21 -148.93 C-259.18 -157.07, -269.15 -151.69, -279.96 -162.46 M-250.01 -150.1 C-259.5 -152.73, -270.35 -154.43, -280.79 -158.19" stroke="#000000" stroke-width="2" fill="none"></path></g></g><g stroke-linecap="round" transform="translate(712.676177018146 247.64366179475985) rotate(0 148.4996192790028 24.88158514515206)"><path d="M12.84 -1.05 L289.22 -1.64 L294.05 1.43 L294.36 8.72 L295.88 38.76 L292.11 45.5 L284.15 48.55 L8.48 50.08 L5.57 46.31 L1.63 41.4 L-0.08 10.67 L5.04 3.23 L11.73 -0.28" stroke="none" stroke-width="0" fill="#ffecb0"></path><path d="M12.44 0 M12.44 0 C92.18 1.77, 168.75 1.68, 284.56 0 M12.44 0 C90.46 -0.96, 168.04 0.31, 284.56 0 M284.56 0 C294.63 -1.26, 298.38 3.45, 297 12.44 M284.56 0 C291.91 -0.13, 299.27 4.27, 297 12.44 M297 12.44 C296.78 18.65, 295.27 26.08, 297 37.32 M297 12.44 C296.09 20.15, 296.55 29.31, 297 37.32 M297 37.32 C298.57 46.07, 292.13 48.63, 284.56 49.76 M297 37.32 C296.61 47.15, 294.35 51.23, 284.56 49.76 M284.56 49.76 C193.01 51.92, 100.64 50.34, 12.44 49.76 M284.56 49.76 C217.24 48.79, 149.07 49.61, 12.44 49.76 M12.44 49.76 C5.17 48.93, 0.74 47.45, 0 37.32 M12.44 49.76 C2.55 47.58, 0.54 44.19, 0 37.32 M0 37.32 C-1 29.88, 0.77 26.14, 0 12.44 M0 37.32 C-0.61 28.43, 0.75 18.48, 0 12.44 M0 12.44 C0.13 4.52, 6.15 0.28, 12.44 0 M0 12.44 C0.39 1.9, 6.06 -0.72, 12.44 0" stroke="#ffd754" stroke-width="1" fill="none"></path></g><g transform="translate(737.9527079592541 252.77795714217143) rotate(0 108.21514809161368 17.77256081796577)"><text x="216.43029618322737" y="24.54512163593153" font-family="Virgil, Segoe UI Emoji" font-size="28.43609730874519px" fill="#000000" text-anchor="end" style="white-space: pre;" direction="ltr">DB:Spring-batch</text></g><g stroke-linecap="round" transform="translate(715.835743385784 311.6248807394364) rotate(0 148.4996192790028 24.88158514515206)"><path d="M11.03 1.18 L286.05 -0.21 L292.01 2.66 L296.35 5.99 L296.39 38.74 L295.47 46.92 L285.97 50.79 L8.12 48.53 L5.85 46.69 L-0.41 40.89 L0.71 13.98 L2.94 1.47 L14.34 0.21" stroke="none" stroke-width="0" fill="#ffecb0"></path><path d="M12.44 0 M12.44 0 C83.42 1.63, 154.7 1.88, 284.56 0 M12.44 0 C67.26 -0.72, 123.88 -0.61, 284.56 0 M284.56 0 C292.78 -0.2, 295.84 3.64, 297 12.44 M284.56 0 C293.3 -0.84, 297.65 4.55, 297 12.44 M297 12.44 C298.46 19.69, 297.57 27.88, 297 37.32 M297 12.44 C298.01 18.07, 296.31 24.98, 297 37.32 M297 37.32 C295.25 46.41, 291.9 48.25, 284.56 49.76 M297 37.32 C295.72 45.47, 292.42 51.18, 284.56 49.76 M284.56 49.76 C188.19 49.65, 90.51 52.6, 12.44 49.76 M284.56 49.76 C203.45 47.81, 124 47.67, 12.44 49.76 M12.44 49.76 C4.89 51.37, -0.63 44.19, 0 37.32 M12.44 49.76 C6.04 51.62, 0.98 47.35, 0 37.32 M0 37.32 C-2.09 32.6, -2.01 26.73, 0 12.44 M0 37.32 C0.69 27.64, 0.08 18.02, 0 12.44 M0 12.44 C-0.33 3.85, 2.36 -1.29, 12.44 0 M0 12.44 C0.47 5.04, 2.44 0.67, 12.44 0" stroke="#ffd754" stroke-width="1" fill="none"></path></g><g transform="translate(733.6083042037488 315.57433869898426) rotate(0 132.30684164485615 35.54512163593154)"><text x="264.6136832897123" y="24.54512163593153" font-family="Virgil, Segoe UI Emoji" font-size="28.436097308745204px" fill="#000000" text-anchor="end" style="white-space: pre;" direction="ltr">DB:data_migration</text><text x="264.6136832897123" y="60.09024327186306" font-family="Virgil, Segoe UI Emoji" font-size="28.436097308745204px" fill="#000000" text-anchor="end" style="white-space: pre;" direction="ltr"></text></g><g stroke-linecap="round" transform="translate(10 645.3171920641446) rotate(0 145.76569544445192 33.00355368553625)"><path d="M-0.33 1.16 L291.43 1.66 L288.01 64.58 L-0.78 66.05" stroke="none" stroke-width="0" fill="#228be6"></path><path d="M0.41 -0.63 C108.87 2.45, 216.03 3.99, 290.98 -0.38 M-1.23 1.02 C83.03 -3.36, 163.23 -2.46, 291.67 -0.88 M287.76 -0.39 C289.76 17.48, 293.64 34.27, 293.67 63.04 M292.95 -1.12 C292.43 26.46, 290.35 51.84, 290.81 65.89 M292.51 67.6 C183.83 64.65, 69.8 67.92, 2.18 64.16 M290.9 66.6 C196.3 62.65, 97.98 64.27, 0.7 64.62 M0.18 68.01 C0 40.42, 0.77 17.43, 0.53 -2.35 M-1.91 64.51 C-2.07 48.62, -0.29 31.9, -0.42 -0.35" stroke="#000000" stroke-width="2" fill="none"></path></g><g transform="translate(23.751480702306793 654.4848458656843) rotate(0 126.05523977114542 41.25444210692035)"><text x="252.11047954229085" y="29.254442106920344" font-family="Virgil, Segoe UI Emoji" font-size="33.00355368553625px" fill="#000000" text-anchor="end" style="white-space: pre;" direction="ltr">file:employee.csv</text><text x="252.11047954229085" y="70.50888421384069" font-family="Virgil, Segoe UI Emoji" font-size="33.00355368553625px" fill="#000000" text-anchor="end" style="white-space: pre;" direction="ltr"></text></g><g stroke-linecap="round" transform="translate(834.54378089359 447.1306265375891) rotate(89.48150031270934 31.426400941725262 221.06928230304652)"><path d="M14.95 1.45 L54.02 0.18 L58.97 5.7 L63.54 10.96 L64.24 427.07 L62.39 435.18 L60.04 437.55 L51.66 442.06 L8.33 439.93 L2.23 439.72 L-0.62 429.58 L-0.27 16.96 L2.01 10.46 L2.24 2.3 L9.38 1.97 L17.29 -0.53" stroke="none" stroke-width="0" fill="#868e96"></path><path d="M15.71 0 M15.71 0 C23.01 1.88, 33.45 0.41, 47.14 0 M15.71 0 C21.57 -0.3, 29.33 0.87, 47.14 0 M47.14 0 C57.54 -1.5, 61.52 3.74, 62.85 15.71 M47.14 0 C56.67 1.55, 62.49 4.95, 62.85 15.71 M62.85 15.71 C61.77 105.61, 61.72 193.32, 62.85 426.43 M62.85 15.71 C62.52 113.33, 62.57 209.93, 62.85 426.43 M62.85 426.43 C63.26 435.97, 59 443.12, 47.14 442.14 M62.85 426.43 C62.17 435.3, 55.71 440.02, 47.14 442.14 M47.14 442.14 C36.28 443.69, 23.76 442.71, 15.71 442.14 M47.14 442.14 C38.26 442.17, 27.68 441.4, 15.71 442.14 M15.71 442.14 C5.9 443.59, 0.48 435.12, 0 426.43 M15.71 442.14 C6.2 444.13, 0.54 435.12, 0 426.43 M0 426.43 C-0.94 272.05, -1.72 115.44, 0 15.71 M0 426.43 C-0.44 315.87, 0.3 204.59, 0 15.71 M0 15.71 C1.19 6.07, 4.76 0.45, 15.71 0 M0 15.71 C-0.19 3.26, 6.41 -0.28, 15.71 0" stroke="#000000" stroke-width="4" fill="none"></path></g><g transform="translate(674.5917950788413 645.6807387074834) rotate(0 192.51571226700776 17.716169840522184)"><text x="385.03142453401557" y="24.432339681044404" font-family="Virgil, Segoe UI Emoji" font-size="28.345871744835485px" fill="#ffff" text-anchor="end" style="white-space: pre;" direction="ltr">TP: spring-batch-partitioner</text></g></svg>