<svg version="1.1" xmlns="http://www.w3.org/2000/svg" viewBox="0 0 1229.6190476190473 879.3616702531021" width="1229.6190476190473" height="879.3616702531021">
  <!-- svg-source:excalidraw -->
  
  <defs>
    <style>
      @font-face {
        font-family: "Virgil";
        src: url("https://excalidraw.com/Virgil.woff2");
      }
      @font-face {
        font-family: "Cascadia";
        src: url("https://excalidraw.com/Cascadia.woff2");
      }
    </style>
  </defs>
  <rect x="0" y="0" width="1229.6190476190473" height="879.3616702531021" fill="#ffffff"></rect><g stroke-linecap="round"><g transform="translate(586.2757742178178 446.1286084836637) rotate(0 0.15688712048540765 -0.027628376250788733)"><path d="M-0.77 -0.13 C-0.54 0.07, 0.86 1.18, 0.99 1.2 M1.03 -1.24 C1.22 -1.36, 0.86 -0.79, 0.56 -0.37" stroke="#fab005" stroke-width="2" fill="none"></path></g></g><g stroke-linecap="round" transform="translate(391.62536751451614 301.71753861930995) rotate(349.49460188942567 96.77913640061837 95.7108062200094)"><path d="M13.57 46.25 C13.57 46.25, 13.57 46.25, 13.57 46.25 M13.57 46.25 C13.57 46.25, 13.57 46.25, 13.57 46.25 M7.33 67.84 C18.33 49.72, 33.75 36.98, 44.36 21.02 M7.89 65.21 C15.12 55.86, 23.24 47.89, 44.87 22.89 M1.01 82.69 C21.76 60.65, 41.61 39.48, 60.64 15.29 M2.32 83.56 C25.19 57.76, 48.18 30.59, 62.26 15 M3.36 96.69 C28.72 65.02, 56.89 36.51, 78.7 5.45 M2.12 95.14 C27.37 66.07, 53.08 36.39, 79.56 6.11 M3.09 108.61 C25.42 83.37, 45.44 60.14, 92.55 7.09 M2.05 106.86 C27.8 79.81, 51.77 50.72, 91.49 5.66 M2.07 118.55 C40.74 76.3, 81.68 29.34, 101.15 7.41 M2.67 118.81 C32.2 85.43, 61.43 52.17, 101 5.32 M9.05 125.26 C44.69 83.35, 80.43 40.01, 115.6 2.89 M7.91 125.17 C48.08 79.69, 88.49 34.83, 115.45 3.18 M12.9 134.09 C44.43 96.19, 75.89 58.12, 125.03 6.15 M11.33 132.57 C36.97 106.91, 60.57 77.88, 122.45 6.2 M16.06 140.13 C53.74 94.69, 94.84 48.69, 132.53 8.85 M15.55 140.87 C56.13 96.94, 94.11 52.92, 130.73 7.6 M19.64 147.12 C59.54 103.28, 100.4 56.52, 139.78 11.11 M20.29 148.55 C68.35 94.23, 115.43 39.08, 138.8 11.83 M25.13 156.74 C56.38 115.55, 93.93 79.3, 147.38 15.56 M24.05 157.56 C64.33 108.38, 106.97 59.79, 146.22 15.15 M30.68 162.65 C64.85 121.69, 98.15 86.59, 152.47 20.16 M29.37 161.84 C77.44 108.06, 122 54.39, 153.17 19.94 M34.94 167.1 C66.46 131.21, 98.49 97.95, 160.44 25.96 M34.65 167.54 C62.07 138.13, 90.47 106.55, 159.15 25.07 M41.26 174.47 C78.53 131.23, 110.21 90.66, 167.33 29.74 M41.3 172.99 C79.03 127.51, 116.16 84.96, 165.35 30 M48.79 179.56 C84.19 133.1, 118.74 94.07, 174.11 36.25 M46.8 178.63 C85.04 137.81, 119.44 96.58, 171.88 33.59 M52.12 182.94 C100.33 126.52, 148.84 71.82, 177.8 43.08 M53.36 182.81 C101.96 128.84, 150.94 74.27, 176.9 42.51 M61.65 185.21 C99.81 142.71, 137.42 100.09, 181.67 47.94 M62.16 185.61 C98.89 142.93, 137.09 100, 179.72 48.97 M70.7 188.14 C104.37 151.02, 135.09 113.27, 185.06 54.95 M69.55 188.54 C93.52 162.18, 118.9 134.33, 184.67 56.68 M79.06 192.67 C121.74 142.74, 162.37 95.4, 190.41 62.77 M78.48 192.02 C119.45 143.2, 159.21 96.25, 189.02 65.38 M89.39 193.99 C121.38 153.94, 150.85 116.56, 188.84 73.38 M87.9 193 C110.42 166.84, 133.35 138.82, 190.6 75.21 M100.24 191.59 C132.51 151.98, 166.91 111.41, 193.23 85.84 M99.77 190.58 C134.49 151.97, 169.75 110.02, 191.79 85.03 M109.2 189.88 C134.12 162.47, 159.04 137.15, 191.89 94.18 M111.1 191.13 C131.89 165.31, 154.97 139.57, 193.2 95.78 M123.69 188.93 C147.05 156.65, 175.12 128.73, 197.63 105.18 M122.82 188.56 C148.68 157.63, 176 127.14, 197.69 102.8 M129.55 192.6 C142.21 178.81, 156.23 164.54, 190.24 120.49 M129.28 193 C144.55 175.7, 159.53 159.88, 190.81 121.56 M50.3 179.92 C50.3 179.92, 50.3 179.92, 50.3 179.92 M50.3 179.92 C50.3 179.92, 50.3 179.92, 50.3 179.92 M71.56 186.64 C61.95 178.1, 53.27 171.56, 25.43 146.5 M70.33 187.07 C61.44 179.65, 52.33 171.54, 24.82 148.04 M89.58 190.86 C65.17 172.43, 43.92 151.44, 5.41 119.14 M87.52 191.96 C56.82 164.7, 25.08 136.55, 4.97 119.06 M97.81 189.93 C59.48 156.96, 24.62 126.23, 5.04 107.18 M98.65 190.97 C67.33 162.85, 37.53 135.91, 3.2 107.65 M109.78 189.84 C72.27 156.05, 29.87 118.88, 3.56 97.84 M110.28 189.4 C68.86 153.65, 28.53 119.84, 3.67 96.81 M118.32 186.18 C93.62 166.53, 70.73 142.78, 3.62 88.67 M120.1 188.78 C82.16 153.54, 44.39 118.5, 4.47 87.22 M127.01 185.97 C104.07 161.74, 77.89 140.52, 7.36 77.78 M128.34 184.2 C90.41 151.39, 51.57 116.39, 4.68 78.04 M136.96 181.63 C102.05 147.66, 67.61 117.13, 7.06 70.53 M135.48 180.83 C110.49 157.7, 82.1 135.37, 8.99 69.15 M144.63 176.95 C106.73 143.51, 72.36 111.34, 12.82 62.83 M144.12 175.4 C102.06 139.6, 60.61 102.3, 12.38 60.97 M149.61 170.48 C109.17 137.31, 65.09 98.61, 12.54 52.47 M151.62 172.12 C103.8 132.7, 59.16 92.51, 14 53.27 M157.74 170.09 C126.32 136.33, 92.54 107.94, 16.34 43.02 M159.32 168.81 C123.32 138.92, 86.79 105.78, 16.61 43.68 M163.58 163.73 C130.79 132.54, 99.47 103.55, 22.99 37.85 M163.83 162.14 C115.73 120.36, 65.87 76.48, 21 37.2 M170.6 157.9 C138.49 125.46, 103.55 97.95, 27.36 32.2 M169.35 155.67 C137.09 129.1, 104.53 99.83, 26.32 32.8 M176.13 151.09 C135.17 112.42, 93 79.47, 31.06 26.39 M173.43 149.79 C135.75 118.54, 98.25 84.71, 30.79 26.15 M178.76 145.08 C136.79 104.83, 92.14 67.48, 35.22 18.47 M178.46 142.59 C144.1 112.15, 110.38 80.65, 37.37 20.86 M184.06 137.54 C139.75 98.6, 95.82 62.14, 42.09 13.56 M184.29 136.97 C130.61 90.63, 76.99 44.33, 41.39 13.29 M185.95 128.12 C131.78 85.74, 81.46 37.99, 49.8 9.81 M185.62 128.22 C136.5 85.8, 88.24 44.77, 50.21 11.04 M191.28 120.9 C160.52 95.01, 135.09 71.46, 56.95 7.76 M189.49 121.08 C143.17 81.19, 97.67 40.94, 57.88 7.9 M192.62 110.54 C149.65 75.95, 107.18 37.76, 67.4 5.62 M192.07 111.38 C152.15 78.63, 113.66 45.76, 66.78 3.59 M195.53 104.2 C153.38 66.97, 113.07 33.52, 77.65 2.54 M192.93 102.48 C155.55 70, 115.64 36.72, 75.07 0.63 M199.47 98.16 C164.14 70.19, 133.01 41.33, 88.56 1.98 M197.86 97.43 C162.46 66.61, 127.66 37.28, 87.29 0.18 M196.69 85.96 C164.13 57.64, 130.25 26.05, 99.24 1.7 M196.75 83.67 C175.37 67.15, 155.11 50.04, 100.32 -0.42 M193.82 72.04 C165.74 48.03, 140.01 24.62, 110.54 0.36 M195.17 72.17 C172.72 52.88, 150.67 35.45, 111.71 -0.47 M193.88 60.71 C176.3 44.98, 159.72 30.61, 118.15 -5.08 M191.33 58.93 C163.3 35.3, 135.62 11.3, 118.92 -5.06" stroke="#bfc548" stroke-width="1" fill="none"></path><path d="M138.1 9.45 C149.7 13.2, 161.02 22.89, 169.34 32.04 C177.65 41.2, 183.89 52.79, 187.99 64.37 C192.08 75.95, 194.72 89.2, 193.9 101.52 C193.08 113.84, 188.92 126.93, 183.08 138.28 C177.24 149.63, 168.43 161.33, 158.85 169.63 C149.26 177.92, 137.53 184.35, 125.6 188.06 C113.67 191.76, 99.79 193.2, 87.26 191.86 C74.73 190.52, 61.56 186.37, 50.42 180.03 C39.28 173.69, 28.42 163.67, 20.43 153.83 C12.44 143.99, 5.57 132.86, 2.48 120.96 C-0.61 109.06, 0.01 94.9, 1.88 82.43 C3.75 69.96, 7.39 56.97, 13.69 46.12 C19.98 35.26, 29.5 24.62, 39.65 17.31 C49.8 10, 62.18 4.99, 74.58 2.26 C86.97 -0.47, 101.8 -1.07, 114.02 0.92 C126.23 2.91, 140.74 10.62, 147.85 14.2 C154.96 17.77, 157.62 20.95, 156.68 22.38 M70.51 4.8 C81.42 0.21, 96.21 -1.73, 109 -0.23 C121.79 1.26, 136.08 7.21, 147.25 13.78 C158.42 20.34, 168.86 29.06, 176.01 39.18 C183.16 49.3, 187.55 62.18, 190.12 74.5 C192.69 86.82, 193.46 100.74, 191.42 113.1 C189.38 125.46, 184.48 138.15, 177.88 148.65 C171.28 159.14, 161.93 169.51, 151.83 176.08 C141.74 182.66, 129.52 185.64, 117.31 188.11 C105.11 190.57, 90.98 192.9, 78.6 190.88 C66.22 188.86, 53.42 183.22, 43.01 175.97 C32.6 168.73, 23.03 158.27, 16.13 147.42 C9.23 136.56, 3.85 123.27, 1.61 110.84 C-0.63 98.42, -0.3 84.89, 2.7 72.86 C5.7 60.83, 11.94 48.45, 19.62 38.67 C27.29 28.89, 40.27 20.08, 48.75 14.19 C57.23 8.31, 66.87 4.89, 70.49 3.36 C74.11 1.82, 69.73 3.62, 70.46 4.98" stroke="#bfc548" stroke-width="2" fill="none"></path></g><g stroke-linecap="round"><g transform="translate(430.91135063211846 469.97896151453136) rotate(349.49460188942567 75.3254095945504 -66.94862542577184)" fill-rule="evenodd"><path d="M-4.46 -18.93 L-3.49 -15.74 L-16.27 -35.78 L-16.28 -42.19 L-21.49 -52.14 L-18.6 -63.49 L-15.84 -75.32 L-2.89 -90.26 L7.52 -96.03 L22.55 -100.15 L39.61 -101.94 L50.83 -101.75 L119.05 -91.5 L134.26 -93.77 L153.6 -105.47 L159.76 -113.26 L169.61 -130.82 L166.98 -97.8 L160.89 -72.93 L151.49 -60.26 L140.01 -43.31 L112.7 -23.16 L89.45 -10.06 L78.18 -6.02 L54.6 0.85 L30.08 -4.27 L18.93 -5.88 L-5.92 -20 L-4.57 -19.63" stroke="none" stroke-width="0" fill="#ffffff" fill-rule="evenodd"></path><path d="M-1.8 -18.07 C-1.81 -17.94, -0.99 -14.69, -3.6 -18.48 C-6.22 -22.27, -15.04 -33.11, -17.5 -40.82 C-19.97 -48.54, -19.42 -57.89, -18.39 -64.77 C-17.36 -71.65, -15.44 -76.8, -11.32 -82.08 C-7.21 -87.36, -1.88 -92.66, 6.31 -96.45 C14.49 -100.24, 27.29 -104.2, 37.81 -104.85 C48.34 -105.5, 56.12 -102.48, 69.44 -100.36 C82.77 -98.24, 105.29 -92.38, 117.75 -92.13 C130.21 -91.87, 137 -95.42, 144.21 -98.82 C151.43 -102.22, 156.74 -106.91, 161.02 -112.52 C165.3 -118.12, 169.46 -136.72, 169.9 -132.47 C170.34 -128.23, 166.53 -99.35, 163.67 -87.06 C160.8 -74.77, 159.23 -67.97, 152.73 -58.74 C146.23 -49.51, 137.42 -40.46, 124.65 -31.66 C111.88 -22.86, 91.85 -10.77, 76.12 -5.93 C60.4 -1.09, 43.25 -0.66, 30.28 -2.63 C17.31 -4.59, 3.88 -14.91, -1.7 -17.74 C-7.27 -20.57, -2.98 -19.25, -3.17 -19.6 M-2.74 -18.56 C-2.84 -18.23, -2.02 -12.96, -4.56 -17.01 C-7.09 -21.06, -15.77 -34.5, -17.96 -42.85 C-20.15 -51.19, -19.16 -60.57, -17.72 -67.06 C-16.28 -73.55, -13 -77.22, -9.31 -81.77 C-5.62 -86.32, -3.55 -90.8, 4.42 -94.35 C12.39 -97.9, 27.84 -102.07, 38.49 -103.06 C49.14 -104.06, 55.33 -101.99, 68.31 -100.31 C81.29 -98.63, 103.55 -93.26, 116.39 -92.99 C129.22 -92.72, 137.79 -95.03, 145.34 -98.67 C152.89 -102.31, 157.83 -109.63, 161.68 -114.81 C165.53 -119.99, 168.14 -134.29, 168.42 -129.75 C168.71 -125.22, 166.01 -99.4, 163.38 -87.59 C160.74 -75.78, 159.03 -68.11, 152.62 -58.91 C146.2 -49.71, 137.5 -41.34, 124.9 -32.41 C112.29 -23.47, 92.42 -10.35, 77 -5.28 C61.59 -0.22, 45.7 0.07, 32.41 -2 C19.12 -4.07, 2.86 -14.77, -2.72 -17.71 C-8.31 -20.64, -1.16 -19.5, -1.1 -19.61" stroke="#bfc548" stroke-width="2" fill="none"></path></g></g><g stroke-linecap="round"><g transform="translate(448.1345155953784 450.64195695626705) rotate(349.49460188942567 48.02837838496518 -24.701162253268592)" fill-rule="evenodd"><path d="M-24.59 -6.8 C-24.59 -6.8, -24.59 -6.8, -24.59 -6.8 M-24.59 -6.8 C-24.59 -6.8, -24.59 -6.8, -24.59 -6.8 M-20.17 -0.06 C-17.65 -2.53, -14.96 -5.08, -12.6 -7.97 M-19.47 -0.41 C-17.66 -2.1, -16.05 -4.03, -13.62 -7.11 M-14.76 3.88 C-10.03 -1.36, -6.31 -5.35, -2.88 -8.38 M-13.07 4.24 C-9.18 0.62, -6.61 -3.85, -1.88 -8.38 M-3.95 4.22 C-2.11 0.96, 3.76 -0.08, 7.48 -8.46 M-3.5 5.91 C-0.49 2.26, 2.49 -1.72, 8.39 -8.14 M6.43 5.15 C12.69 0.88, 13.79 -3.69, 21.31 -10.13 M7.97 4.87 C12.81 -0.22, 16.21 -5.26, 21.26 -10.09 M17.84 2.89 C23.03 1.63, 28.25 -6, 31.71 -10.58 M18.7 3.56 C22.78 -1.64, 27.73 -6.74, 32.52 -9.86 M31.69 4.53 C32.69 -1.3, 35.94 -5.61, 42.35 -12.09 M30.63 3.11 C35.73 -2.35, 39.55 -7.75, 42.75 -12.16 M36.35 9.38 C43.66 0.35, 51.33 -9.17, 56.1 -14.99 M36.2 7.29 C42.94 1.34, 49.29 -4.86, 56.64 -15.37 M50.14 5.61 C59.51 -4.54, 64.07 -12.95, 71.17 -22.26 M49.99 5.9 C54.86 0.06, 60.41 -6.02, 73.18 -20.57 M69.42 -2.44 C72 -9.85, 77.51 -17.91, 85.5 -24.98 M66.83 -2.39 C75.59 -10.76, 81.68 -19.86, 87.01 -26.45 M82.16 -5.78 C91.18 -18.52, 99.92 -28.8, 120.67 -51.22 M80.36 -7.03 C94.46 -20.62, 106.06 -36.61, 120.34 -52.69 M-21.36 -1.34 C-21.36 -1.34, -21.36 -1.34, -21.36 -1.34 M-21.36 -1.34 C-21.36 -1.34, -21.36 -1.34, -21.36 -1.34 M-1.26 4.28 C-5.77 2.15, -9.63 -1.1, -19.22 -12.42 M-2.43 3.87 C-9.4 -1.28, -16.11 -6.37, -20.37 -10.58 M8.41 3.6 C6.49 -0.39, 1.5 -2.83, -9.86 -10.31 M9.11 3.37 C3.9 -1.2, 0.35 -4.57, -9.48 -12.52 M20.98 4.12 C12.99 -2.42, 8.46 -7.94, 1.56 -15.03 M19.69 3.22 C12.23 -3.88, 5.26 -10.28, 2.11 -12.78 M33.12 1.86 C26.43 -1.42, 22.94 -7.42, 13.25 -13.27 M31.14 2.12 C26.82 -0.83, 23.23 -5.03, 13.32 -13.65 M42.98 1.77 C36.93 -5.01, 32.71 -8.29, 24.57 -14.34 M40.75 -0.88 C35.76 -5.16, 29.62 -11.63, 22.92 -15.79 M52.37 -1.01 C48.54 -7.57, 42.96 -9.75, 33.71 -17.5 M51.47 -1.58 C45.1 -7.7, 38.67 -12.49, 34.22 -17.1 M61.13 -6.35 C55.61 -10.05, 51.32 -12.98, 46.12 -19.21 M59.28 -5.36 C55.28 -8.15, 50.67 -12.55, 45.48 -16.57 M68.14 -9.46 C61.92 -12.31, 58.14 -17.63, 55.02 -21.5 M67.79 -7.9 C63.43 -13.29, 57.6 -17.2, 55.21 -19.58 M79.65 -11.96 C75.4 -12.33, 70.68 -16.79, 65.68 -20.65 M78.4 -9.61 C74.51 -13.05, 71.15 -15.98, 64.91 -21.4 M84.68 -15.63 C81.66 -15.59, 80.46 -18.97, 75.22 -22.32 M85.91 -14.35 C81.75 -18.11, 77.26 -21.5, 75.02 -24.07 M93.31 -19.03 C90.4 -22.08, 86 -23.94, 82.39 -27.69 M92.45 -19.52 C88.77 -21.96, 85.29 -25.65, 83 -27.03 M98.09 -24.56 C96.52 -25.78, 94.66 -27.12, 91.44 -32.17 M98.81 -23.68 C96.88 -25.9, 94.12 -27.89, 90.69 -31.67 M104.54 -29.26 C103.41 -30.47, 101.04 -32.32, 97.14 -36.23 M104.57 -30.33 C102.17 -31.75, 101.4 -32.93, 97.43 -36.11 M109.91 -36.03 C107.83 -37.29, 106.59 -39.24, 105.2 -39.99 M110.11 -35.65 C108.63 -36.71, 107.41 -37.75, 104.71 -40.17 M114.21 -42.81 C113.58 -43.14, 112.96 -43.46, 111.82 -44.52 M114.11 -42.59 C113.24 -43.36, 112.89 -43.61, 111.72 -44.61 M118.47 -49.5 C117.86 -49.57, 117.78 -49.99, 117.09 -50.51 M118.41 -49.35 C117.83 -49.95, 117.21 -50.32, 116.92 -50.71" stroke="#82c91e" stroke-width="1" fill="none"></path><path d="M-2.5 -7.87 C-0.22 -8.13, 4.87 -8.15, 10.01 -8.41 C15.15 -8.68, 20.41 -8.13, 28.33 -9.47 C36.25 -10.81, 47.84 -13.71, 57.52 -16.46 C67.2 -19.22, 79.31 -22.75, 86.41 -26 C93.52 -29.26, 96.61 -33.51, 100.15 -35.99 C103.7 -38.46, 105.17 -39, 107.68 -40.86 C110.2 -42.72, 113.11 -45.04, 115.24 -47.14 C117.37 -49.24, 119.58 -53.04, 120.45 -53.44 C121.33 -53.83, 122.18 -52.52, 120.48 -49.5 C118.79 -46.47, 112.79 -38.02, 110.28 -35.28 C107.78 -32.53, 106.54 -34.34, 105.45 -33.04 C104.36 -31.73, 105.3 -29.37, 103.75 -27.44 C102.19 -25.51, 100.52 -24.39, 96.12 -21.47 C91.73 -18.55, 84.76 -13.17, 77.37 -9.91 C69.99 -6.66, 59.62 -4.23, 51.81 -1.95 C44.01 0.32, 37.93 2.67, 30.52 3.72 C23.11 4.78, 14.79 4.34, 7.35 4.36 C-0.08 4.39, -8.69 5.94, -14.1 3.87 C-19.52 1.8, -26.91 -5.99, -25.13 -8.06 C-23.35 -10.12, -7.14 -8.42, -3.43 -8.51 M-3.41 -8.92 C-1.29 -9.62, 3.77 -9.82, 8.99 -10.23 C14.2 -10.64, 19.71 -10.5, 27.89 -11.38 C36.06 -12.27, 48.53 -13.22, 58.03 -15.54 C67.52 -17.85, 77.69 -21.67, 84.86 -25.25 C92.03 -28.83, 97.23 -34.15, 101.05 -37 C104.87 -39.84, 105.54 -40.62, 107.8 -42.31 C110.06 -44.01, 112.69 -45.15, 114.61 -47.17 C116.52 -49.2, 118.7 -54.06, 119.3 -54.46 C119.9 -54.87, 119.58 -52.96, 118.19 -49.61 C116.81 -46.26, 112.82 -37.57, 110.98 -34.35 C109.15 -31.14, 108.3 -31.43, 107.18 -30.32 C106.06 -29.21, 106.23 -29.1, 104.27 -27.67 C102.32 -26.24, 99.9 -24.59, 95.44 -21.75 C90.98 -18.91, 84.71 -14.09, 77.51 -10.63 C70.31 -7.17, 60.3 -3.54, 52.24 -0.98 C44.18 1.58, 36.29 3.81, 29.15 4.73 C22.01 5.65, 16.27 4.64, 9.39 4.53 C2.52 4.43, -6.35 5.98, -12.09 4.11 C-17.83 2.23, -26.31 -4.96, -25.04 -6.7 C-23.77 -8.45, -8.26 -6.38, -4.46 -6.38" stroke="#bfc548" stroke-width="2" fill="none"></path></g></g><g stroke-linecap="round" transform="translate(417.5752760747257 455.99501820881113) rotate(349.49460188942567 7.260435059941102 7.005719883874747)"><path d="M11.39 1.69 C12.72 2.57, 14.14 3.95, 14.73 5.23 C15.33 6.5, 15.48 8.09, 14.94 9.31 C14.4 10.53, 12.89 11.81, 11.47 12.55 C10.04 13.29, 7.93 13.88, 6.41 13.76 C4.88 13.65, 3.28 12.8, 2.32 11.86 C1.35 10.92, 0.82 9.64, 0.61 8.13 C0.4 6.61, 0.35 4.12, 1.06 2.77 C1.76 1.41, 2.9 0.3, 4.84 -0.01 C6.78 -0.33, 11.26 0.35, 12.68 0.87 C14.1 1.4, 13.59 2.78, 13.35 3.14 M4.48 -1.06 C5.37 -1.91, 7.13 -0.63, 8.51 -0.01 C9.88 0.6, 11.96 1.29, 12.72 2.64 C13.47 3.99, 13.23 6.56, 13.03 8.09 C12.83 9.62, 12.42 10.78, 11.53 11.83 C10.64 12.88, 9.22 14.29, 7.69 14.38 C6.17 14.48, 3.69 13.35, 2.35 12.4 C1.02 11.45, -0.22 10.42, -0.32 8.69 C-0.41 6.96, 0.87 3.14, 1.78 2 C2.7 0.86, 4.85 2.24, 5.17 1.84 C5.49 1.43, 3.62 -0.46, 3.67 -0.43" stroke="none" stroke-width="0" fill="#ffffff"></path><path d="M9.43 -0.07 C10.78 0.16, 12.3 2.19, 13 3.46 C13.71 4.72, 13.91 6.16, 13.68 7.54 C13.46 8.91, 12.49 10.54, 11.65 11.69 C10.81 12.85, 9.92 14.18, 8.65 14.46 C7.38 14.75, 5.27 14.21, 4.03 13.38 C2.8 12.55, 1.71 11.04, 1.24 9.48 C0.77 7.93, 0.89 5.67, 1.22 4.07 C1.56 2.47, 1.73 0.33, 3.25 -0.11 C4.78 -0.55, 9.12 1.26, 10.36 1.42 C11.6 1.57, 10.87 0.93, 10.7 0.84 M4.52 0 C5.82 -0.8, 6.94 -0.75, 8.35 -0.45 C9.75 -0.15, 12.15 0.48, 12.97 1.79 C13.79 3.11, 13.45 5.64, 13.26 7.44 C13.07 9.23, 12.8 11.58, 11.81 12.58 C10.83 13.57, 8.51 13.44, 7.33 13.4 C6.14 13.37, 6.07 12.87, 4.73 12.36 C3.38 11.85, -0.11 11.45, -0.73 10.34 C-1.35 9.23, 0.19 7.4, 1 5.68 C1.82 3.95, 3.52 0.92, 4.17 0 C4.83 -0.93, 4.69 -0.03, 4.93 0.14" stroke="#bfc548" stroke-width="2" fill="none"></path></g><g transform="translate(340.0588949663704 236.15867060450586) rotate(0 147.52262446822039 59.691235333962055)"><text x="295.04524893644077" y="41.691235333962055" font-family="Virgil, Segoe UI Emoji" font-size="47.75298826716959px" fill="#000000" text-anchor="end" style="white-space: pre;" direction="ltr">Spring Batch</text><text x="295.04524893644077" y="101.38247066792411" font-family="Virgil, Segoe UI Emoji" font-size="47.75298826716959px" fill="#000000" text-anchor="end" style="white-space: pre;" direction="ltr"></text></g><g stroke-linecap="round"><g transform="translate(997.2915328864942 84.5800371826202) rotate(0 -49.105989766408754 92.99679346564874)" fill-rule="evenodd"><path d="M-145.41 4.77 C-145.41 4.77, -145.41 4.77, -145.41 4.77 M-145.41 4.77 C-145.41 4.77, -145.41 4.77, -145.41 4.77 M-148.75 13.87 C-142.63 10.67, -138.74 3.75, -137.51 1 M-147.89 14.82 C-144.54 9.77, -140.86 5.78, -136.54 0.37 M-153.06 25.4 C-144.71 17.8, -142.51 13.79, -126.01 -4.87 M-151.33 24.72 C-145.6 16.59, -138.27 8.25, -126.26 -3.62 M-150.42 28.33 C-139.88 19.08, -129.01 5.08, -116.94 -8.64 M-152.2 29.16 C-141.27 19.54, -132.33 6.89, -119.25 -7.88 M-150.69 36.31 C-139.96 23.62, -124.71 8.03, -112.52 -7.12 M-152.53 37.07 C-141.83 25.08, -132.32 15.14, -112.83 -8.67 M-151.45 42.16 C-139.74 30.22, -128.63 14.81, -106.76 -8.61 M-151.84 42.55 C-141.34 30.76, -130 19.2, -107.13 -7.88 M-151.86 45.78 C-134.89 28.69, -120.01 8.99, -105.46 -6.87 M-149.52 47.87 C-139.03 34.97, -129.91 23.48, -104.56 -5.06 M-149.43 51.87 C-137.21 40.65, -126.51 25.23, -100.34 -3.24 M-148.99 53.13 C-134.11 34.96, -119.79 19.84, -100.34 -4.58 M-150.7 57.08 C-136.14 41.57, -122.18 23.04, -97.56 -3.34 M-148.87 58.36 C-132.17 37.6, -116.81 19.08, -96.56 -4.41 M-149.24 61.72 C-135.18 48.31, -118.78 29.83, -90.57 -0.73 M-148.45 63.25 C-131.16 42.01, -113.69 22.54, -91.41 -2.73 M-147.03 67.43 C-125.11 40.33, -102.5 14.61, -88.7 -2.68 M-147.57 67.76 C-125.28 41.7, -101.03 13.83, -87.36 -1.78 M-147.12 71.39 C-125.34 46.69, -103.35 22.61, -83.26 0.76 M-144.69 72.28 C-132.36 55.28, -117.51 40.14, -83.59 0.01 M-144.3 78.01 C-121.94 50.24, -97.46 22.93, -80.12 2.42 M-144.08 76.33 C-121.49 50.46, -98.64 23.78, -78.17 1.76 M-141.88 80.07 C-121.71 54.39, -98.46 31.26, -73.21 0.24 M-142.04 81.62 C-118.11 52.17, -93.53 25.19, -71.91 1.21 M-143.58 84.48 C-116.38 57, -94.89 29.18, -69.04 -0.56 M-141.26 86.83 C-119.73 60.78, -96.27 35.02, -66.46 0.93 M-141.01 91.9 C-116.76 60.58, -91.85 33.17, -59.55 -2.55 M-139.79 91.17 C-112.09 58.88, -85.34 25.88, -59.52 -1.8 M-136.92 93.72 C-120.67 73.1, -102.31 53.06, -49.32 -6.89 M-138.75 94.31 C-111.09 60.29, -81.65 27.46, -51.63 -5.82 M-135.29 98.73 C-114.15 71.24, -92.19 47.38, -47.59 -4.1 M-135.87 99.08 C-115.9 76.12, -95.65 52.96, -48.56 -3.88 M-136.65 101.58 C-99.51 60.71, -61.61 19.92, -40.59 -7.8 M-135.29 102.82 C-101.7 63.32, -67.39 25.74, -41.17 -6.42 M-134.79 108.41 C-105.43 73.15, -79.72 42.28, -36.37 -3.74 M-133.74 107.05 C-99.93 67.41, -65.98 27.04, -36.7 -3.65 M-131.43 112.61 C-108.71 86.34, -88.09 63.2, -33.97 -4.38 M-131.7 110.16 C-105.42 83, -81.04 53.06, -33.37 -2.13 M-128.25 115.72 C-104.79 83.48, -76.64 55.84, -28.51 -0.04 M-128.85 114.27 C-104.24 86.3, -77.37 55.81, -27.97 -2.96 M-128.22 118.11 C-93.07 80.05, -60.05 40.01, -21.93 -0.02 M-127.92 118.93 C-91.91 74.86, -54.6 32.92, -24.1 -0.94 M-123.67 123.44 C-99.5 92.18, -72.9 62.18, -18.36 -0.14 M-124.21 121.46 C-86.15 76.82, -46.13 32.2, -19.94 0.84 M-123.6 123.57 C-87.77 83.02, -50.41 41.74, -13.53 -0.86 M-123.34 124.95 C-83.86 79.89, -44.72 35.55, -11.19 -3.09 M-119.72 129.29 C-88.09 94.61, -60.99 57.01, -3.28 -4.24 M-120.79 128.85 C-78.72 80.38, -36.29 32.38, -3.99 -4.62 M-118.45 131.47 C-84.67 92.97, -48.51 49.26, 0.91 -6.83 M-118.38 133.12 C-76.95 85.02, -34.12 35.52, 2.01 -7 M-114.34 134.99 C-72.8 86.91, -34.7 42.52, 5.98 -8.22 M-115.13 136.17 C-72.61 87.09, -31.45 38.33, 7.33 -6.34 M-114.66 137.23 C-77.16 98, -42.07 55.23, 14.49 -8.1 M-112.33 138.28 C-82.28 102.17, -49.2 65.27, 14.29 -8.82 M-111.49 140.45 C-56.66 80.91, -8.28 25.29, 20.84 -7.55 M-109.08 139.95 C-74.63 99.18, -38.2 57.57, 18.82 -8.88 M-104.39 143.51 C-99.72 135.32, -94.63 129.25, -80.68 113.61 M-105.49 142.59 C-96.52 131.14, -85.1 119.24, -80.91 113.29 M-80.47 114.26 C-54.05 85.61, -28.72 55.28, 24.84 -5.83 M-80.15 112.89 C-58.87 86.14, -36.53 60.23, 23.64 -7.86 M-72.22 112.13 C-35.91 68.31, 3.72 21.95, 27.04 -7.1 M-72.44 110.38 C-49.06 83.64, -26.35 57.7, 28.14 -5.95 M-88.83 134.78 C-88.83 134.78, -88.83 134.78, -88.83 134.78 M-88.83 134.78 C-88.83 134.78, -88.83 134.78, -88.83 134.78 M-67.63 110.2 C-32.98 71.5, 3.37 27.68, 34.86 -7.16 M-69.4 111.37 C-34.39 72.83, -1.3 32.2, 32.43 -5.79 M-84.03 134.94 C-83.22 133.89, -80.61 132.43, -79.23 129.09 M-84.01 134.79 C-81.39 132.34, -79.49 130.03, -78.3 128.78 M-65.51 112.09 C-33.01 76.94, -5.65 44.62, 37.57 -4.89 M-63.83 113.53 C-25.23 66.01, 14.36 20.11, 37.23 -4.36 M-80.47 134.64 C-53.1 103.75, -27.42 73.31, 40.84 -3.68 M-79.46 137.13 C-38.96 88.52, 2.52 42.14, 41.13 -2.34 M-75.92 136.58 C-49.62 107.42, -21.28 77.68, 44.69 0.2 M-75.14 137.33 C-35.39 92.22, 5.82 45.97, 44.23 -1.38 M-70.65 135.67 C-34.44 95.65, -1.58 57.58, 49.16 3.12 M-69.7 137.87 C-35.12 97.21, 0.43 57.87, 47.97 1.44 M-64.82 135.27 C-29.08 96.75, 6.69 57.14, 51.12 5.13 M-64.46 137.08 C-33.68 102.85, -5.75 70.61, 51.22 4.44 M-58.25 134.86 C-29.32 106.07, -1.67 74.1, 55.54 7.36 M-59.07 136.44 C-23.55 95.13, 11.86 55.24, 53.09 7.72 M-51.19 135.53 C-28.64 106.6, -5.5 78.96, 53.49 11.23 M-52.7 134.93 C-21.6 98.1, 11.27 62.15, 55.42 12.32 M-46.93 135.91 C-14.19 97.84, 19.6 56.96, 54.7 14.36 M-48.19 136.99 C-12.43 95.42, 23.33 54.05, 56.99 17.09 M-45.87 143.09 C-26.65 116.15, -0.74 89.25, 54.4 26.06 M-46.47 142.42 C-10.88 99.8, 24.05 57.84, 54.73 24.19 M-44.27 147.54 C-19.34 117.18, 2.71 88.44, 52.38 31.18 M-46.91 147.21 C-8.87 105.86, 26.85 64.08, 54.44 31.88 M-45.49 152.6 C-26.06 128.02, -7.01 107.97, 51.16 38.87 M-44.92 152.05 C-7.93 108.18, 28.81 64.74, 53.45 39.27 M-46.03 157.11 C-6.47 113.24, 31.3 69.59, 53.9 44.51 M-45.56 156.93 C-24.62 132.07, -4.23 108.51, 52 45.15 M-43.62 160.15 C-22.36 138.2, 2.84 110.26, 43.86 61.45 M-43.99 162.83 C-19.5 134.25, 4.83 108.15, 43.35 61.81 M-42.49 167.96 C-24.58 147.41, -6.39 127.53, 35.3 78.21 M-42.29 168.59 C-13.73 133.83, 13.82 100.17, 34.11 77.14 M-44.11 173.11 C-19.74 145.84, 6 117.52, 27.87 93.97 M-42.65 175.07 C-16.37 143.52, 10.04 112.77, 27.21 94.07 M-42.58 178.68 C-22.12 158.83, -7.98 137.48, 19.08 104.83 M-42.19 177.34 C-28.28 163.51, -15.88 150.14, 19.91 105.84 M-38.52 182.25 C-26.92 168.43, -13.1 150.82, 20.28 108.75 M-39.39 181.56 C-27.89 168.71, -14.5 152.58, 22.25 110.92 M-37.87 186.79 C-19.08 163.78, -1.6 145.31, 10.42 129.51 M-38.28 187.9 C-25.51 173.04, -14.25 158.36, 10.4 129.88 M9.6 130.89 C12.11 126.41, 19.11 121.35, 25.55 112.55 M10.5 131.67 C14.22 125.25, 20.36 119.41, 24.7 113.27 M-36.91 189.7 C-18.15 171.96, -0.69 150.77, 11 138.44 M-36.88 190.33 C-26.76 179.37, -17.81 168.55, 9.31 137.98 M17.97 129.78 C20.5 124.67, 24.01 121.59, 30.27 114.9 M17.25 129.26 C21.59 123.02, 26.37 117.18, 29.7 115.3 M-34.13 195.02 C-24.38 181.98, -13.8 171.2, 10.65 144.94 M-33.47 193.51 C-19.15 178.45, -6.19 162.25, 9.68 144.05 M21.17 128.17 C27.32 124.53, 32.23 119.02, 31.69 116.87 M22.72 128.57 C25.78 123.77, 31.26 119.17, 32.5 116.46 M-29.02 197.7 C-15.88 177.29, -2.93 162.06, 10.26 151.82 M-30.87 195.18 C-16.3 177.99, -0.21 160.66, 7.87 150.51 M28.31 129.13 C28.15 127.99, 31.18 123.63, 37.8 115.87 M27.06 129.15 C29.3 125.84, 31.44 123.36, 38.39 116.52 M-26.32 194.66 C-13.09 184.91, -2.96 170.65, 9.83 155.62 M-26.49 195.59 C-13.7 182.88, -1.71 167.71, 8.5 157.57 M34.5 128.78 C38 123.47, 40.64 120.24, 44.41 118.1 M33.32 129.05 C36.28 124.66, 38.14 121.71, 43.86 116.97 M-23.4 196.32 C-16.24 191.05, -9.32 183.91, 9.01 161.57 M-22.63 198.05 C-13.82 188.38, -4.06 177.53, 8.07 163.21 M-15.92 197 C-8.18 189.21, -2.09 180.1, 9.32 171.83 M-15.1 195.74 C-9.18 190.39, -5.46 185.38, 7.3 169.42 M-6.23 193.64 C-3.15 189.34, 1.47 184.56, 4.17 181.23 M-7.25 193.08 C-3.55 189.85, 0 186.29, 3.25 180.03" stroke="#4c6ef5" stroke-width="0.5" fill="none"></path><path d="M-21.01 -1.06 C-24.32 -2.18, -35.85 -6.82, -41.92 -7.18 C-47.99 -7.55, -52.35 -4.31, -57.43 -3.25 C-62.52 -2.2, -62.31 -0.17, -72.45 -0.82 C-82.58 -1.47, -105.27 -9.51, -118.25 -7.15 C-131.24 -4.79, -145.01 1.66, -150.36 13.33 C-155.71 25.01, -153.66 46.06, -150.34 62.93 C-147.03 79.8, -137.87 101.47, -130.45 114.56 C-123.04 127.66, -113.96 141.97, -105.85 141.49 C-97.74 141, -88.02 116.7, -81.79 111.66 C-75.56 106.62, -71.75 110.39, -68.47 111.23 C-65.19 112.07, -62.14 114.87, -62.12 116.69 C-62.1 118.52, -65.98 120.57, -68.34 122.18 C-70.7 123.8, -72.98 124.37, -76.3 126.39 C-79.63 128.41, -89.44 132.71, -88.31 134.31 C-87.19 135.91, -74.52 135.63, -69.56 136 C-64.59 136.37, -61.72 136.41, -58.5 136.54 C-55.29 136.68, -52.62 130.49, -50.26 136.8 C-47.9 143.11, -47.36 164.64, -44.32 174.41 C-41.28 184.19, -38.93 193.05, -32.04 195.46 C-25.15 197.86, -9.47 193.2, -2.97 188.87 C3.54 184.53, 5.47 177.89, 7 169.42 C8.54 160.95, 5.71 144.91, 6.24 138.02 C6.77 131.13, 5.65 129.75, 10.18 128.08 C14.71 126.41, 27.07 129.97, 33.43 127.99 C39.79 126, 48.77 118.5, 48.33 116.17 C47.9 113.83, 35.7 115.58, 30.81 113.96 C25.93 112.34, 18.22 112.42, 19.03 106.47 C19.84 100.51, 30.63 88.79, 35.68 78.22 C40.72 67.65, 46.22 55.01, 49.29 43.06 C52.37 31.12, 57.8 15.1, 54.12 6.56 C50.44 -1.98, 36.47 -5.6, 27.23 -8.18 C17.98 -10.76, 6.78 -9.91, -1.33 -8.92 C-9.43 -7.92, -17.94 -3.64, -21.41 -2.19 M-22 -1.95 C-25.4 -3.53, -36.53 -8.61, -42.48 -9.15 C-48.43 -9.69, -52.82 -6.72, -57.72 -5.2 C-62.61 -3.67, -61.56 0.78, -71.84 0 C-82.12 -0.78, -106.58 -11.98, -119.41 -9.86 C-132.24 -7.73, -143.72 0.75, -148.83 12.74 C-153.93 24.73, -152.96 45.05, -150.03 62.07 C-147.09 79.09, -138.33 101.75, -131.22 114.84 C-124.1 127.94, -115.68 141.25, -107.35 140.64 C-99.02 140.03, -87.71 115.98, -81.24 111.18 C-74.76 106.38, -71.55 110.96, -68.51 111.85 C-65.47 112.75, -63.13 115, -63.02 116.54 C-62.9 118.08, -65.53 119.54, -67.83 121.09 C-70.13 122.65, -72.94 123.75, -76.82 125.88 C-80.7 128, -92 132.01, -91.12 133.85 C-90.25 135.69, -77.33 136.88, -71.59 136.93 C-65.85 136.97, -60.54 134.16, -56.68 134.1 C-52.82 134.04, -50.84 129.73, -48.43 136.57 C-46.03 143.41, -45.05 165.62, -42.27 175.15 C-39.49 184.67, -38.12 191.58, -31.75 193.7 C-25.38 195.82, -10.05 192.08, -4.05 187.87 C1.95 183.67, 2.56 176.38, 4.23 168.47 C5.9 160.55, 4.73 147.23, 5.97 140.38 C7.2 133.52, 7.31 129.31, 11.64 127.34 C15.97 125.36, 25.62 130.38, 31.96 128.54 C38.29 126.71, 49.6 118.82, 49.67 116.33 C49.74 113.84, 37.31 115.46, 32.38 113.59 C27.44 111.71, 19.4 110.78, 20.07 105.1 C20.73 99.42, 31.28 89.55, 36.37 79.5 C41.46 69.46, 47.65 56.72, 50.6 44.84 C53.56 32.95, 57.51 16.8, 54.1 8.2 C50.69 -0.41, 39.18 -3.88, 30.15 -6.78 C21.11 -9.68, 8.75 -10.08, -0.12 -9.19 C-9 -8.31, -19.67 -2.94, -23.1 -1.45" stroke="#364fc7" stroke-width="1" fill="none"></path></g></g><g stroke-linecap="round"><g transform="translate(932.7572346904549 84.37699145901445) rotate(0 -3.1403219383583405 67.29768494800642)"><path d="M-3.4 0.73 C-5.81 3.12, -13.89 8.53, -17.26 15.23 C-20.64 21.93, -22.89 31.7, -23.67 40.94 C-24.46 50.19, -21.86 62.89, -21.97 70.69 C-22.09 78.49, -24.66 82.75, -24.37 87.74 C-24.08 92.73, -22.7 97.12, -20.26 100.64 C-17.82 104.16, -13.8 106.56, -9.75 108.86 C-5.7 111.16, -0.18 113.03, 4.04 114.47 C8.25 115.91, 13.15 115.44, 15.52 117.49 C17.88 119.54, 18.85 123.91, 18.21 126.75 C17.57 129.59, 12.59 133.31, 11.7 134.52 M-4.71 0.07 C-7.33 2.06, -14.83 7.11, -18.06 13.59 C-21.28 20.07, -23.38 29.82, -24.04 38.96 C-24.69 48.1, -21.8 60.23, -22 68.45 C-22.21 76.66, -25.27 82.5, -25.28 88.25 C-25.29 94, -24.23 99.68, -22.06 102.94 C-19.89 106.19, -16.56 105.88, -12.28 107.78 C-8 109.67, -0.81 112.34, 3.63 114.31 C8.08 116.27, 11.83 117.61, 14.38 119.55 C16.94 121.49, 19.4 123.8, 18.95 125.94 C18.5 128.08, 12.86 131.04, 11.66 132.37" stroke="#364fc7" stroke-width="1" fill="none"></path></g></g><g stroke-linecap="round"><g transform="translate(974.6497308995824 83.13827630806047) rotate(0 20.398295091995067 53.66019828278273)"><path d="M0.73 0.3 C2.62 0.76, 7.47 0.57, 12.23 3.09 C17 5.62, 25.14 8.4, 29.3 15.44 C33.46 22.48, 36.27 35.88, 37.2 45.32 C38.12 54.75, 34.37 64.15, 34.84 72.06 C35.3 79.96, 39.71 86.78, 39.97 92.77 C40.24 98.76, 37.05 105.49, 36.44 108 M-0.34 -0.59 C1.4 -0.49, 6.9 -1.47, 11.77 1.37 C16.64 4.22, 24.56 9.49, 28.89 16.48 C33.22 23.47, 36.99 33.92, 37.76 43.32 C38.52 52.72, 32.93 64.74, 33.49 72.89 C34.04 81.04, 40.42 86.49, 41.06 92.22 C41.7 97.95, 38.28 104.64, 37.34 107.27" stroke="#364fc7" stroke-width="1" fill="none"></path></g></g><g stroke-linecap="round"><g transform="translate(1008.771248578847 230.1301275610311) rotate(0 -5.970760949151838 -61.34436483069318)"><path d="M-2.83 -14.67 C-2.64 -16.71, -2.48 -24.14, -1.68 -27.09 C-0.88 -30.04, 0.06 -30.98, 1.98 -32.37 C3.91 -33.75, 9.84 -33.87, 9.87 -35.4 C9.89 -36.92, 4.44 -38.84, 2.13 -41.5 C-0.17 -44.16, -1.9 -47.18, -3.97 -51.36 C-6.05 -55.55, -7.55 -59.88, -10.31 -66.63 C-13.06 -73.38, -19.36 -85.12, -20.52 -91.87 C-21.68 -98.62, -20.83 -104.71, -17.27 -107.12 C-13.71 -109.52, -2.36 -106.37, 0.86 -106.31 M-4.14 -15.24 C-4.06 -17.68, -3.07 -25.66, -2.22 -28.86 C-1.38 -32.05, -0.6 -33.51, 0.94 -34.4 C2.48 -35.28, 6.99 -33, 7.01 -34.17 C7.04 -35.34, 3.23 -38.44, 1.11 -41.44 C-1.01 -44.43, -3.43 -47.75, -5.73 -52.14 C-8.03 -56.53, -10.15 -61.08, -12.7 -67.8 C-15.24 -74.51, -19.96 -86.19, -21.01 -92.42 C-22.05 -98.66, -22.68 -102.9, -18.97 -105.2 C-15.26 -107.5, -2.33 -106.19, 1.27 -106.24" stroke="#364fc7" stroke-width="1" fill="none"></path></g></g><g stroke-linecap="round"><g transform="translate(909.0195283566603 136.824753275397) rotate(0 17.07233355163413 26.084681792670196)"><path d="M0.92 -0.42 C2.72 -1.49, 7.5 -6.15, 11.55 -7.26 C15.6 -8.38, 21.73 -8.99, 25.22 -7.11 C28.71 -5.23, 31.43 -1.59, 32.51 3.99 C33.58 9.57, 32.39 19.82, 31.66 26.36 C30.92 32.91, 29.18 37.42, 28.12 43.26 C27.06 49.09, 25.89 58.55, 25.3 61.39 M-0.05 -1.07 C1.59 -2, 6.82 -4.7, 10.96 -6.01 C15.1 -7.31, 21.11 -10.21, 24.76 -8.89 C28.42 -7.58, 31.41 -4.14, 32.87 1.88 C34.33 7.9, 34.64 20.42, 33.52 27.24 C32.4 34.07, 27.37 37.28, 26.13 42.84 C24.9 48.4, 26.59 57.73, 26.12 60.58" stroke="#364fc7" stroke-width="1" fill="none"></path></g></g><g stroke-linecap="round"><g transform="translate(999.1551757860682 127.11718679612204) rotate(358.18735542929625 -1.0876415644673898 4.114562809859493)" fill-rule="evenodd"><path d="M0.8 -0.68 L-6.33 1.65 L-1.75 8.21 L5.13 2.03 L-1.75 0.59" stroke="none" stroke-width="0" fill="#4c6ef5" fill-rule="evenodd"></path><path d="M-0.14 0.68 C-1.17 1.09, -6.87 2.37, -6.77 3.39 C-6.67 4.4, -1.53 7.27, 0.45 6.8 C2.44 6.32, 5.2 1.58, 5.13 0.53 C5.06 -0.52, 0.83 0.53, 0.03 0.5 M-1.2 -0.01 C-2.46 -0.03, -8.24 0.2, -8 1.58 C-7.76 2.95, -2.06 8.28, 0.25 8.24 C2.55 8.19, 6.03 2.49, 5.83 1.31 C5.62 0.13, 0.24 1.46, -0.96 1.15" stroke="#364fc7" stroke-width="1" fill="none"></path></g></g><g stroke-linecap="round"><g transform="translate(929.9748517882022 133.05195525650936) rotate(14.802012269513854 -0.5415343197611833 2.913961645317542)" fill-rule="evenodd"><path d="M-2.07 -1.14 L-4.75 3.5 L-0.7 5.33 L3.66 4.13 L6.43 0.5 L0.96 -1.03" stroke="none" stroke-width="0" fill="#4c6ef5" fill-rule="evenodd"></path><path d="M-0.25 -0.53 C-1.21 -0.04, -5.62 2.46, -5.8 3.72 C-5.99 4.98, -2.73 6.63, -1.35 7.03 C0.02 7.42, 1.35 7.03, 2.46 6.09 C3.56 5.15, 5.79 2.23, 5.28 1.39 C4.77 0.55, 0.51 1.27, -0.59 1.02 M-1.35 1.81 C-2.5 1.92, -6.33 1.6, -6.44 2.15 C-6.55 2.71, -3.47 4.82, -2 5.13 C-0.53 5.44, 1.37 5.09, 2.38 4.02 C3.39 2.96, 4.91 -0.67, 4.07 -1.26 C3.23 -1.84, -1.83 0.55, -2.66 0.52" stroke="#364fc7" stroke-width="1" fill="none"></path></g></g><g transform="translate(917.9264966467031 16.702741962048925) rotate(0 0.00004273265597021236 0.00004273265594534337)" stroke="none" fill="#364fc7"><path d="M 1.8561553006146871 -1.8561553006146871 Q 1.8561553006146871 -1.8561553006146871 2.224418597338462 -1.1333978856726465 2.5926818940622365 -0.41064047073060594 2.224418597338462 -1.1333978856726465 1.8561553006146871 -1.8561553006146871 2.224418597338462 -1.1333978856726465 2.5926818940622365 -0.41064047073060594 2.465787010028351 0.39054229554285214 2.3388921259944655 1.1917250618163102 1.7653085939053876 1.765308593905388 1.19172506181631 2.338892125994466 0.39054229554285225 2.465787010028351 -0.4106404707306055 2.5926818940622365 -1.1333978856726463 2.224418597338462 -1.856155300614687 1.8561553006146874 -2.224418597338462 1.1333978856726468 -2.5926818940622365 0.41064047073060617 -2.465787010028351 -0.3905422955428519 -2.338892125994466 -1.19172506181631 -1.7653085939053883 -1.7653085939053876 -1.1917250618163107 -2.3388921259944655 -0.3905422955428537 -2.465787010028351 0.4106404707306033 -2.592681894062237 1.1333978856726452 -2.2244185973384623 Z"></path></g><g transform="translate(823.5822884657073 10) rotate(0 136.31717246484084 60.6803714420295)"><text x="272.63434492968173" y="42.6803714420295" font-family="Virgil, Segoe UI Emoji" font-size="47.75298826716959px" fill="#000000" text-anchor="end" style="white-space: pre;" direction="ltr">PostgreSQL</text><text x="272.63434492968173" y="103.360742884059" font-family="Virgil, Segoe UI Emoji" font-size="47.75298826716959px" fill="#000000" text-anchor="end" style="white-space: pre;" direction="ltr"></text></g><g stroke-linecap="round" transform="translate(1034.3820178785406 612.3068022847303) rotate(0 0.030695050234101018 0.030695050234101018)"><path d="M0 0 C0 0, 0 0, 0 0 M0 0 C0 0, 0 0, 0 0" stroke="#000000" stroke-width="0.5" fill="none"></path><path d="M0 0 C0.01 0, 0.03 0, 0.06 0 M0 0 C0.02 0, 0.04 0, 0.06 0 M0.06 0 C0.06 0.02, 0.06 0.04, 0.07 0.06 M0.06 0 C0.06 0.02, 0.06 0.04, 0.06 0.06 M0.06 0.06 C0.05 0.06, 0.04 0.07, 0 0.06 M0.06 0.06 C0.04 0.06, 0.02 0.06, 0 0.06 M0 0.06 C0 0.04, 0 0.02, 0 0 M0 0.06 C0 0.04, 0 0.02, 0 0" stroke="#000000" stroke-width="1" fill="none"></path></g><g stroke-linecap="round" transform="translate(883.4562847289712 599.8271565954058) rotate(0 36.125638010468776 35.42793464641693)"><path d="M6.69 12.44 C6.69 12.44, 6.69 12.44, 6.69 12.44 M6.69 12.44 C6.69 12.44, 6.69 12.44, 6.69 12.44 M-0.83 25.53 C12.37 13.42, 14.11 5.74, 18.99 7.5 M3.58 21.58 C4.43 17.59, 9.72 13.01, 19.29 5.37 M-3.51 37.42 C3.51 24.81, 6.89 17.81, 23.06 3.78 M-1.24 33.19 C6.45 23.16, 16.37 12.17, 26.37 3.34 M3.48 37.07 C8.87 24.03, 24.92 8.98, 34.12 2.87 M1.96 35.87 C7.73 27.72, 19.26 16.61, 32.11 0.44 M5.69 41.66 C12.21 33.08, 16.11 20.53, 39.47 3.06 M1.32 41.53 C14.65 26.9, 27.1 14.73, 37.77 0.89 M0.98 49.32 C14.71 35.15, 28.3 18.14, 39.24 -1.47 M3.54 47.59 C12.98 35.16, 20.72 27.48, 41.11 2.98 M2.35 51.58 C18.3 36.79, 35.59 22.45, 43.03 3.95 M4.64 48.54 C15.64 37.27, 24.26 25.67, 47 4.68 M5.99 55.19 C13.44 41.38, 24.38 28.89, 53.98 4.87 M7.98 54.79 C16.36 44.61, 27.84 30.74, 51.43 5.12 M11.31 60.06 C21.99 42.51, 28.59 30.92, 58.21 6.6 M8.19 57.69 C26.08 36.11, 47.33 16.53, 52.86 6.52 M10.99 59.33 C25.36 43.06, 44.8 23.79, 54.17 10.57 M11.19 58.66 C27.44 46.49, 42.42 27.16, 57.52 9.65 M18.37 66.03 C29.27 53.13, 38.49 36.82, 62.58 9.97 M17.5 62.93 C32.95 44.4, 46.79 26.41, 63.31 10.47 M20.76 61.46 C33.2 56.99, 38.17 42.79, 64.67 10.9 M21.51 64.91 C28.19 51.78, 38.39 44.08, 65.95 12.39 M19.6 65.53 C30.04 52.2, 36.77 44.98, 63.99 14.41 M23.51 65.7 C39.45 48.28, 54.07 30.43, 66.72 17.35 M25.71 66.91 C34.62 54.68, 45.81 45.43, 69.95 24.71 M26.95 68.21 C42.43 52.89, 56.64 32.62, 67.98 21.12 M30.68 65.61 C41.42 64.25, 43.79 54.96, 71.11 24.99 M29.78 70.87 C46.51 53.57, 59.35 36.42, 68.35 26.14 M39.06 71.98 C49.14 58.46, 53.29 44.41, 74.63 32.6 M38.48 67.63 C48.44 58.16, 54.5 48.62, 70.13 31.8 M39.55 68.17 C54.28 53.6, 67.42 39.85, 76.91 29.87 M43.29 68.55 C55.94 56.07, 65.78 41.38, 71.87 34.29 M49.15 66.63 C52.7 60.98, 63.26 47.33, 69.07 37.54 M48.24 67.32 C54.68 59.64, 64.24 47.98, 73.75 39.14 M54.48 70.42 C60.22 65.82, 67.03 58.04, 72.12 43.82 M52.43 68.61 C59.12 63.33, 63.23 57.74, 70.77 47.29 M7.13 55.82 C7.13 55.82, 7.13 55.82, 7.13 55.82 M7.13 55.82 C7.13 55.82, 7.13 55.82, 7.13 55.82 M25.84 70.65 C24.01 59.35, 17.92 56.72, 4.78 47.59 M26.75 68.35 C17.75 61.66, 11.28 53.46, 2 48 M33.23 69.86 C27.87 58.32, 18.5 50.89, -2.11 39.01 M33.87 66.39 C23.13 60.49, 14.14 53.4, 1.48 37.33 M38.02 66.78 C25.66 55.21, 13.57 45.23, -1.05 30.25 M38.97 65.13 C31.99 62.65, 23.9 52.62, -1.42 33 M43.08 69.89 C34.58 57.34, 21.16 45.3, 2.73 32.79 M45.71 68.62 C29.37 50.79, 13.92 38.51, 1.48 28.96 M52.62 68.22 C40.32 57.64, 22.67 44.83, 5.92 24.25 M50.08 66.23 C42.01 60.26, 30.94 49.53, 2.85 25.68 M55.97 63.4 C43.55 51.72, 32.59 45.56, 6.06 19.09 M54.27 65.77 C34.95 50.3, 16.11 34.09, 2.58 19.81 M54.08 61.38 C40.33 47.25, 32.9 33.95, 5.34 15.1 M56.99 60.29 C45.74 50.68, 29.08 36.33, 5.64 15.87 M57.06 62.58 C50.32 51.18, 38.77 40.61, 8.03 14.86 M61.02 59.26 C46.18 47.34, 29.89 32.89, 7.37 14.62 M62.84 55.82 C40.98 38.3, 24.28 19.76, 9.83 13.57 M63.74 57.55 C50.2 43.13, 36.43 31.75, 8.81 10.09 M66.76 50.92 C57.24 42.61, 40.48 32.76, 13.5 6.4 M64.73 53.17 C48.56 37.19, 28.75 24.07, 12.26 7.88 M67.25 51.3 C48.18 34.43, 23.7 16.09, 18.73 1.81 M71.34 50.84 C56.28 38.15, 39.78 27.8, 17.06 3.62 M73.62 46.05 C53.96 32.21, 31.88 14.25, 22.01 4.1 M68.43 47.16 C56.35 32.72, 37.88 20.21, 19.44 4.56 M73.55 39.04 C56.39 30.42, 40.22 10.66, 21.03 1.43 M69.81 42.82 C56.16 29.52, 39.76 17.77, 22.82 2.63 M71.39 39.65 C65.16 25.65, 50.05 24.76, 26.03 0.41 M70.44 38.34 C58.22 29.18, 44.58 15.95, 29.11 0.14 M75.52 33.47 C62.36 20.93, 54.84 13.82, 36.68 2.08 M73.78 31.83 C62.16 24.53, 56.39 17.14, 33.55 -1.25 M71.03 25.41 C68.37 26.18, 56.13 18.91, 37.46 -3.48 M74.37 27.23 C60.37 18.64, 46.66 5.48, 40.01 1.2 M70.03 18.57 C66.68 14.59, 55.81 9.1, 46.56 2.76 M72.09 20.14 C62.9 14.65, 56.72 8.5, 47.8 4.3 M68.73 15.46 C65.74 10.29, 62.01 6.71, 61.46 7.26 M67.88 13.66 C65.1 10.38, 63.61 9.51, 59.13 5.69" stroke="#000000" stroke-width="0.5" fill="none"></path><path d="M18.63 4.07 C24.35 -0.04, 31.79 -0.42, 39.2 0.24 C46.62 0.89, 57.84 2.91, 63.14 8 C68.44 13.08, 70.23 23.07, 71.01 30.75 C71.79 38.43, 71.16 47.83, 67.8 54.07 C64.45 60.32, 57.96 65.74, 50.88 68.24 C43.8 70.74, 32.65 71.19, 25.32 69.09 C17.99 66.98, 11.43 61.25, 6.88 55.61 C2.34 49.97, -1.91 42.42, -1.94 35.22 C-1.97 28.03, -1.09 18.04, 6.69 12.44 C14.46 6.85, 34.83 0.97, 44.71 1.64 C54.6 2.31, 66.67 15.83, 65.99 16.44 M27.49 3.44 C34.32 1.12, 41.51 -0.87, 48.03 0.83 C54.54 2.53, 63 7.58, 66.58 13.65 C70.16 19.71, 70.07 29.65, 69.49 37.22 C68.91 44.78, 67.5 53.77, 63.12 59.04 C58.73 64.3, 50.62 67.79, 43.19 68.81 C35.76 69.82, 24.76 68.01, 18.53 65.14 C12.31 62.26, 8.42 57.92, 5.85 51.54 C3.29 45.16, 1.56 34.38, 3.13 26.85 C4.69 19.31, 11.37 10.05, 15.25 6.32 C19.12 2.58, 24.33 5.43, 26.37 4.44 C28.41 3.45, 27.39 -0.18, 27.5 0.37" stroke="#000000" stroke-width="1" fill="none"></path></g><g stroke-linecap="round" transform="translate(896.4784072504574 612.7235518744917) rotate(0 23.674070133367195 21.9711322812837)"><path d="M41.71 9.72 C45.14 12.91, 49.11 18.23, 48.83 22.65 C48.55 27.06, 43.77 32.58, 40.03 36.22 C36.28 39.85, 31.09 43.75, 26.37 44.46 C21.64 45.17, 16.01 42.88, 11.69 40.48 C7.36 38.09, 1.85 34.65, 0.4 30.11 C-1.06 25.56, 0.91 18.03, 2.94 13.22 C4.97 8.41, 8 3.47, 12.56 1.26 C17.13 -0.94, 24.59 -2.53, 30.36 0.01 C36.12 2.54, 44.26 11.96, 47.15 16.48 C50.04 21, 48.13 27.11, 47.69 27.12 M34.97 0.82 C38.84 3.59, 44.63 11.98, 46.12 17.05 C47.62 22.13, 45.92 26.97, 43.93 31.26 C41.94 35.56, 38.74 41.22, 34.17 42.82 C29.6 44.42, 21.66 42.13, 16.5 40.86 C11.33 39.59, 6.31 38.3, 3.2 35.19 C0.08 32.08, -2.86 27.14, -2.21 22.2 C-1.56 17.27, 3.04 9.18, 7.1 5.58 C11.15 1.98, 17.56 0.61, 22.13 0.6 C26.69 0.58, 32.33 5.26, 34.5 5.47 C36.67 5.68, 35.56 2.18, 35.14 1.86" stroke="none" stroke-width="0" fill="#000000"></path><path d="M13.47 0.89 C17.69 -0.98, 26.15 1.62, 30.87 3.03 C35.59 4.44, 38.99 5.68, 41.79 9.35 C44.59 13.02, 47.8 20.13, 47.66 25.05 C47.52 29.97, 44.75 35.97, 40.95 38.85 C37.15 41.73, 30.25 42.32, 24.86 42.31 C19.47 42.3, 12.91 41.71, 8.62 38.79 C4.34 35.86, 0.16 29.4, -0.85 24.75 C-1.85 20.09, -1 14.7, 2.62 10.84 C6.23 6.99, 16.22 3.02, 20.86 1.6 C25.51 0.18, 30.03 2.52, 30.49 2.32 M33.76 5.74 C38.44 8.2, 46.24 10.74, 47.99 14.82 C49.74 18.89, 46.96 26.2, 44.26 30.2 C41.56 34.21, 36.34 36.51, 31.8 38.83 C27.26 41.14, 21.61 44.44, 17.03 44.1 C12.44 43.76, 7.39 40.67, 4.29 36.79 C1.19 32.91, -1.67 25.3, -1.59 20.83 C-1.51 16.37, 0.78 13.12, 4.79 10.02 C8.79 6.92, 17.17 3.1, 22.44 2.23 C27.7 1.37, 34.33 4.37, 36.39 4.83 C38.46 5.29, 34.59 4.57, 34.82 5" stroke="#ffffff" stroke-width="1" fill="none"></path></g><g stroke-linecap="round" transform="translate(889.0106271522898 521.9714847222062) rotate(0 28.396819250723524 27.848384471139525)"><path d="M1.93 13.6 C1.93 13.6, 1.93 13.6, 1.93 13.6 M1.93 13.6 C1.93 13.6, 1.93 13.6, 1.93 13.6 M-0.53 20.63 C3.48 16.25, 15.74 5.04, 17.54 -2.71 M1.97 20.09 C7.15 13.02, 9.63 7.25, 18.31 -1.1 M2.99 28.34 C5.61 22.66, 14.35 8.64, 20.19 -1.24 M-0.6 27.73 C6.32 19.81, 9.93 14.2, 22.17 0.88 M5.35 33.99 C14.27 19.91, 18.26 9.52, 30.22 -0.41 M2.97 30.75 C12.84 19.04, 20.33 8.99, 30.65 -0.73 M3.25 33.6 C17.44 24.89, 25.39 14.15, 30.37 -0.71 M4.4 37.94 C12.44 23.76, 24.33 11.85, 34.52 2.92 M2.34 38.28 C11.99 32.46, 23.8 19.39, 39.42 -0.08 M4.79 38.57 C12.84 33.77, 20.59 22.42, 36.5 4.14 M5.96 43.93 C11.84 35.76, 23.01 26.11, 44.83 7.14 M5.29 45.15 C13.82 34.06, 22.29 25.12, 39.82 2.87 M10.49 49.78 C20.09 34.78, 30.95 17.82, 42.2 4.86 M10.43 47.1 C23.73 32.8, 37.04 17.35, 45.56 6.42 M14.73 46.85 C26.95 38.06, 39.83 17.9, 44.58 8.13 M11.4 52.14 C24.79 33.5, 38.73 16.68, 50 9.36 M17.99 50.54 C22.45 41.39, 29.4 33.85, 53.19 10 M16.11 50.08 C21.58 41.75, 30.6 36.92, 53.19 9.48 M22.78 55.49 C31.71 46.12, 41.74 35.47, 56.85 12.64 M21.8 52.66 C31.77 41.5, 41.62 29.97, 54.34 13.98 M24.78 51.21 C34.68 40.81, 46.65 36.17, 54.03 19.52 M24.94 56.28 C36.02 44.83, 42.67 32.71, 55.83 20.68 M30.99 58.75 C35.22 43.81, 46.78 30.49, 52.01 24.42 M29.32 55.69 C36.13 46.84, 42.31 40.92, 54.3 26.12 M39.61 51.49 C41.99 43.72, 45.47 38.29, 51.9 34.66 M37.89 51.88 C44 43.56, 51.47 37.75, 55.57 29.84 M40.35 51.1 C47.02 42.88, 54.04 45.02, 53.75 38.42 M42.99 53.13 C46.47 47.17, 53.38 41.7, 55.76 36.77 M8.29 48.38 C8.29 48.38, 8.29 48.38, 8.29 48.38 M8.29 48.38 C8.29 48.38, 8.29 48.38, 8.29 48.38 M19.47 51.4 C12.12 48.82, 11.59 43.86, 6.2 36.66 M17.52 52.72 C14.34 47.56, 8.23 44.16, 2.19 40.39 M32.26 53.55 C23.56 47.48, 13.11 45.25, 0.1 27.04 M29.47 54.07 C23.54 48.52, 15.51 44.93, -0.15 28.66 M32.84 53.58 C23.75 44.96, 11.1 36.83, 2.43 28.22 M31.65 54.65 C23.54 44.13, 14.56 35.35, 1.02 24.9 M41.31 51.3 C27.95 40.18, 15.91 33.07, 4.77 22.37 M39.27 53.64 C24.29 40.9, 12.09 27.11, 3.01 22.59 M44.47 54.1 C32.72 45.82, 26.47 30.22, 4.3 14.77 M41.7 53.07 C28.74 40.71, 13.03 28.01, 1.62 15.23 M46.39 46.85 C35.7 42.11, 26.91 28.14, 3.88 9.09 M45.06 50.89 C36.4 38.68, 22.59 30.2, 1.27 12.65 M46.82 49.17 C31.88 31.39, 14.11 14.81, 4.46 7.35 M48.53 47.26 C38.08 33.31, 27.13 27.02, 7.22 8.09 M49.11 42.02 C40.75 37.66, 33.27 26.6, 8.61 5.33 M52.19 42.19 C37.99 33.33, 23.43 17.17, 11.17 6.59 M50.52 38.4 C41.66 29.03, 30.92 20.54, 14 8.39 M53.29 39.32 C37.14 24.35, 23.98 13.99, 12.57 3.95 M52.36 35.92 C44.6 23.42, 32.21 12.27, 17.72 3.47 M56.33 37.58 C41.2 25.11, 28.28 13.82, 16.95 3.79 M56.39 28.79 C45.53 23.66, 37.08 15.1, 22.69 -3.61 M55.38 32.16 C46.18 20.67, 37.44 13.82, 18.22 -2.19 M58.66 25.12 C44.64 21.23, 41.39 12.81, 28.26 1.76 M55.89 26.98 C46.79 17.4, 37.85 10.61, 27.23 0.92 M56.42 20.14 C47.66 13.5, 37.88 6.95, 32.55 -2.23 M55.5 20.86 C48.29 14.68, 41.11 6.72, 34.05 0.97 M57.73 14.24 C51.3 7.6, 48.65 5.44, 36.65 -0.04 M57.59 16.75 C48.81 9.74, 45.64 4.13, 38.09 1.6" stroke="#000000" stroke-width="0.5" fill="none"></path><path d="M37.96 1.94 C43.57 3.56, 52.41 7.29, 55.31 12.61 C58.22 17.93, 56.89 27.45, 55.39 33.84 C53.89 40.22, 50.81 47.23, 46.31 50.9 C41.81 54.58, 34.77 56.35, 28.39 55.89 C22.01 55.43, 12.81 52.36, 8.03 48.16 C3.26 43.95, 0.71 36.46, -0.26 30.65 C-1.24 24.84, -0.9 18.36, 2.2 13.29 C5.3 8.23, 10.88 1.38, 18.36 0.26 C25.84 -0.85, 41.51 4.52, 47.09 6.61 C52.66 8.69, 52.64 12.37, 51.79 12.77 M22.11 3.08 C27.81 1.23, 33.48 -0.72, 38.7 0.77 C43.92 2.26, 50.96 6.79, 53.44 12.02 C55.91 17.26, 54.71 25.98, 53.55 32.18 C52.38 38.38, 50.58 45.59, 46.42 49.23 C42.27 52.88, 34.87 54.43, 28.64 54.06 C22.4 53.7, 13.29 50.5, 9.03 47.07 C4.77 43.64, 3.52 39.18, 3.09 33.51 C2.66 27.84, 3.41 18.61, 6.43 13.04 C9.45 7.46, 18.74 1.48, 21.2 0.07 C23.65 -1.33, 20.9 4.29, 21.16 4.61" stroke="#000000" stroke-width="1" fill="none"></path></g><g stroke-linecap="round" transform="translate(899.6927959382706 533.4425765572867) rotate(0 17.191474489371217 16.636286168062213)"><path d="M26.29 1.64 C29.41 2.65, 30.54 6.09, 31.67 9.48 C32.8 12.88, 33.81 18.54, 33.08 22.01 C32.35 25.49, 30.38 28.25, 27.29 30.34 C24.21 32.42, 18.11 34.96, 14.56 34.51 C11.01 34.05, 8.42 30.63, 6 27.61 C3.59 24.6, 0.21 19.96, 0.06 16.42 C-0.09 12.87, 2.88 9.21, 5.1 6.34 C7.31 3.47, 8.35 -1.43, 13.34 -0.8 C18.33 -0.17, 31.84 6.42, 35.04 10.14 C38.25 13.85, 32.95 20.96, 32.58 21.47 M6.57 5.86 C9.01 4.21, 12.29 1.45, 15.8 1.44 C19.3 1.43, 24.97 4.14, 27.59 5.82 C30.21 7.5, 31.16 8.35, 31.52 11.5 C31.88 14.65, 31.6 21.13, 29.75 24.71 C27.91 28.3, 23.36 32.11, 20.43 33.01 C17.5 33.91, 14.88 31.47, 12.18 30.12 C9.49 28.76, 6.45 27.3, 4.25 24.89 C2.06 22.48, -1.3 19.48, -1.01 15.66 C-0.71 11.84, 5.19 4.17, 6.03 1.96 C6.88 -0.25, 4.08 1.85, 4.07 2.39" stroke="none" stroke-width="0" fill="#000000"></path><path d="M28.63 6.18 C31.28 8.26, 31.7 10.12, 32.32 13.34 C32.94 16.56, 33.76 22.22, 32.36 25.51 C30.97 28.8, 27.5 32.24, 23.95 33.07 C20.4 33.9, 14.82 32.02, 11.08 30.5 C7.33 28.98, 3.5 27.16, 1.47 23.97 C-0.55 20.78, -1.87 14.92, -1.05 11.37 C-0.22 7.82, 3.5 4.3, 6.42 2.66 C9.34 1.03, 11.73 -0.25, 16.45 1.55 C21.17 3.35, 31.72 10.41, 34.74 13.46 C37.76 16.51, 34.83 20.1, 34.58 19.87 M6.9 4.3 C9.45 1.37, 11.62 0.59, 14.51 -0.05 C17.41 -0.69, 21.33 -1.71, 24.28 0.49 C27.23 2.69, 30.93 9.01, 32.23 13.12 C33.53 17.24, 33.65 22.11, 32.06 25.17 C30.48 28.23, 26.19 29.79, 22.72 31.51 C19.25 33.24, 14.19 36.07, 11.23 35.5 C8.28 34.94, 6.81 31.27, 4.97 28.1 C3.12 24.93, 0.33 20.17, 0.15 16.48 C-0.03 12.8, 2.56 7.56, 3.89 6 C5.22 4.45, 8.06 7.02, 8.13 7.15" stroke="#ffffff" stroke-width="1" fill="none"></path></g><g stroke-linecap="round" transform="translate(892.154677297701 690.8202621704104) rotate(0 28.396819250723524 27.848384471139525)"><path d="M14.29 3.15 C14.29 3.15, 14.29 3.15, 14.29 3.15 M14.29 3.15 C14.29 3.15, 14.29 3.15, 14.29 3.15 M0.21 23.78 C13.67 11.38, 15.66 3.42, 20.68 5 M4.62 19.83 C5.62 15.66, 11.06 10.91, 20.99 2.86 M1.46 31.14 C7.77 19.42, 10.39 13.3, 24.75 1.28 M3.73 26.91 C10.22 18.24, 18.95 8.61, 28.06 0.84 M5.17 34.57 C10.09 22.11, 25.64 7.63, 34.51 1.88 M3.65 33.37 C9.08 25.61, 20.25 14.92, 32.5 -0.55 M6.73 39.91 C12.46 32.2, 15.57 20.55, 37.23 5.09 M2.36 39.78 C14.6 26.51, 25.92 15.63, 35.53 2.92 M3.33 46.07 C15.44 33.6, 27.5 18.35, 36.35 1.31 M5.89 44.34 C14.06 33.24, 20.57 26.98, 38.21 5.76 M5.36 47.57 C19.32 35.01, 34.66 22.91, 40.13 6.74 M7.64 44.52 C17.09 34.96, 24.26 25.03, 44.1 7.46 M9.66 50.43 C15.44 38.65, 24.65 28.16, 50.42 8.41 M11.64 50.02 C18.39 41.79, 28.09 29.96, 47.87 8.65 M15.63 54.54 C24.21 39.39, 28.6 30.34, 54 10.89 M12.51 52.17 C26.93 34.62, 44.79 18.94, 48.65 10.81 M14.66 54.56 C25.72 42.14, 41.77 26.77, 47.99 17.13 M14.86 53.9 C27.99 45.1, 39.9 29.29, 51.34 16.2 M24.65 58.25 C32.23 49.58, 37.91 37.34, 53.77 19.55 M23.79 55.15 C34.21 42.58, 42.76 30.68, 54.51 20.04 M28.36 52.17 C37.17 51.61, 38.5 41.6, 55.87 20.48 M29.11 55.62 C32.47 46.66, 39.3 42.84, 57.14 21.96 M29.17 53.97 C35.98 45.36, 38.79 42.64, 55.19 23.99 M33.07 54.14 C42.22 44.66, 49.82 34.88, 57.92 26.93 M37.25 53.08 C38.78 49.7, 42.02 49.59, 54.58 41.83 M38.49 54.38 C44.31 50.37, 48.26 41.9, 52.61 38.24 M13.85 52.66 C13.85 52.66, 13.85 52.66, 13.85 52.66 M13.85 52.66 C13.85 52.66, 13.85 52.66, 13.85 52.66 M22.42 55.73 C17.29 48.9, 6.42 41.61, 5.77 39.86 M21.84 51.39 C17.74 47.07, 10.15 43.67, 1.27 39.06 M23.67 52.58 C18.03 43.06, 10.79 34.67, 6.04 28.76 M27.41 52.97 C17.89 46.33, 5.82 37.41, 1 33.18 M34.68 50.95 C20.46 45.56, 13.2 32.7, -0.52 24.29 M33.77 51.63 C21.37 44.01, 12.06 33.19, 4.16 25.9 M38.4 52.01 C27.22 44.93, 17.09 34.89, 3.81 18.43 M36.35 50.2 C29.97 43.29, 20.89 35.92, 2.46 21.9 M39.5 44.97 C28.49 38.99, 26.75 35.86, 8.33 14.84 M39.66 48.96 C30.55 38.59, 20.43 32.63, 3.99 16.63 M43.42 50.43 C38.36 36.58, 29.15 31.24, 8.77 15.56 M44.33 48.12 C31.05 37.82, 20.2 25.82, 5.99 15.97 M47.79 47.01 C41.39 34.5, 30.98 26.16, 7.92 12.23 M48.43 43.54 C36.56 36.65, 26.39 28.53, 11.51 10.55 M50.31 41.96 C37.74 30.2, 25.41 20.03, 10.5 4.77 M51.27 40.31 C44.14 37.72, 35.89 27.55, 10.12 7.52 M51.6 41.79 C44.23 30.29, 31.98 19.26, 15.78 8.63 M54.23 40.52 C39.58 24.17, 25.77 13.32, 14.54 4.8 M55.86 35.53 C46.51 27.66, 31.89 17.49, 18.98 0.09 M53.32 33.54 C47.27 29.34, 38.19 20.35, 15.9 1.52 M56.95 28.74 C48.21 20.42, 41.1 17.61, 22.88 -1.79 M55.25 31.11 C42.25 20.71, 29.54 9.83, 19.4 -1.07 M54.3 26.07 C46.08 17.12, 44.21 8.66, 25.94 -2.5 M57.21 24.98 C51.25 20.2, 40.14 10.66, 26.23 -1.73 M55.77 25.95 C54.87 19.6, 48.91 13.89, 32.4 0.54 M59.73 22.63 C52.43 17.27, 43.79 9.47, 31.74 0.31" stroke="#000000" stroke-width="0.5" fill="none"></path><path d="M14.51 2.89 C19.09 -0.5, 24.77 -0.48, 30.51 0.67 C36.26 1.83, 44.51 5.58, 48.99 9.82 C53.47 14.05, 57.25 20.47, 57.38 26.1 C57.51 31.74, 53.54 39.05, 49.76 43.61 C45.98 48.17, 40.64 51.94, 34.68 53.47 C28.72 55, 19.54 55.38, 14.01 52.8 C8.48 50.22, 3.4 43.25, 1.51 37.97 C-0.38 32.7, -3.85 26.88, 2.65 21.14 C9.14 15.39, 31.93 3.05, 40.48 3.5 C49.02 3.94, 54.4 23.88, 53.91 23.82 M6.49 8.27 C9.6 2.98, 18.19 -1.56, 23.84 -2.54 C29.5 -3.52, 35.08 -1.07, 40.42 2.37 C45.76 5.81, 53.26 12.48, 55.91 18.12 C58.55 23.76, 58.62 30.76, 56.29 36.21 C53.96 41.66, 46.99 47.34, 41.91 50.83 C36.84 54.31, 31.41 58.02, 25.82 57.12 C20.23 56.23, 12.43 50.62, 8.37 45.45 C4.3 40.28, 1.46 31.64, 1.43 26.12 C1.4 20.61, 6.84 15.37, 8.19 12.34 C9.53 9.32, 9.24 7.67, 9.53 7.97" stroke="#000000" stroke-width="1" fill="none"></path></g><g stroke-linecap="round" transform="translate(902.9148829020253 702.4339730183369) rotate(0 17.694677421486574 16.672613652466282)"><path d="M27.07 2.9 C29.74 4.9, 33.15 10.1, 34.31 13.63 C35.47 17.17, 35.76 20.81, 34.01 24.09 C32.27 27.38, 27.24 32.01, 23.86 33.34 C20.49 34.67, 17.26 33.57, 13.77 32.09 C10.27 30.61, 4.86 27.44, 2.89 24.46 C0.91 21.47, 1.41 17.73, 1.9 14.19 C2.4 10.65, 3.1 5.7, 5.85 3.21 C8.61 0.73, 13.87 -1.44, 18.46 -0.74 C23.04 -0.05, 30.43 4.27, 33.37 7.39 C36.31 10.52, 36.59 17.69, 36.11 18 M3.52 6.14 C5.77 3.52, 11.78 2.63, 15.42 1.68 C19.06 0.74, 22.49 -1.24, 25.38 0.48 C28.27 2.19, 31.76 7.97, 32.76 11.98 C33.77 15.99, 32.5 21.55, 31.41 24.54 C30.32 27.52, 28.96 28.48, 26.23 29.89 C23.51 31.31, 19.13 33.29, 15.04 33.03 C10.95 32.78, 4.26 31.66, 1.7 28.38 C-0.87 25.09, -0.54 17.51, -0.37 13.32 C-0.2 9.13, 2 4.57, 2.73 3.23 C3.46 1.89, 3.07 5, 4.02 5.27" stroke="none" stroke-width="0" fill="#000000"></path><path d="M9.24 0.35 C12.58 -1.42, 19.6 -0.36, 23.73 1 C27.86 2.36, 32.09 5.79, 34.04 8.53 C35.99 11.27, 36.27 14.1, 35.41 17.43 C34.55 20.76, 31.99 26.18, 28.89 28.5 C25.8 30.83, 20.57 31.34, 16.87 31.4 C13.16 31.45, 9.63 30.46, 6.68 28.84 C3.73 27.21, -0.22 24.78, -0.83 21.64 C-1.43 18.5, -0.07 13.89, 3.06 9.99 C6.18 6.09, 14.57 -0.15, 17.91 -1.78 C21.26 -3.4, 23.6 -0.07, 23.13 0.23 M28.83 4.72 C30.77 6.6, 32.13 8.85, 32.43 12.54 C32.73 16.22, 32.42 23.23, 30.64 26.83 C28.85 30.43, 25.37 33.35, 21.71 34.14 C18.05 34.93, 12.25 32.81, 8.69 31.56 C5.12 30.31, 1.35 29.48, 0.32 26.63 C-0.71 23.78, 1.31 18.16, 2.51 14.47 C3.72 10.78, 4.98 6.69, 7.54 4.49 C10.11 2.29, 13.67 0.87, 17.9 1.28 C22.13 1.69, 31.23 6.2, 32.9 6.96 C34.57 7.73, 28.13 5.99, 27.92 5.87" stroke="#ffffff" stroke-width="1" fill="none"></path></g><g stroke-linecap="round" transform="translate(962.8123668620119 558.2126881943532) rotate(0 28.396819250723524 27.848384471139525)"><path d="M11.73 7.55 C11.73 7.55, 11.73 7.55, 11.73 7.55 M11.73 7.55 C11.73 7.55, 11.73 7.55, 11.73 7.55 M6.35 21.07 C7.15 14.67, 13.49 14.93, 17.53 6.05 M1.16 22.37 C6.87 17.36, 12.23 14.46, 18.67 5.59 M2.06 27.96 C7.38 18.64, 16.72 11.9, 30.69 -0.67 M0.92 30.14 C8.46 22.01, 18.62 13.29, 29.85 2.5 M0.23 35.9 C14.2 22.79, 25.37 13.4, 31.02 4.93 M2.03 35.27 C11.39 26.67, 16.87 18.91, 30.74 2.46 M4.76 42.05 C7.26 30.41, 19.98 25.7, 37.97 5.5 M3.99 41.12 C17.43 28.36, 29.31 12.08, 36.11 2.27 M5.4 45.66 C16.83 31.25, 20.89 20.67, 37.4 4.73 M6.22 42.97 C12.3 36.88, 19.93 27.94, 40.56 5.1 M8.59 48.52 C23.32 37.64, 27.39 23.38, 42.08 3.43 M8.82 45.45 C19.76 32.24, 34.49 21.03, 43.09 7.62 M8.68 48.55 C21.36 34.23, 40.08 21.95, 45.82 12.16 M11.77 51.19 C20.54 40, 29.65 30.64, 47.15 9.78 M16.07 50.15 C18.23 42.89, 33.25 35.45, 54.19 10.13 M12.96 52.33 C30.82 37.39, 41.24 21.53, 51.2 12.62 M15.18 55.86 C28.77 43.89, 33.04 36.36, 52.46 15.04 M18.14 57.13 C27.41 45.65, 33.37 39.62, 50.72 17.31 M26.53 58.46 C35.07 41.93, 44.24 30.98, 56.41 22.44 M24.88 55.17 C29.65 46.92, 39.3 38.31, 52.83 19.52 M32.83 57.62 C33.53 48.55, 40.79 39.51, 52.98 23.43 M28.66 53.12 C39.59 43.82, 51.02 29.71, 55.01 24.17 M33.62 50.29 C40.35 43.78, 50.6 31.44, 63.04 27.47 M35.43 54.08 C39.58 48.38, 47.92 39.99, 59.68 27.3 M36.68 53.77 C39.6 54.28, 49.82 49.02, 59.49 39.56 M40.93 55.83 C42.39 50.23, 46.34 46.91, 54.32 34.36 M16.61 54.05 C16.61 54.05, 16.61 54.05, 16.61 54.05 M16.61 54.05 C16.61 54.05, 16.61 54.05, 16.61 54.05 M24.38 54.19 C13.26 47.1, 15.14 47.4, 2.59 34.35 M24.2 52.27 C17.36 49.46, 13.68 48.78, 5.56 38.04 M28.27 51.07 C23.95 44.89, 19.1 38.76, 8.45 29.52 M28.42 54.75 C18.63 47.9, 11.89 41.73, 4.97 34.74 M31.19 53.75 C26.06 42.56, 15.11 36.69, 5.8 28.95 M32.42 52.84 C26.48 44.58, 21.13 39.26, 4.59 26.94 M39.9 55.17 C30.56 46.23, 19.35 31.36, 1.82 17.89 M39.83 51.24 C28.34 41.46, 16.05 32.39, 2.28 23.47 M38.22 46.2 C35.05 41.12, 25.56 28.1, 5.37 21.18 M42.52 47.25 C30.39 39.58, 15.42 25.61, 4.17 18.93 M47.66 42.94 C33.94 34.23, 20.18 25.01, 9.1 13.25 M43.2 47.08 C30.71 34.17, 16.49 24.59, 6.81 14.8 M50.52 42.05 C40.32 34.41, 29.3 30.31, 8.58 8.04 M46.44 44.34 C32.71 33.03, 23.19 19.59, 10.13 10.41 M49.81 39.38 C34.81 26.76, 21.08 12.84, 7.97 7.56 M52.5 43.59 C38.21 27.57, 22.24 16.45, 11.11 6.57 M55.07 39.25 C42.77 28.63, 35.38 25.12, 18.6 7.93 M55.15 36.81 C45.47 30.74, 35.12 22.89, 16.29 4.63 M58.54 37.71 C46.29 29.88, 38.98 16.76, 16.36 4.67 M55.69 35.68 C44.83 24.36, 35.29 16.59, 19.08 2.91 M57.52 27.84 C48.91 23.59, 39.17 11.22, 27.82 5.31 M57.36 31.89 C45.73 22.03, 30.57 7.73, 23.81 2.28 M54.98 24.43 C55.66 17.71, 45.19 12.75, 27.36 -2.03 M59.79 26.96 C48.42 16.59, 40.29 8.86, 26.84 1.91 M60.97 23.86 C56.22 19.21, 50.03 14.87, 39.33 3.97 M60.37 23.17 C53.72 17.03, 46.8 12.33, 40.61 4.81" stroke="#000000" stroke-width="0.5" fill="none"></path><path d="M28.04 0.52 C33.52 0.8, 42.35 4.28, 47.19 8.14 C52.03 12, 56.44 18.11, 57.1 23.68 C57.75 29.26, 54.47 36.73, 51.13 41.58 C47.79 46.43, 42.87 50.75, 37.06 52.78 C31.25 54.81, 22.03 55.87, 16.29 53.77 C10.55 51.66, 4.99 45.2, 2.62 40.15 C0.25 35.11, 0.55 28.93, 2.07 23.5 C3.58 18.07, 6.27 11.11, 11.71 7.58 C17.15 4.04, 29.57 3.02, 34.73 2.3 C39.89 1.57, 42.79 2.72, 42.67 3.24 M44.05 1.8 C48.71 4.6, 51.22 12.33, 53.06 18.43 C54.89 24.53, 56.85 32.93, 55.06 38.39 C53.28 43.85, 47.97 48.68, 42.36 51.2 C36.75 53.73, 27.09 54.35, 21.42 53.53 C15.75 52.71, 11.57 50.84, 8.35 46.27 C5.12 41.7, 1.93 32.61, 2.09 26.12 C2.25 19.64, 5.23 11.23, 9.3 7.36 C13.36 3.5, 20.34 3.71, 26.5 2.93 C32.67 2.15, 43.27 1.88, 46.29 2.7 C49.31 3.52, 45.23 6.92, 44.65 7.86" stroke="#000000" stroke-width="1" fill="none"></path></g><g stroke-linecap="round" transform="translate(973.6559911342324 569.0298853101597) rotate(0 17.694677421486688 17.536400503851553)"><path d="M16.4 0.74 C20.29 0.44, 26.12 1.15, 29.09 3.55 C32.06 5.96, 33.31 11.56, 34.22 15.17 C35.14 18.77, 36.21 22.3, 34.57 25.18 C32.93 28.07, 27.81 31.03, 24.4 32.46 C20.98 33.89, 17.63 34.9, 14.06 33.76 C10.48 32.62, 4.99 28.83, 2.96 25.6 C0.93 22.37, 1.41 18.17, 1.88 14.38 C2.34 10.6, 0.36 3.5, 5.75 2.88 C11.14 2.27, 30.06 6.75, 34.23 10.69 C38.39 14.63, 31.45 26.65, 30.75 26.52 M28.77 6.35 C31.42 7.93, 32.3 9.36, 32.58 12.72 C32.86 16.07, 32.43 22.77, 30.44 26.47 C28.46 30.16, 23.72 34.03, 20.66 34.9 C17.6 35.77, 14.84 33.2, 12.08 31.68 C9.32 30.17, 6.27 28.45, 4.1 25.82 C1.94 23.2, -1.31 19.93, -0.9 15.94 C-0.49 11.95, 3.77 4.78, 6.58 1.88 C9.4 -1.02, 12.38 -1.98, 15.98 -1.46 C19.58 -0.93, 25.6 4.14, 28.16 5.04 C30.72 5.93, 31.32 3.65, 31.34 3.92" stroke="none" stroke-width="0" fill="#000000"></path><path d="M33.1 8.22 C35.77 11.36, 37.09 16.98, 36.56 20.41 C36.03 23.84, 33 26.47, 29.9 28.81 C26.79 31.15, 21.99 34.34, 17.93 34.46 C13.88 34.59, 8.51 31.89, 5.58 29.55 C2.65 27.22, 1.16 23.54, 0.35 20.45 C-0.45 17.37, -1.15 14.03, 0.76 11.05 C2.67 8.06, 7.89 4.56, 11.82 2.55 C15.75 0.54, 20.22 -3.06, 24.32 -1.02 C28.41 1.02, 35.02 11.07, 36.39 14.8 C37.76 18.54, 32.77 21.05, 32.55 21.38 M12.02 -2.38 C15.5 -3.03, 21.56 0.56, 25.19 3.16 C28.81 5.75, 32.53 9.79, 33.77 13.19 C35 16.59, 34.09 19.79, 32.61 23.55 C31.14 27.3, 27.64 33.49, 24.92 35.7 C22.19 37.9, 19.76 37.73, 16.27 36.79 C12.79 35.84, 6.95 33.07, 4.03 30.02 C1.11 26.97, -1.75 22.12, -1.24 18.48 C-0.73 14.84, 4.72 11.09, 7.09 8.19 C9.45 5.28, 11.16 2.26, 12.93 1.03 C14.69 -0.2, 17.08 0.79, 17.68 0.79" stroke="#ffffff" stroke-width="1" fill="none"></path></g><g stroke-linecap="round" transform="translate(967.9841191745015 645.2990154501847) rotate(0 28.396819250723524 27.848384471139525)"><path d="M5.58 12.8 C5.58 12.8, 5.58 12.8, 5.58 12.8 M5.58 12.8 C5.58 12.8, 5.58 12.8, 5.58 12.8 M-0.46 21.4 C6.96 20.25, 10.9 11.67, 17.76 5.53 M0.31 23.01 C5.37 21.15, 7.51 17.28, 19.31 2.44 M-3.72 29.66 C7.19 21.49, 21.17 8.82, 24.38 3.88 M-1.73 31.77 C7.58 24.61, 14.09 19.37, 25.71 4.36 M3.03 34.25 C12.64 27.18, 17.12 19.6, 27.15 5.92 M3.46 33.94 C8.39 27.34, 12.49 22.16, 28.43 4.97 M0.56 36.98 C14.47 30.55, 23.62 19.82, 38.23 1.59 M4.71 40.61 C12.49 28.94, 21.16 17.51, 33.7 2.13 M7.64 39.87 C16.69 23.52, 30.15 11.22, 36.87 2.21 M4.72 44.09 C18.39 28.69, 33.06 12.38, 40.09 1.56 M11.74 48.6 C17.75 32, 30.06 15.31, 44.79 3.62 M6.73 44.33 C17.83 38.06, 23.21 29.42, 43.98 5.16 M7.14 48.58 C26.67 36.42, 32.4 26.82, 43.43 9.51 M10.5 50.14 C23.79 35.66, 33.57 23.25, 44.59 9.26 M10.83 50.35 C30.74 37.45, 43.43 20.84, 52.81 7.83 M16.26 51.57 C24.42 39.32, 37.51 27.54, 48.9 10.21 M19.44 52.21 C24.36 44.46, 38.25 30.08, 49.47 10.43 M19.44 51.69 C25.21 45.17, 32.11 36.16, 53.46 15.01 M23.11 54.85 C33.58 41.15, 48.86 28.04, 53.91 19.63 M20.59 56.19 C31.87 45.04, 40.32 31.41, 53.78 17 M24.22 57.2 C31.35 47.14, 34.21 42.03, 58.66 26.69 M26.01 58.37 C36.13 46.39, 42.43 37.42, 56.36 21.31 M25.48 58.33 C33.67 49.08, 46.18 45.74, 54.14 30.29 M27.77 60.03 C35.08 52.64, 40.54 47.29, 54.45 28.5 M33.89 58.76 C43.87 54.17, 48.44 50.82, 50.26 39.06 M37.57 53.94 C41.15 50.58, 42.34 45.83, 53.63 36.07 M9.34 48.7 C9.34 48.7, 9.34 48.7, 9.34 48.7 M9.34 48.7 C9.34 48.7, 9.34 48.7, 9.34 48.7 M18.24 51.99 C17.96 50.63, 5.51 38.07, -1.61 40.35 M20.86 53.53 C16.2 52.01, 14.09 46.45, 1.56 35.67 M30.25 51.67 C23.5 43.63, 15.72 36.55, -0.23 31.07 M26.24 55.4 C18.25 48.68, 11.91 42.29, -1.46 30.36 M32.45 49.28 C21.89 43.61, 19.61 41.79, -1.44 27.33 M32.2 50.9 C27.44 45.82, 20.13 41.15, 0.94 26.86 M38.55 53.73 C25.83 38.3, 12.37 28.79, 2.95 21.39 M37.15 50.41 C26.58 43, 17.2 37.58, 1.77 21.39 M43.91 50.51 C36.79 38.69, 25.86 39.11, 6.21 17.58 M42.15 50.73 C27.72 37.06, 16.11 30.11, 5.57 17.61 M47.21 46.19 C30.85 34.51, 14.8 18.98, 8.29 14.33 M44.54 46.65 C30.22 36.87, 15.82 23.5, 3.91 13.77 M48.31 41.82 C31.12 32.36, 17.19 16.5, 9.97 12.75 M45.69 45.38 C40.13 35.09, 28.64 27.17, 9.53 10.32 M48.13 39.43 C38 28, 23.74 21.6, 13.44 9.31 M50.89 40.16 C40.44 34.95, 33.18 27.83, 10.84 7.67 M50.77 36.1 C39.29 29.31, 26.07 15.67, 12.71 9.12 M53.33 37.35 C37.23 24.17, 22.35 10.54, 14.25 6.5 M55.41 38.49 C45.51 24.22, 27.21 16.18, 17.71 1.21 M53.98 34.06 C45.83 28.19, 36.39 19.61, 18.23 4.13 M56.11 30.95 C47.78 19.44, 40.98 17.35, 24.94 0.46 M55.34 31.27 C41.91 18.99, 32.23 11.11, 19.88 -0.5 M58.06 21.24 C45.86 14.16, 36.87 6.59, 24.08 -2.36 M53.59 22.67 C47.57 17.39, 40.05 14.98, 23.49 -3.71 M56.83 20.71 C47.02 13.6, 37.31 3.57, 32.15 -0.15 M55.81 19.88 C48.59 15.42, 43.13 8.47, 30.65 -1.59" stroke="#000000" stroke-width="0.5" fill="none"></path><path d="M5.67 12.69 C9.05 7.85, 16.7 2.73, 22.31 0.99 C27.92 -0.74, 34.11 -0.1, 39.35 2.27 C44.6 4.65, 51.41 9.69, 53.8 15.24 C56.2 20.79, 55.48 29.81, 53.72 35.57 C51.95 41.33, 47.7 46.32, 43.22 49.8 C38.74 53.29, 32.54 56.71, 26.84 56.49 C21.15 56.27, 13.83 52.75, 9.07 48.47 C4.3 44.18, -5.09 39.12, -1.75 30.79 C1.59 22.46, 20.38 1.04, 29.1 -1.52 C37.82 -4.09, 50.28 14.71, 50.56 15.38 M13.74 1.04 C18.94 -1.32, 29.8 -1.25, 36.34 0.28 C42.89 1.81, 49.65 5.45, 53 10.21 C56.35 14.97, 56.71 22.29, 56.44 28.83 C56.16 35.37, 55.27 44.95, 51.36 49.43 C47.45 53.9, 39.27 55.65, 32.98 55.66 C26.68 55.66, 18.72 52.42, 13.6 49.45 C8.47 46.49, 3.68 43.77, 2.21 37.88 C0.74 32, 2.28 19.59, 4.77 14.17 C7.26 8.75, 15.14 6.97, 17.14 5.36 C19.15 3.75, 16.88 4.23, 16.8 4.52" stroke="#000000" stroke-width="1" fill="none"></path></g><g stroke-linecap="round" transform="translate(979.8960405806749 656.7055250907672) rotate(0 17.1134376710217 16.955160753386735)"><path d="M13.88 0.29 C17.21 -0.58, 20.81 1.62, 24.18 3.22 C27.56 4.81, 32.57 6.96, 34.12 9.87 C35.67 12.78, 34.47 17.19, 33.47 20.67 C32.48 24.15, 31.19 28.78, 28.14 30.75 C25.1 32.72, 18.84 33, 15.19 32.5 C11.54 31.99, 8.79 30.42, 6.26 27.69 C3.72 24.96, 0.24 19.32, -0.04 16.1 C-0.32 12.89, 1.9 11.17, 4.57 8.39 C7.25 5.61, 13.49 0.66, 16.02 -0.59 C18.55 -1.84, 19.27 0.73, 19.74 0.91 M22.31 -0.78 C25.32 0.24, 29.33 5.91, 30.82 9.81 C32.31 13.71, 31.77 19.38, 31.24 22.62 C30.71 25.86, 30 27.33, 27.64 29.24 C25.28 31.16, 21.17 33.84, 17.09 34.09 C13.01 34.35, 6.09 33.78, 3.16 30.78 C0.24 27.78, -0.06 20.35, -0.44 16.08 C-0.83 11.81, -1.16 7.74, 0.88 5.18 C2.91 2.62, 7.45 1.46, 11.78 0.74 C16.1 0.01, 24.67 0.49, 26.8 0.85 C28.93 1.21, 25.27 2.91, 24.56 2.89" stroke="none" stroke-width="0" fill="#000000"></path><path d="M11.38 2.16 C14.41 0.24, 18.72 -1.75, 21.94 -0.98 C25.15 -0.21, 28.84 3.86, 30.64 6.8 C32.45 9.75, 33.02 13.13, 32.75 16.69 C32.47 20.25, 31.58 25.02, 28.99 28.14 C26.4 31.26, 20.68 34.78, 17.2 35.41 C13.72 36.04, 10.64 34.6, 8.09 31.92 C5.54 29.24, 2.78 23.16, 1.9 19.34 C1.02 15.52, 1.42 12.36, 2.82 8.99 C4.21 5.62, 8.2 0.31, 10.28 -0.88 C12.36 -2.07, 15.01 1.45, 15.3 1.85 M14.93 0.67 C18.77 1, 24.12 2.9, 27.01 4.98 C29.9 7.07, 31.61 9.39, 32.25 13.19 C32.89 16.98, 31.98 24.17, 30.84 27.76 C29.71 31.35, 28.61 33.59, 25.45 34.71 C22.29 35.84, 15.9 35.77, 11.88 34.51 C7.87 33.25, 2.84 30.12, 1.35 27.15 C-0.15 24.19, 2.54 20.39, 2.93 16.72 C3.32 13.05, 0.98 7.91, 3.7 5.16 C6.42 2.41, 16.88 1.19, 19.25 0.23 C21.62 -0.72, 18.04 -1.19, 17.91 -0.57" stroke="#ffffff" stroke-width="1" fill="none"></path></g><g stroke-linecap="round" transform="translate(913.0406783145293 577.5814291101547) rotate(0 4.710528643014868 11.105860365363242)"><path d="M0 0 C0 0, 0 0, 0 0 M0 0 C0 0, 0 0, 0 0 M-0.28 5.17 C1.61 5.48, 3.19 3.85, 6.41 1.14 M-0.24 6.7 C1.4 4.76, 3.78 1.81, 5.45 -0.15 M-0.67 14.96 C1.19 8.94, 4.88 2.08, 9.78 -1.21 M0.36 10.8 C3.1 8.27, 8.44 3.94, 10.65 2.04 M-0.64 19.77 C4.85 15.36, 4.86 12.13, 8.07 4.74 M0.51 19 C0.95 14.65, 2.89 12.1, 10.03 4.97 M-0.61 21.2 C5.45 19.05, 6.91 18.43, 9.43 12.4 M1.56 24.43 C3.76 20.14, 4.75 18.07, 8.97 13.26 M5.94 22 C6.64 22.64, 8.54 20.53, 10.31 19.46 M6.47 22.54 C7.23 22.49, 8.24 20.75, 10.3 18.79 M0.32 22.49 C0.32 22.49, 0.32 22.49, 0.32 22.49 M0.32 22.49 C0.32 22.49, 0.32 22.49, 0.32 22.49 M5.68 23.39 C4.99 19.56, 3.54 20.41, 0.47 16.44 M6.07 22.32 C4.3 19.89, 3.42 19.45, -0.28 16.26 M13.38 22.63 C6.85 18.22, 8.54 15.26, 2.02 13.3 M12.09 21.44 C6.87 17.69, 3.57 15.26, 1.33 11.32 M10.8 13.45 C8.25 12.31, 5.16 6.36, -0.01 3.89 M11.54 14.9 C7.28 12.51, 3.03 8.21, 0.1 7.44 M8.84 10.91 C8.85 8.28, 2.07 0.62, 2.13 2.87 M9.47 9.07 C8.41 7.39, 5.31 7.35, 0.96 0.73 M10.36 3.05 C9.21 2.53, 5.44 -0.28, 4.15 -3.69 M10.02 3.75 C9 3.13, 6.35 1.2, 3.2 -3.47" stroke="#000000" stroke-width="0.5" fill="none"></path><path d="M-0.8 0.49 C3 1.41, 6.3 0.36, 7.9 -0.57 M-0.04 -0.45 C1.98 0.91, 5.55 0.74, 10.07 -0.85 M6 3.12 C11.64 7.28, 7.53 15.69, 5.58 18.75 M10.34 -1.07 C9.35 4.56, 11.41 12.24, 10.78 22.26 M11.15 23.55 C4.9 22.8, 4.58 22.43, 0.86 21.64 M8.83 22 C5.7 22.55, 2.81 22.14, -0.36 22.84 M-2.63 25.76 C-0.82 14.68, -2.44 9.59, -1.54 -0.13 M-1.34 21.62 C-1.78 17.44, 1.26 11.34, 0.96 -0.66" stroke="#000000" stroke-width="1" fill="none"></path></g><g stroke-linecap="round" transform="translate(915.257189993499 670.1580395540311) rotate(0 4.710528643014868 10.61510674418264)"><path d="M0 0 C0 0, 0 0, 0 0 M0 0 C0 0, 0 0, 0 0 M-1.49 6.51 C2.07 4.91, 3.68 4.86, 5.77 1.49 M0.04 6.1 C1.85 4.81, 2.63 3.42, 4.47 0.88 M3.05 9.3 C3.25 7.07, 2.58 7.15, 8.04 3.21 M-1.11 11.23 C3.61 9.41, 6.53 5.97, 11.3 -0.06 M1.21 20.79 C2.78 14.76, 5.55 9.26, 8.75 3.89 M0.43 17.38 C2.82 12.26, 6.99 8.73, 8.98 5.94 M-0.4 24.61 C3.55 19.97, 8.92 14.53, 9.77 10.53 M2.6 23.45 C3.6 19.16, 6.67 14.81, 10.57 12.02 M5.63 22.15 C7.92 22.45, 7.46 21.76, 10.15 18.79 M6.17 22.75 C8.18 21.69, 8.5 20.95, 9.48 19.28 M0.05 21.28 C0.05 21.28, 0.05 21.28, 0.05 21.28 M0.05 21.28 C0.05 21.28, 0.05 21.28, 0.05 21.28 M7.91 21.92 C3.05 19.94, 3.21 18.52, -0.8 14.79 M6.71 21.36 C3.75 20.46, 2.86 18.04, -1.01 14.88 M12.17 17.97 C7.35 20.1, 4.02 17.66, 1.46 12.38 M10.98 19.82 C6.24 17.05, 3.13 14.08, -0.52 11.78 M8.86 16.8 C7.64 14.83, 1.57 8.98, -2.87 5.91 M10.4 15.01 C8.23 12.22, 4.4 10.94, 0.93 6.46 M11.04 11.45 C8.89 5.86, 1.6 5.22, 1.62 -2.07 M9.2 9.1 C7.02 5.83, 6.36 5.02, -0.52 0.67 M9.18 5.76 C9.26 3.28, 7.14 3.08, 1.36 -2.94 M9.89 5.19 C9.79 3.38, 8.18 2, 1.58 -2.26" stroke="#000000" stroke-width="0.5" fill="none"></path><path d="M0.49 0.16 C5.01 0.7, 7.72 -1.44, 8.85 -0.56 M-0.45 -0.57 C2.9 0.46, 4.9 0.65, 8.57 0.53 M12.54 2.35 C8.46 3.96, 8.95 7.58, 5.96 19.09 M8.35 -0.17 C8.41 8.73, 10.62 15.03, 9.47 22.18 M10.76 19.99 C7.5 23.11, 4.69 22.27, -0.58 22.44 M9.21 20.94 C6.23 21.37, 2.3 20.75, 0.63 21.81 M3.55 20.29 C0.48 12.87, 3.42 8.09, -0.13 -3.32 M-0.59 19.69 C-0.31 15.22, -1.6 7.15, -0.66 1.09" stroke="#000000" stroke-width="1" fill="none"></path></g><g stroke-linecap="round" transform="translate(956.6231304769503 644.6621532231459) rotate(303.0460002072582 4.710528643014868 10.61510674418264)"><path d="M0 0 C0 0, 0 0, 0 0 M0 0 C0 0, 0 0, 0 0 M-0.15 7.34 C0.85 6.46, 3.38 4.7, 6.12 0.12 M-0.56 6.92 C1.07 4.79, 2.61 3.08, 5.51 -0.36 M-2.6 12.97 C-0.01 7.25, 4.88 4.31, 12.47 0.61 M-0.68 12.67 C4.12 9.08, 7.31 6, 9.19 0.51 M2.22 18.41 C3.08 14.15, 4.46 8.86, 7.9 9.07 M-1.19 17.29 C1.19 14.05, 5.17 10.38, 9.94 7.69 M3.61 21.26 C5.19 20.68, 5.95 16.75, 7.88 13.74 M2.46 21.67 C3.82 19, 5.15 17.47, 9.37 11.76 M5.78 23.53 C7.81 21.4, 8.82 21.29, 9.47 19.41 M6.38 23.41 C7.21 21.95, 8.37 21.08, 9.97 19.3 M0.05 21.28 C0.05 21.28, 0.05 21.28, 0.05 21.28 M0.05 21.28 C0.05 21.28, 0.05 21.28, 0.05 21.28 M6.83 20.1 C5.32 21.24, 4.32 18.78, -1.18 15.24 M6.27 20.65 C5.41 20.31, 3.05 18.17, -1.09 14.94 M8.73 18.97 C9.25 15.26, 5.57 15.67, 1.76 12.89 M10.57 19.64 C6.99 17.16, 3.56 12.48, 1.15 10.72 M12.9 15.12 C9.74 8.74, 2.74 4.98, 0.53 2.57 M11.11 14.79 C5.72 9.51, 2.17 8.37, 1.09 5.16 M12.8 10.77 C7.45 4.29, 6.77 5.86, -2.1 -1.24 M10.45 8.31 C7.06 7.67, 5.74 3.54, 0.63 -1.12 M12.46 4.42 C8.83 1.6, 7.47 -1.92, 2.67 -4.68 M11.89 4.86 C9.83 3.24, 8.1 -0.4, 3.36 -3.96" stroke="#000000" stroke-width="0.5" fill="none"></path><path d="M0.16 1.24 C2.56 0.14, 2.37 -0.62, 8.87 -1.32 M-0.57 0.73 C2.36 0.65, 4.47 -0.76, 9.95 -0.29 M11.77 -0.63 C7.3 4.58, 5.21 5.98, 7.28 22.12 M9.25 -0.92 C11.51 7.2, 10.97 11.86, 10.37 20.4 M8.18 21.74 C7.92 21.5, 3.86 20.79, 1.21 22.64 M9.13 21.57 C6.89 21.13, 3.48 21.82, 0.58 20.98 M-0.94 21.72 C-2.28 18.26, -1.26 8.32, -3.32 2.16 M-1.54 21.28 C1.79 11.82, 1.24 4.21, 1.09 -1.79" stroke="#000000" stroke-width="1" fill="none"></path></g><g stroke-linecap="round" transform="translate(954.4892348752114 598.0822203097705) rotate(233.50826307900493 4.710528643014868 10.61510674418264)"><path d="M0 0 C0 0, 0 0, 0 0 M0 0 C0 0, 0 0, 0 0 M0.68 6.39 C2.66 6, 3.75 3.91, 4.75 -0.78 M0.26 6.53 C1.09 5.08, 2.35 3.31, 4.27 -0.06 M1.07 9.4 C0.8 8.93, 3.36 8.53, 9.86 1.69 M0.76 12.79 C4.06 9.25, 7.84 4.23, 9.77 1.11 M-0.16 18.18 C2.49 12.56, 4.11 8.95, 13.08 5.49 M-1.28 16.99 C2.34 14.14, 5.53 9.94, 11.69 6.15 M0.26 23.63 C4.61 19.41, 5.58 15.4, 11.09 12.16 M0.68 22.55 C3.66 18, 7.78 14.93, 9.11 12.31 M7.17 23.26 C6.82 22.55, 8.5 20.82, 10.09 18.2 M7.05 22.9 C7.28 22.35, 8.1 20.96, 9.99 18.97 M0.05 21.28 C0.05 21.28, 0.05 21.28, 0.05 21.28 M0.05 21.28 C0.05 21.28, 0.05 21.28, 0.05 21.28 M5.01 21.77 C5.24 20.51, 2.07 17.4, -0.74 14.41 M5.56 22.09 C4.39 19.43, 1.49 17.06, -1.04 15.74 M9.73 21.95 C4.52 17.84, 3.67 14.26, 2.26 12.73 M10.39 20.35 C7.14 17.31, 1.79 13.83, 0.09 11.57 M11.23 17.8 C5.21 12.03, 1.52 9.75, -2.81 7.73 M10.89 14.2 C5.33 11.38, 3.78 8.9, -0.22 4.61 M12.12 8.86 C5.66 9.14, 7.31 3.08, -1.27 -0.84 M9.66 8.38 C9.72 8.02, 5.91 6.09, -1.16 0.43 M11.12 4.87 C8.46 4.21, 4.84 0.1, 0.93 -4.37 M11.56 5.06 C9.76 3.54, 5.65 1.31, 1.65 -2.03" stroke="#000000" stroke-width="0.5" fill="none"></path><path d="M1.24 0.62 C2.61 -1.53, 4.28 -0.57, 8.11 -1.83 M0.73 0.45 C3.35 0.76, 4.72 0.64, 9.13 -0.73 M8.79 -1.76 C9.62 0.71, 6.29 6.97, 10.31 20.36 M8.5 1.89 C10.48 8.7, 9.24 15.65, 8.59 22.05 M9.93 22.94 C5.87 21.97, 1.46 22.32, 1.41 21.16 M9.77 21.49 C7.12 20.81, 5.57 21.75, -0.25 21.24 M0.49 18.67 C3.05 14.72, -0.51 7.97, 2.16 3.41 M0.05 22.73 C-1.11 17.24, -0.54 12.44, -1.79 -1.79" stroke="#000000" stroke-width="1" fill="none"></path></g><g transform="translate(877.4254349565226 469.8033779691811) rotate(0 69.65422919049865 60.680371442029525)"><text x="139.30845838099725" y="42.6803714420295" font-family="Virgil, Segoe UI Emoji" font-size="47.75298826716959px" fill="#000000" text-anchor="end" style="white-space: pre;" direction="ltr">Kafka</text><text x="139.30845838099725" y="103.360742884059" font-family="Virgil, Segoe UI Emoji" font-size="47.75298826716959px" fill="#000000" text-anchor="end" style="white-space: pre;" direction="ltr"></text></g><g stroke-linecap="round" transform="translate(82.53254095940419 582.6037680715972) rotate(0 61.225670888596476 92.90655343953858)"><path d="M1.88 1.63 L122.65 -1.14 L122.38 186.89 L0.8 187.13" stroke="none" stroke-width="0" fill="#fff"></path><path d="M1.3 0.03 C35.75 -2.18, 69.18 -1.94, 122.2 -1.11 M-0.96 -0.68 C29.33 0.28, 57.44 -0.31, 123.12 -0.62 M120.9 -0.1 C123.51 60.67, 120.74 118.34, 122.72 187.07 M122.64 0.28 C122.97 42.79, 121.9 84.52, 123.03 186.19 M121.27 185.79 C93.39 187.51, 68.48 187.83, -1.83 185.23 M123.28 186.74 C88.02 185.65, 55.15 186.28, -0.69 185.85 M-0.89 187.78 C1.92 137.8, -0.69 93.73, 1.04 -1.84 M-0.44 186.64 C-0.8 124.5, -2.04 64.5, 0.6 -0.92" stroke="#000000" stroke-width="2" fill="none"></path></g><g stroke-linecap="round" transform="translate(69.4565383974097 570.4413937847291) rotate(0 61.22567088859647 92.90655343953858)"><path d="M1.63 0.2 L121.31 -0.08 L123.53 186.61 L1.31 185.28" stroke="none" stroke-width="0" fill="#fff"></path><path d="M0.03 1.25 C33.82 -0.61, 69.75 -1.04, 121.34 -1.25 M-0.68 0.23 C45.18 0.42, 89.94 1.85, 121.83 0.23 M122.35 1.23 C121.57 52.42, 119.16 108.17, 123.7 184.41 M122.73 0.29 C121.93 57.26, 120.91 116.66, 122.83 185.04 M122.43 184.05 C94.25 185.72, 65.62 183.25, -0.58 185.35 M123.37 185.31 C83.21 187.38, 44.81 186.13, 0.04 185.3 M1.97 186.53 C-1.28 140.18, 0.87 99.35, -1.84 0.5 M0.83 186.75 C-1.68 112.37, -1.29 40.11, -0.92 0.94" stroke="#000000" stroke-width="2" fill="none"></path></g><g stroke-linecap="round" transform="translate(53.17945306404407 556.1414193747867) rotate(0 61.22567088859647 92.90655343953858)"><path d="M0.2 -1.14 L122.38 1.07 L123.25 187.13 L-0.53 186.31" stroke="none" stroke-width="0" fill="#fff"></path><path d="M1.25 -1.87 C39.97 -1.65, 79.31 -1.12, 121.2 1.41 M0.23 -0.18 C31.42 0.06, 65.03 0.22, 122.68 -0.1 M123.69 0.59 C119.48 39.29, 121.27 83.48, 121.05 186.06 M122.74 0.04 C122.02 49.14, 123.38 100.61, 121.68 185.18 M120.69 186.57 C76.97 186.88, 28.39 185.22, -0.46 186.19 M121.95 185.59 C85.69 187.35, 47.12 186.98, -0.51 185.17 M0.72 184.01 C-1.06 135.64, 1.87 82.95, 0.5 1.87 M0.94 184.89 C0.52 122.01, 1.41 58.36, 0.94 0.82" stroke="#000000" stroke-width="2" fill="none"></path></g><g stroke-linecap="round"><g transform="translate(73.68884074129531 641.0205919005168) rotate(0 40.11710549991462 -3.4341419450258854)"><path d="M0.75 -2.04 C12.31 -2.16, 56.85 -0.8, 70.15 -1.62 C83.45 -2.44, 78.92 -6.3, 80.55 -6.93 M-0.32 -0.01 C11.03 -0.02, 55.92 0.39, 69.26 -0.6 C82.6 -1.59, 77.95 -4.81, 79.71 -5.97" stroke="#000000" stroke-width="1" fill="none"></path></g></g><g stroke-linecap="round"><g transform="translate(76.26854363939339 586.7900831518541) rotate(0 38.57844362015834 -3.2719518042090385)"><path d="M-1.12 -0.71 C3.57 -1.67, 14.95 -5.59, 28.18 -5.83 C41.41 -6.07, 69.68 -2.81, 78.28 -2.14 M0.49 -1.7 C5.55 -2.53, 17.6 -4.45, 30.38 -4.37 C43.16 -4.29, 68.82 -1.78, 77.17 -1.22" stroke="#000000" stroke-width="1" fill="none"></path></g></g><g stroke-linecap="round"><g transform="translate(75.9589131843359 702.5764131587671) rotate(0 41.01196134809243 -0.4312990040177169)"><path d="M0.11 -1.56 C7.59 -1.56, 34.89 -2.66, 45.61 -1.69 C56.33 -0.71, 58.15 4.85, 64.43 4.28 C70.71 3.7, 80.21 -3.81, 83.3 -5.14 M-1.29 0.54 C5.95 0.78, 33.22 -0.8, 44.58 -0.5 C55.95 -0.19, 60.48 3.07, 66.93 2.38 C73.38 1.69, 80.35 -3.72, 83.31 -4.64" stroke="#000000" stroke-width="1" fill="none"></path></g></g><g stroke-linecap="round"><g transform="translate(70.6040245436574 722.8429415336586) rotate(0 46.776931217898166 -2.2707827018527382)"><path d="M-0.98 -0.83 C2.03 -1.31, 11.99 -3.15, 16.95 -3.45 C21.91 -3.74, 18.45 -3.08, 28.79 -2.58 C39.13 -2.08, 68.03 -0.05, 78.99 -0.43 C89.95 -0.81, 92.14 -4.01, 94.54 -4.87 M0.7 -1.95 C4.21 -2.3, 14.68 -2.38, 19.31 -2.3 C23.94 -2.23, 18.58 -1.92, 28.47 -1.5 C38.36 -1.08, 67.84 0.76, 78.63 0.24 C89.42 -0.27, 90.6 -3.98, 93.21 -4.59" stroke="#000000" stroke-width="1" fill="none"></path></g></g><g stroke-linecap="round"><g transform="translate(70.58521387733887 611.7382950478891) rotate(0 39.58590408775143 0.30630570043263106)"><path d="M-0.15 -0.84 C4.96 -0.71, 17.27 -0.82, 30.77 -0.35 C44.27 0.11, 72.57 1.31, 80.86 1.93 M-1.69 1.43 C3.8 1.31, 19.5 -2.24, 33.09 -2.03 C46.68 -1.83, 71.99 1.54, 79.86 2.65" stroke="#000000" stroke-width="1" fill="none"></path></g></g><g stroke-linecap="round"><g transform="translate(71.50555761685399 671.4929972822836) rotate(0 40.653663245682864 0.9258247197643641)"><path d="M-0.66 -0.92 C1.98 -0.56, 9.7 2.04, 14.87 1.85 C20.04 1.67, 19.25 -2.19, 30.37 -2.02 C41.48 -1.85, 73.24 2.18, 81.58 2.88 M1.19 1.3 C3.83 1.84, 9.12 3.56, 14.36 3.16 C19.61 2.75, 21.38 -1.25, 32.65 -1.13 C43.92 -1.01, 73.73 3.33, 81.97 3.87" stroke="#000000" stroke-width="1" fill="none"></path></g></g><g transform="translate(67.57455369659971 498.86158401184326) rotate(0 48.17390919067729 69.09793035430482)"><text x="96.34781838135459" y="49.09793035430479" font-family="Virgil, Segoe UI Emoji" font-size="54.377265317947156px" fill="#000000" text-anchor="end" style="white-space: pre;" direction="ltr">CSV</text><text x="96.34781838135459" y="118.19586070860959" font-family="Virgil, Segoe UI Emoji" font-size="54.377265317947156px" fill="#000000" text-anchor="end" style="white-space: pre;" direction="ltr"></text></g><g stroke-linecap="round"><g transform="translate(233.4429533826413 701.8967795166418) rotate(0 110.48510000687702 -84.81446307831527)"><path d="M-0.64 -24.12 C32.79 -24.58, 161.07 -5.08, 197.93 -27.25 C234.79 -49.42, 216.7 -135.51, 220.51 -157.13 M4.2 -18.74 C37.63 -18.65, 160.53 -1.6, 196.44 -24.25 C232.34 -46.9, 215.29 -132.86, 219.64 -154.63" stroke="#000000" stroke-width="2" fill="none"></path></g><g transform="translate(233.4429533826413 701.8967795166418) rotate(0 110.48510000687702 -84.81446307831527)"><path d="M227.71 -124.45 C226.43 -129.74, 224.4 -135.04, 218.29 -156.22 M231.35 -125.35 C228.71 -132.39, 224.79 -142.8, 217.68 -156.42" stroke="#000000" stroke-width="2" fill="none"></path></g><g transform="translate(233.4429533826413 701.8967795166418) rotate(0 110.48510000687702 -84.81446307831527)"><path d="M207.19 -124.53 C210.09 -129.72, 212.26 -135, 218.29 -156.22 M210.83 -125.44 C213.51 -132.19, 214.92 -142.58, 217.68 -156.42" stroke="#000000" stroke-width="2" fill="none"></path></g></g><g stroke-linecap="round"><g transform="translate(497.63639290961936 216.15338198242966) rotate(0 129.4031455256972 -60.81223263071927)"><path d="M-1.04 -14.6 C0.84 -28.86, -34.17 -86.63, 10.29 -100.88 C54.76 -115.13, 222.68 -100.27, 265.75 -100.1 M3.59 -17.1 C6.47 -31.04, -28.81 -85.33, 15.79 -98.65 C60.39 -111.98, 228.88 -97.3, 271.17 -97.05" stroke="#000000" stroke-width="2" fill="none"></path></g><g transform="translate(497.63639290961936 216.15338198242966) rotate(0 129.4031455256972 -60.81223263071927)"><path d="M242.45 -90.47 C246.49 -93.97, 257.62 -92.07, 271.36 -96.99 M240.7 -89.49 C253.44 -90.06, 261.51 -93.32, 271.48 -97.77" stroke="#000000" stroke-width="2" fill="none"></path></g><g transform="translate(497.63639290961936 216.15338198242966) rotate(0 129.4031455256972 -60.81223263071927)"><path d="M243.39 -110.97 C247.06 -109.04, 257.95 -101.71, 271.36 -96.99 M241.64 -109.99 C253.85 -103.89, 261.62 -100.5, 271.48 -97.77" stroke="#000000" stroke-width="2" fill="none"></path></g></g><g stroke-linecap="round"><g transform="translate(811.2791068204417 717.9912007354276) rotate(180 -160.34588152911743 -99.73996401776799)"><path d="M-42.09 -23.31 C-44.75 -47.47, -17.54 -145.1, -58.27 -167.73 C-98.99 -190.36, -249.26 -160.85, -286.45 -159.07 M-37.34 -25.17 C-40.11 -48.98, -18.92 -142.03, -59.52 -163.95 C-100.12 -185.87, -242.87 -158.33, -280.95 -156.69" stroke="#000000" stroke-width="2" fill="none"></path></g><g transform="translate(811.2791068204417 717.9912007354276) rotate(180 -160.34588152911743 -99.73996401776799)"><path d="M-252.5 -167.45 C-260.62 -170.18, -269.99 -159.4, -279.96 -160.51 M-252.29 -168.63 C-260.86 -165.06, -271.02 -160.55, -280.79 -156.24" stroke="#000000" stroke-width="2" fill="none"></path></g><g transform="translate(811.2791068204417 717.9912007354276) rotate(180 -160.34588152911743 -99.73996401776799)"><path d="M-250.19 -147.06 C-259.17 -155.18, -269.14 -149.77, -279.96 -160.51 M-249.99 -148.24 C-259.49 -150.84, -270.34 -152.51, -280.79 -156.24" stroke="#000000" stroke-width="2" fill="none"></path></g></g><g stroke-linecap="round" transform="translate(798.2750600004483 303.438863353611) rotate(0 160.6747863535428 26.921573245407444)"><path d="M13.86 -1.05 L312.79 -1.62 L318.14 1.69 L318.64 9.29 L320.21 42.06 L316.2 49.32 L313.37 51.79 L306.84 54.35 L11.01 51.93 L6.11 50.58 L0.76 44.5 L1.93 13.58 L0.13 7.29 L3.12 4.21 L6.95 2.69 L14.88 -0.37" stroke="none" stroke-width="0" fill="#ffecb0"></path><path d="M13.46 0 M13.46 0 C121.3 -1.17, 227.46 -1.47, 307.89 0 M13.46 0 C125.94 1.12, 237.1 1.34, 307.89 0 M307.89 0 C318.83 0.1, 321.53 5.21, 321.35 13.46 M307.89 0 C315.53 -0.36, 319.65 2.39, 321.35 13.46 M321.35 13.46 C322.56 17.26, 320.2 23.93, 321.35 40.38 M321.35 13.46 C321.2 21.52, 321.39 31.38, 321.35 40.38 M321.35 40.38 C322.65 50.63, 317.61 53.77, 307.89 53.84 M321.35 40.38 C323.04 49.82, 317.75 53.53, 307.89 53.84 M307.89 53.84 C237.58 55.57, 168.21 54.39, 13.46 53.84 M307.89 53.84 C193.8 53.61, 78.65 52.23, 13.46 53.84 M13.46 53.84 C4.96 52.6, -1.58 48.43, 0 40.38 M13.46 53.84 C6.54 52.57, -2.24 50.11, 0 40.38 M0 40.38 C-0.82 31.76, 0.73 26.65, 0 13.46 M0 40.38 C0.98 32.76, 0.15 23.88, 0 13.46 M0 13.46 C1.67 3.86, 5.55 1.13, 13.46 0 M0 13.46 C-0.95 6.16, 5.74 -0.25, 13.46 0" stroke="#ffd754" stroke-width="1" fill="none"></path></g><g transform="translate(825.6239598053069 308.99410862647255) rotate(0 117.08747728954984 19.229695175291027)"><text x="234.17495457909962" y="26.459390350582076" font-family="Virgil, Segoe UI Emoji" font-size="30.767512280465635px" fill="#000000" text-anchor="end" style="white-space: pre;" direction="ltr">DB:Spring-batch</text></g><g stroke-linecap="round" transform="translate(801.6936724760556 372.66576598465844) rotate(0 160.6747863535428 26.921573245407444)"><path d="M12.05 1.18 L309.62 -0.2 L316.1 2.92 L320.64 6.56 L320.72 42.04 L319.56 50.75 L315.18 54.03 L306.49 52.8 L11.3 52.31 L4.07 50.07 L1.55 47.81 L-0.17 11.82 L2.74 7.78 L2.59 3.15 L6.42 0.67 L13.99 0.06" stroke="none" stroke-width="0" fill="#ffecb0"></path><path d="M13.46 0 M13.46 0 C114.57 -0.57, 214.5 1.47, 307.89 0 M13.46 0 C92.99 0.03, 173.52 -0.06, 307.89 0 M307.89 0 C317.43 0.35, 322.04 5.85, 321.35 13.46 M307.89 0 C318.51 1.49, 320.12 4.95, 321.35 13.46 M321.35 13.46 C320.5 21.88, 319.62 24.94, 321.35 40.38 M321.35 13.46 C320.64 19.85, 320.56 27.69, 321.35 40.38 M321.35 40.38 C320.97 50.59, 317.98 52.41, 307.89 53.84 M321.35 40.38 C322.81 49.97, 314.71 53.14, 307.89 53.84 M307.89 53.84 C190.23 53.88, 74.55 55.88, 13.46 53.84 M307.89 53.84 C233.1 55.07, 159.39 56.2, 13.46 53.84 M13.46 53.84 C5.34 55.35, -1.05 50.42, 0 40.38 M13.46 53.84 C5.21 51.59, 1.64 47.2, 0 40.38 M0 40.38 C1.26 31.08, -0.1 19.47, 0 13.46 M0 40.38 C-0.85 31.05, 0.25 23.4, 0 13.46 M0 13.46 C-1.48 5.07, 2.65 -0.81, 13.46 0 M0 13.46 C-1.84 5.53, 6.55 0.32, 13.46 0" stroke="#ffd754" stroke-width="1" fill="none"></path></g><g transform="translate(820.9233676513475 376.93903157916765) rotate(0 143.15439741605542 38.45939035058208)"><text x="286.30879483211083" y="26.459390350582076" font-family="Virgil, Segoe UI Emoji" font-size="30.767512280465645px" fill="#000000" text-anchor="end" style="white-space: pre;" direction="ltr">DB:data_migration</text><text x="286.30879483211083" y="64.91878070116415" font-family="Virgil, Segoe UI Emoji" font-size="30.767512280465645px" fill="#000000" text-anchor="end" style="white-space: pre;" direction="ltr"></text></g><g stroke-linecap="round" transform="translate(751.2691384608479 765.3788741200467) rotate(0 234.17495457909968 33.33147163717115)"><path d="M0 0 C0 0, 0 0, 0 0 M0 0 C0 0, 0 0, 0 0 M-1.15 13.66 C1.7 8.26, 7.33 4.62, 10.31 -1.16 M-1.28 13.28 C1.67 9.46, 5.75 6.26, 11.92 1.39 M2.33 20.85 C2.99 19.3, 15.83 14.59, 24.27 -1.72 M0.6 25.16 C6.52 15.27, 16.12 4.6, 21.35 -0.5 M-0.88 40.22 C8.8 32.06, 14.67 17.05, 31.2 -3.95 M-1.3 37.09 C9.71 23.83, 25.05 7.7, 33.6 -1.63 M0.83 45.48 C12.96 35.41, 19.29 27.29, 39.07 0.33 M-1.3 48.91 C9.09 40.25, 18.31 26.71, 42.35 0.72 M-0.54 58.77 C19.83 41.56, 34.95 22.02, 49.54 0.53 M-0.76 59.03 C21.5 37.39, 39.09 14.65, 52.73 -0.65 M-0.46 71.62 C18.21 54.33, 25.83 43.69, 64.54 2.36 M3.22 67.3 C22.75 44.78, 42.76 23.54, 65.37 0.83 M13.53 68.12 C27.88 50.01, 41.91 37.17, 72.88 3.21 M14.11 70.04 C36.12 41.3, 62.31 16.39, 74.02 -1.23 M28.61 69.86 C35.38 54.24, 53.32 37.85, 88.86 3.52 M25.93 70.97 C40.41 50.36, 55.79 36.27, 85.28 1.2 M31.69 70.21 C54.7 39, 80.98 14.01, 98.92 -1.81 M37.22 67.39 C61.23 42.05, 84.84 14.34, 96.28 -0.22 M44.8 65.95 C62.92 45.47, 89.27 27.26, 108.26 -4.09 M45.58 67.79 C58.02 53.18, 69.49 39.16, 106.38 1.23 M59.06 69.44 C79.01 45.25, 94.49 18.73, 118.78 3.32 M54.64 67.92 C74.68 46.71, 91.63 25.92, 118.16 1.29 M63.94 72.95 C82.47 46.56, 102.06 27.61, 130.37 1.33 M66.42 69.07 C88.94 43.89, 113.55 14.69, 127.79 1.1 M73.97 72.59 C91.73 46.76, 110.26 28.25, 139.58 -2.93 M77.08 69.92 C99.63 44.34, 125.52 15.64, 138.74 0.98 M85.94 72.63 C104.22 51.76, 117.19 30.35, 148.87 0.22 M89.17 68.85 C99.48 55.54, 112.46 39.73, 148.09 0.76 M100.9 73.64 C122.91 42.77, 140.57 16.08, 160.57 -0.85 M98.76 67.98 C112.2 54.15, 127.15 34.72, 159.6 1.83 M110.77 71.91 C131.48 43.95, 155.68 20.43, 167.51 -3.74 M109.03 70.5 C124.84 51.6, 136.09 35.57, 171.34 -1.54 M120.99 70.75 C134.91 51.14, 153.3 26.47, 179.68 -0.57 M118.03 67.97 C133.36 54, 145.39 39.29, 181.44 -0.9 M129.13 71.93 C157.28 45.08, 176.55 13.55, 190.79 1.3 M132.33 69.65 C150.65 48.28, 166.59 28.28, 191.73 1.72 M139.5 71.01 C159.36 47.9, 175.21 27.5, 204.94 2.72 M142.71 69.78 C160.62 47.76, 174.6 30.19, 201.44 -0.92 M149.79 72.75 C173.8 46.42, 192.46 25.68, 211.23 0.11 M149.86 68.95 C177.03 42.55, 200.71 16.09, 210.91 -1.91 M165.7 70.46 C180.79 52.43, 201.19 26.74, 226.41 0.79 M164.07 69.34 C176.33 53.37, 189.01 36.13, 223.24 1.08 M171.56 69.37 C191.67 51.31, 206.93 32.76, 229.46 2.42 M170.9 68.1 C192.84 46.4, 214.03 22.62, 232.01 1.16 M184.96 66.06 C199.65 49.21, 215.53 30.33, 244.24 0.32 M182.87 68.61 C205.51 44.09, 226.81 20.29, 242.94 -0.54 M195.35 71.75 C212.68 40.38, 237.12 19, 258.13 -1.12 M193.17 69.83 C210.77 51.6, 230.12 28.79, 253.62 0.54 M202.69 67.73 C222.96 48.74, 232.52 38.75, 264.63 2.94 M203.33 69.58 C227.11 43.81, 250.96 18.05, 263.14 1.6 M212.09 68.75 C242.38 45.58, 264.16 17.46, 277.98 -2.89 M216.89 69.89 C235 44.01, 258.14 23.99, 275.82 -0.13 M224.39 70.32 C254.57 45.03, 276.67 13.46, 287.83 1.21 M227.14 68.28 C236.81 55.24, 250.4 36.66, 286.87 -2.1 M238.8 72.18 C257.23 38.3, 282.65 17.72, 297.81 1.62 M234.73 71.07 C261.05 41.88, 282.62 15.32, 298.12 -1.15 M243.58 65.61 C266.22 51.77, 279.65 33.59, 304.18 -1.36 M247.45 68.75 C269.22 43.88, 292.2 18.31, 307.66 -0.18 M258.56 72.81 C275.16 44.7, 296.99 25.92, 318.46 1.89 M257.83 69.2 C281.85 42.4, 303.58 19.14, 317.54 -0.83 M269.88 70.32 C288.34 45.77, 317.51 15.32, 330.06 -2.34 M266.89 69.08 C284.48 53.32, 297.75 35.61, 327.49 -2.17 M280.51 68.33 C296.92 52.98, 316.89 33.22, 336.87 0.33 M277.8 67.11 C302.69 41.71, 325.58 12.33, 338.55 -1.42 M292.3 66.86 C302.12 54.48, 316.15 35.24, 347.26 -3.58 M290.9 68.14 C302.05 55.81, 315.14 38.21, 350.15 0.19 M303.18 68.1 C321.31 50.93, 334.47 32.1, 357.34 1.04 M300.06 69.45 C321.55 44, 339.87 20.05, 358.42 1.61 M309.88 68.32 C333.38 44.62, 347.8 23.1, 373.62 -2.28 M312.36 68.57 C325.43 50.52, 337.47 37.37, 369.89 -0.08 M321.15 70.2 C338.63 50.38, 359.74 28.01, 382.25 2.8 M320.48 69.61 C345.82 42.08, 367.31 13.63, 379.88 -1.46 M331.76 71 C351.05 50.73, 362.95 32.42, 391.04 1.55 M329.65 71.3 C353.37 43.92, 376.22 19.61, 393.45 1.35 M341.1 69.88 C366.42 39.96, 386.37 15.01, 404.04 -0.43 M343.41 68.31 C364.41 42.34, 388.27 14.22, 401.14 -0.03 M351.8 71.35 C372.44 54.35, 382.07 37.33, 416.17 -1.87 M351.26 70.55 C367.04 51.74, 382.24 39.34, 412.67 -0.91 M364.4 68.58 C387.44 44.6, 403.61 18.24, 427.88 -2.47 M362.34 68.5 C382.59 48.83, 403.59 24.05, 424.56 -0.23 M375.92 70.8 C393.37 48.08, 415.46 21.3, 431.71 -3.44 M373.16 68.54 C386.28 56.26, 400.38 39.82, 433.89 0.76 M382.52 70.68 C398.64 55.41, 415.37 35.04, 443 3.77 M385.23 70.21 C402.46 51.48, 417.1 35.69, 445.95 1.82 M394.1 71.69 C406.66 54.22, 419.76 42.72, 454.42 -3.08 M396.8 69.56 C413.01 48.19, 426.54 31.43, 455.91 1.03 M404.96 71.49 C428.45 43.97, 455.53 18.17, 466.69 -1.68 M404.5 68.46 C425.83 45.06, 448.46 22.01, 464.58 -1.93 M416.38 73.3 C430.96 48.69, 444.01 33.46, 471.19 6.75 M415.08 69.91 C431.66 51.92, 445.18 37.19, 472.07 4.11 M431.29 69.26 C434.43 52.89, 447.52 39.1, 469.88 18.76 M427.04 71.33 C441.58 55.45, 454.3 41.71, 474.78 15.06 M436.87 67.85 C450.35 51.51, 466.64 42.71, 469.78 27.06 M438.37 67.91 C448.41 58.42, 453.82 49.83, 474.96 27.83 M447.16 69.19 C458.07 61.21, 456.35 55.12, 473.86 41.94 M448.21 69.91 C454.53 61.24, 459.48 56.61, 472.64 41.74 M461.73 68.5 C463.94 65.86, 463.77 62.81, 473.55 51.88 M460.53 69.95 C463.94 62.1, 467.77 57.32, 473.21 53.07" stroke="#228be6" stroke-width="1" fill="none"></path><path d="M0.93 0.55 C148.11 1.03, 297.95 0.14, 469.13 1.05 M-0.45 0.05 C151.71 2.68, 302.08 3.05, 468.66 -0.04 M470.97 -2.31 C467.27 22.39, 465.21 47.37, 468.39 69.06 M469.12 -0.86 C467.42 24.36, 467.07 49.74, 470.05 64.85 M467.38 64.94 C320.85 65.24, 172.01 65.52, -0.18 67.61 M468.01 66.68 C362.68 65.44, 257.19 65.98, -0.59 65.93 M3.72 64.01 C-0.87 45.74, 0.22 24.91, -0.32 -0.22 M1.52 65.07 C-1.31 50.69, -2.84 32.34, -0.58 -1.64" stroke="#000000" stroke-width="2" fill="none"></path></g><g transform="translate(779.4726913846084 779.0533240224759) rotate(0 208.96268757149585 19.229695175291056)"><text x="417.92537514299175" y="26.459390350582076" font-family="Virgil, Segoe UI Emoji" font-size="30.767512280465642px" fill="#000000" text-anchor="end" style="white-space: pre;" direction="ltr">TP: spring-batch-partitioner</text></g><g stroke-linecap="round" transform="translate(10 783.8963583629193) rotate(0 135.88984590538996 30.767512280465667)"><path d="M0 0 C0 0, 0 0, 0 0 M0 0 C0 0, 0 0, 0 0 M2.04 14.79 C7.08 10.25, 7.57 5.25, 13.26 1.73 M0.52 11.73 C1.54 8.52, 6.1 4.74, 11.71 0.93 M2.43 20.12 C7.58 13.5, 9.51 7.99, 19.08 2.55 M-0.04 25.61 C9.19 15.07, 16.81 5.34, 20.34 -1.09 M-0.88 38.17 C8.75 20.22, 19.86 14.77, 34.57 3.77 M0 38.56 C5.34 29.06, 16.15 19.24, 31.54 0.76 M-1.8 51.65 C9.49 38.92, 16.7 30.59, 43.08 0.88 M1.16 48.22 C13.41 32.21, 29.34 16.52, 43.63 -1.45 M-3.36 59.98 C17.54 45.64, 30.97 23.15, 51.02 3.71 M-0.86 59.64 C14.87 45.27, 28.48 28.5, 53.74 0.3 M6.63 68.76 C20.32 41.39, 38.41 26.97, 59.84 -0.55 M6.76 66.99 C25.2 41.75, 47.17 18, 65.37 -0.05 M13.23 68.3 C37.12 38.86, 57.88 19.22, 73.42 -0.71 M15.52 67.19 C37.61 42.93, 54.77 21.43, 73.71 1.05 M24.97 68.43 C42.54 47.38, 62.16 27.44, 85.45 1.07 M28.15 67.77 C39.08 52.64, 51.3 37.25, 84.95 -1.61 M39.77 65.06 C57.75 45.03, 74.67 19.11, 94.82 -4.14 M36.44 68.47 C56.41 45.35, 75.09 24.03, 97.61 -2.23 M51.76 64.62 C72.89 43.08, 93.93 17.27, 108.96 2.64 M46.06 66.78 C58.93 50.99, 74.97 37.99, 105.81 1.61 M57.28 67.66 C71.53 42.91, 88.27 28.85, 118.58 3.61 M58.44 68.58 C76.23 46.16, 95.28 26.41, 115.98 1.43 M69.59 68.25 C92.03 45.87, 107.58 24.91, 127.67 -0.15 M67.43 68.62 C81.28 53.25, 95.72 35.96, 128.75 0.55 M82.3 64.56 C97.84 50.28, 113.68 24.18, 140.94 -1.51 M78.68 68.13 C98.8 46.26, 114.86 26.6, 136.35 2.22 M92.66 65.54 C106.7 52.43, 123.13 35.32, 145.81 4.23 M90.86 66.6 C102.37 54.05, 116.11 38.22, 148.56 0.38 M105 69.52 C115.55 53.6, 128.19 37.11, 159.13 2.81 M103.03 67.41 C123.18 39.67, 147.93 13.55, 157.34 0.05 M114.09 62.81 C127.51 48.13, 141.77 28.9, 166.56 3.58 M111.96 65.52 C127.57 48.38, 142.63 32.79, 168.13 -0.99 M124.48 70.36 C138.36 44.08, 164.2 24.1, 177.96 -1.83 M123.4 65.18 C141.87 45.09, 159.49 26.62, 181.21 -0.47 M133.94 66.39 C156.31 39.09, 176.51 11.11, 190.72 3.06 M133.41 67.61 C145.98 54.6, 155.58 38.99, 190.99 2.04 M144.78 64.98 C164.54 50.26, 179.26 28.05, 205.18 2.25 M143.7 64.68 C158.62 49.25, 171.06 35.48, 203.3 0.78 M155.23 62.72 C168.55 49.17, 176.94 37.57, 212 -2.14 M154.9 66.61 C175.38 40.38, 198.25 14.95, 210.74 1.55 M162.85 65.33 C185.27 39.76, 211.41 9.62, 223.5 0.77 M165.9 67.63 C182 45.27, 201.73 20.86, 221.95 1.35 M171.89 70.27 C185.67 48.86, 200.71 32.67, 237.06 1.24 M175.15 65.69 C189.2 51.73, 200.89 37.07, 232.98 -1.91 M188.62 69.41 C205.55 53.1, 221.12 35.46, 242.52 -0.47 M187.99 68.18 C206.93 45.31, 224 25.97, 244.55 -1.73 M196.79 63.59 C220.56 44.28, 240.34 18.17, 257.51 0.53 M197.92 67.53 C217.48 38.83, 239.31 15.63, 253.38 -1.33 M208.93 65.3 C215.34 55.99, 225.4 44.15, 262.83 -3.61 M205.98 66.98 C218.94 50.42, 232.9 36.98, 265.5 -1.96 M217.76 65.27 C230.36 52.42, 240.96 37.02, 275.9 3.38 M218.01 68.23 C233.76 44.83, 251.95 27.72, 273.63 1.05 M231.57 67.14 C238.12 50.63, 251.15 37.04, 275.45 15.6 M227.95 65.14 C246.63 49.76, 263.65 28.95, 275.79 12.99 M241.55 70 C249.47 55.44, 254.21 53.61, 272.65 24.87 M239.21 67.41 C249.52 57.87, 257.74 47.58, 274.39 26.81 M249.25 63.13 C256.4 59.19, 263.12 49.73, 270.77 38.61 M247.96 66.25 C259.21 58.52, 265.39 47.35, 273.83 38.01 M257.19 65.26 C261.91 63.28, 268.1 60.81, 276.53 49.37 M259.74 66.87 C267.06 62.06, 270.15 53.56, 271.77 49.23" stroke="#228be6" stroke-width="1" fill="none"></path><path d="M0.43 -0.66 C101.46 2.43, 201.12 4.04, 271.2 -0.39 M-1.29 1.07 C77.51 -3.34, 152.08 -2.4, 271.92 -0.92 M268.01 -0.39 C269.99 16.26, 273.88 31.84, 273.92 58.57 M273.2 -1.12 C272.74 24.73, 270.66 48.37, 271.06 61.42 M272.8 63.2 C171.66 60.11, 64.94 63.53, 2.28 59.6 M271.12 62.15 C183.16 58.19, 91.31 59.88, 0.73 60.09 M0.18 63.54 C0.01 37.62, 0.77 16.3, 0.53 -2.35 M-1.91 60.04 C-2.02 45.31, -0.24 29.75, -0.42 -0.35" stroke="#000000" stroke-width="2" fill="none"></path></g><g transform="translate(22.819796783527373 792.4428895519379) rotate(0 117.51480384900071 38.459390350582055)"><text x="235.02960769800143" y="26.459390350582076" font-family="Virgil, Segoe UI Emoji" font-size="30.767512280465635px" fill="#000000" text-anchor="end" style="white-space: pre;" direction="ltr">file:employee.csv</text><text x="235.02960769800143" y="64.91878070116415" font-family="Virgil, Segoe UI Emoji" font-size="30.767512280465635px" fill="#000000" text-anchor="end" style="white-space: pre;" direction="ltr"></text></g></svg>